{"glyphs":{"0":{"ha":833,"x_min":78,"x_max":756,"o":"m 417 -17 q 239 37 315 -17 q 120 193 163 90 q 78 444 78 296 q 171 785 78 671 q 417 899 264 899 q 663 785 571 899 q 756 444 756 671 q 713 193 756 296 q 595 37 671 90 q 417 -17 519 -17 m 417 142 q 497 169 461 142 q 553 264 532 197 q 574 444 574 331 q 553 624 574 560 q 497 715 532 689 q 417 740 461 740 q 338 715 374 740 q 281 624 301 689 q 260 444 260 560 q 281 264 260 331 q 338 169 301 197 q 417 142 374 142 m 417 342 q 343 371 374 342 q 313 447 313 400 q 343 524 313 496 q 417 553 374 553 q 491 524 461 553 q 521 447 521 496 q 491 371 521 400 q 417 342 461 342 z "},"1":{"ha":833,"x_min":110,"x_max":751,"o":"m 110 0 l 110 165 l 347 165 l 347 675 l 151 675 l 151 801 q 255 822 211 811 q 333 847 299 832 q 401 882 368 861 l 551 882 l 551 165 l 751 165 l 751 0 l 110 0 z "},"2":{"ha":833,"x_min":71,"x_max":743,"o":"m 81 0 l 81 117 q 302 310 207 224 q 450 470 397 397 q 503 606 503 543 q 465 705 503 671 q 358 739 426 739 q 262 712 306 739 q 181 649 218 685 l 71 758 q 212 864 139 829 q 386 899 285 899 q 548 864 478 899 q 658 766 618 829 q 697 618 697 703 q 652 467 697 543 q 533 313 607 390 q 374 161 458 236 q 456 169 411 165 q 533 172 500 172 l 743 172 l 743 0 l 81 0 z "},"3":{"ha":833,"x_min":58,"x_max":738,"o":"m 388 -17 q 251 -1 313 -17 q 140 43 189 15 q 58 108 92 71 l 153 238 q 253 174 197 199 q 368 149 308 149 q 453 160 415 149 q 512 196 490 172 q 533 253 533 219 q 510 320 533 292 q 428 364 486 349 q 267 379 371 379 l 267 524 q 406 539 354 524 q 481 581 457 554 q 504 642 504 607 q 469 714 504 689 q 374 739 435 739 q 277 719 322 739 q 186 661 232 699 l 83 786 q 224 869 149 839 q 383 899 299 899 q 553 870 479 899 q 667 788 626 842 q 708 657 708 735 q 664 540 708 589 q 540 461 619 492 l 540 456 q 641 412 596 440 q 712 340 686 383 q 738 240 738 297 q 689 101 738 158 q 561 13 640 43 q 388 -17 482 -17 z "},"4":{"ha":833,"x_min":49,"x_max":775,"o":"m 474 0 l 474 515 q 476 612 474 557 q 481 708 479 667 l 475 708 q 427 635 453 672 q 379 558 401 597 l 246 367 l 775 367 l 775 211 l 49 211 l 49 351 l 417 882 l 664 882 l 664 0 l 474 0 z "},"5":{"ha":833,"x_min":64,"x_max":739,"o":"m 393 -17 q 256 0 317 -17 q 147 44 194 17 q 64 107 100 72 l 156 236 q 217 192 185 213 q 285 160 249 172 q 364 149 322 149 q 453 165 414 149 q 513 211 492 181 q 535 286 535 242 q 489 388 535 353 q 374 422 443 422 q 301 413 331 422 q 225 378 271 403 l 135 436 l 158 882 l 699 882 l 699 710 l 335 710 l 319 544 q 377 560 351 556 q 436 565 403 565 q 587 536 518 565 q 697 446 656 507 q 739 292 739 385 q 690 124 739 193 q 563 19 642 56 q 393 -17 483 -17 z "},"6":{"ha":833,"x_min":83,"x_max":757,"o":"m 440 -17 q 308 8 372 -17 q 194 86 244 33 q 113 222 143 139 q 83 421 83 304 q 115 635 83 544 q 201 783 147 725 q 322 870 254 842 q 464 899 390 899 q 628 867 557 899 q 744 793 700 836 l 638 671 q 568 715 610 696 q 482 733 526 733 q 377 704 425 733 q 300 606 329 675 q 271 421 271 538 q 294 249 271 311 q 356 162 318 188 q 436 136 394 136 q 503 151 472 136 q 552 198 533 167 q 571 279 571 229 q 535 377 571 347 q 440 407 499 407 q 358 386 401 407 q 271 313 314 365 l 263 446 q 372 524 311 497 q 485 551 433 551 q 623 522 561 551 q 721 433 685 493 q 757 279 757 372 q 713 121 757 188 q 598 19 669 54 q 440 -17 526 -17 z "},"7":{"ha":833,"x_min":86,"x_max":749,"o":"m 268 0 q 290 203 274 110 q 335 378 306 296 q 413 542 365 461 q 529 710 460 624 l 86 710 l 86 882 l 749 882 l 749 757 q 614 582 665 664 q 534 415 563 500 q 492 230 506 331 q 474 0 479 129 l 268 0 z "},"8":{"ha":833,"x_min":85,"x_max":750,"o":"m 415 -17 q 239 14 314 -17 q 124 99 164 44 q 85 225 85 154 q 108 319 85 279 q 168 390 131 360 q 251 442 206 419 l 251 447 q 159 536 196 486 q 122 656 122 586 q 160 785 122 731 q 267 869 199 840 q 422 899 335 899 q 633 833 554 899 q 711 657 711 767 q 674 547 711 596 q 585 464 636 497 l 585 458 q 669 405 632 436 q 728 331 707 374 q 750 228 750 288 q 711 103 750 158 q 598 16 672 49 q 415 -17 524 -17 m 476 514 q 543 643 543 575 q 528 703 543 678 q 486 742 514 728 q 418 757 458 757 q 335 731 369 757 q 301 656 301 706 q 324 594 301 619 q 385 550 346 569 q 476 514 425 531 m 421 125 q 522 152 483 125 q 560 235 560 179 q 544 286 560 264 q 501 325 529 308 q 433 356 472 342 q 347 389 394 371 q 303 349 322 371 q 272 302 283 328 q 261 249 261 276 q 282 182 261 210 q 339 140 303 154 q 421 125 375 125 z "},"9":{"ha":833,"x_min":74,"x_max":747,"o":"m 368 -17 q 203 15 274 -17 q 86 89 132 47 l 194 211 q 264 167 222 186 q 350 149 306 149 q 455 178 407 149 q 532 276 503 207 q 561 461 561 344 q 538 633 561 571 q 476 720 514 694 q 394 746 438 746 q 329 731 360 746 q 279 685 299 715 q 260 603 260 654 q 296 506 260 536 q 392 475 332 475 q 476 497 432 475 q 560 569 519 518 l 569 436 q 460 359 521 388 q 347 331 399 331 q 208 360 271 331 q 110 449 146 389 q 74 603 74 510 q 118 761 74 694 q 235 863 163 828 q 390 899 307 899 q 523 874 460 899 q 638 796 586 849 q 718 660 689 743 q 747 461 747 578 q 716 247 747 338 q 631 99 685 157 q 509 12 578 40 q 368 -17 440 -17 z "}," ":{"ha":833,"x_min":0,"x_max":0,"o":""},"A":{"ha":833,"x_min":13,"x_max":821,"o":"m 13 0 l 294 906 l 539 906 l 821 0 l 604 0 l 488 458 q 451 603 471 526 q 415 750 432 679 l 410 750 q 375 603 393 679 q 339 458 357 526 l 221 0 l 13 0 m 199 215 l 199 375 l 632 375 l 632 215 l 199 215 z "},"B":{"ha":833,"x_min":103,"x_max":781,"o":"m 103 0 l 103 906 l 407 906 q 576 885 501 906 q 695 817 651 865 q 739 681 739 768 q 701 563 739 619 q 583 485 664 506 l 583 479 q 731 410 681 463 q 781 267 781 358 q 735 116 781 175 q 610 28 689 57 q 433 0 532 0 l 103 0 m 307 542 l 397 542 q 506 572 472 542 q 539 653 539 601 q 505 724 539 703 q 399 746 471 746 l 307 746 l 307 542 m 307 160 l 417 160 q 540 190 500 160 q 581 282 581 221 q 540 368 581 342 q 417 394 500 394 l 307 394 l 307 160 z "},"C":{"ha":833,"x_min":75,"x_max":792,"o":"m 494 -17 q 334 13 410 -17 q 200 101 258 42 q 108 247 142 160 q 75 447 75 333 q 133 703 75 597 q 288 866 190 810 q 507 922 386 922 q 663 887 593 922 q 778 807 732 851 l 665 681 q 595 728 633 711 q 507 746 557 746 q 393 710 443 746 q 314 610 343 675 q 285 454 285 544 q 314 295 285 361 q 395 194 343 229 q 515 160 447 160 q 606 182 565 160 q 679 240 646 204 l 792 117 q 661 17 736 51 q 494 -17 586 -17 z "},"D":{"ha":833,"x_min":97,"x_max":783,"o":"m 97 0 l 97 906 l 347 906 q 577 858 479 906 q 729 712 675 811 q 783 457 783 613 q 730 200 783 301 q 581 49 676 99 q 360 0 485 0 l 97 0 m 303 165 l 336 165 q 461 193 408 165 q 544 285 514 221 q 574 457 574 349 q 544 627 574 565 q 461 715 514 689 q 336 740 408 740 l 303 740 l 303 165 z "},"E":{"ha":833,"x_min":128,"x_max":742,"o":"m 128 0 l 128 906 l 728 906 l 728 733 l 333 733 l 333 551 l 668 551 l 668 381 l 333 381 l 333 172 l 742 172 l 742 0 l 128 0 z "},"F":{"ha":833,"x_min":146,"x_max":747,"o":"m 146 0 l 146 906 l 747 906 l 747 733 l 350 733 l 350 524 l 689 524 l 689 351 l 350 351 l 350 0 l 146 0 z "},"G":{"ha":833,"x_min":61,"x_max":760,"o":"m 476 -17 q 267 35 361 -17 q 117 191 172 88 q 61 447 61 294 q 117 705 61 599 q 267 867 172 811 q 479 922 363 922 q 636 887 571 922 q 744 807 701 851 l 632 681 q 568 728 603 710 q 479 746 533 746 q 374 710 421 746 q 299 610 326 675 q 272 454 272 544 q 296 295 272 361 q 368 194 319 229 q 488 160 417 160 q 538 167 514 160 q 576 188 563 174 l 576 343 l 444 343 l 444 510 l 760 510 l 760 93 q 638 17 714 50 q 476 -17 563 -17 z "},"H":{"ha":833,"x_min":89,"x_max":744,"o":"m 89 0 l 89 906 l 293 906 l 293 556 l 540 556 l 540 906 l 744 906 l 744 0 l 540 0 l 540 378 l 293 378 l 293 0 l 89 0 z "},"I":{"ha":833,"x_min":103,"x_max":731,"o":"m 103 0 l 103 172 l 314 172 l 314 733 l 103 733 l 103 906 l 731 906 l 731 733 l 519 733 l 519 172 l 731 172 l 731 0 l 103 0 z "},"J":{"ha":833,"x_min":82,"x_max":717,"o":"m 379 -17 q 223 17 304 -17 q 82 133 142 50 l 200 260 q 283 185 239 211 q 372 160 328 160 q 477 196 442 160 q 513 325 513 232 l 513 735 l 158 735 l 158 906 l 717 906 l 717 308 q 684 146 717 219 q 578 28 651 72 q 379 -17 506 -17 z "},"K":{"ha":833,"x_min":94,"x_max":825,"o":"m 94 0 l 94 906 l 301 906 l 301 535 l 306 535 l 574 906 l 800 906 l 301 247 l 301 0 l 94 0 m 599 0 l 388 421 l 508 581 l 825 0 l 599 0 z "},"L":{"ha":833,"x_min":149,"x_max":756,"o":"m 149 0 l 149 906 l 353 906 l 353 172 l 756 172 l 756 0 l 149 0 z "},"M":{"ha":833,"x_min":81,"x_max":753,"o":"m 81 0 l 81 906 l 294 906 l 383 585 l 414 460 l 419 460 l 450 585 l 539 906 l 753 906 l 753 0 l 581 0 l 581 281 q 583 374 581 318 q 590 492 586 431 q 599 608 594 553 q 607 700 604 664 l 603 700 l 533 458 l 464 240 l 364 240 l 293 458 l 228 700 l 224 700 q 231 608 226 664 q 240 492 236 553 q 247 374 244 431 q 250 281 250 318 l 250 0 l 81 0 z "},"N":{"ha":833,"x_min":92,"x_max":742,"o":"m 92 0 l 92 906 l 301 906 l 492 456 l 569 256 l 575 256 q 557 417 568 328 q 546 585 546 506 l 546 906 l 742 906 l 742 0 l 532 0 l 342 451 l 264 649 l 258 649 q 276 488 265 575 q 288 321 288 401 l 288 0 l 92 0 z "},"O":{"ha":833,"x_min":53,"x_max":781,"o":"m 417 -17 q 226 38 308 -17 q 99 197 144 92 q 53 457 53 301 q 99 712 53 608 q 226 869 144 815 q 417 922 308 922 q 607 869 525 922 q 735 712 689 815 q 781 457 781 608 q 735 197 781 301 q 607 38 689 92 q 417 -17 525 -17 m 417 160 q 499 194 464 160 q 552 294 533 228 q 571 457 571 360 q 552 615 571 551 q 499 713 533 679 q 417 746 464 746 q 335 713 369 746 q 281 615 300 679 q 263 457 263 551 q 281 294 263 360 q 335 194 300 228 q 417 160 369 160 z "},"P":{"ha":833,"x_min":104,"x_max":779,"o":"m 104 0 l 104 906 l 425 906 q 603 878 524 906 q 731 788 683 851 q 779 614 779 724 q 731 440 779 508 q 601 340 682 372 q 425 307 521 307 l 308 307 l 308 0 l 104 0 m 308 469 l 413 469 q 538 507 497 469 q 579 614 579 544 q 537 715 579 686 q 413 743 494 743 l 308 743 l 308 469 z "},"Q":{"ha":833,"x_min":53,"x_max":810,"o":"m 417 -17 q 226 38 308 -17 q 99 197 144 92 q 53 457 53 301 q 99 712 53 608 q 226 869 144 815 q 417 922 308 922 q 607 869 525 922 q 735 712 689 815 q 781 457 781 608 q 735 197 781 301 q 607 38 689 92 q 417 -17 525 -17 m 417 150 q 499 183 464 150 q 552 284 533 217 q 571 457 571 351 q 552 615 571 551 q 499 713 533 679 q 417 746 464 746 q 335 713 369 746 q 281 615 300 679 q 263 457 263 551 q 281 284 263 351 q 335 183 300 217 q 417 150 369 150 m 676 -247 q 451 -176 542 -247 q 318 6 360 -106 l 525 26 q 566 -40 539 -15 q 628 -74 593 -64 q 701 -83 664 -83 q 741 -78 722 -83 q 774 -65 760 -72 l 810 -218 q 754 -239 788 -231 q 676 -247 721 -247 z "},"R":{"ha":833,"x_min":97,"x_max":811,"o":"m 97 0 l 97 906 l 418 906 q 593 880 514 906 q 720 792 672 854 q 768 624 768 731 q 720 454 768 519 q 593 358 672 389 q 418 326 514 326 l 301 326 l 301 0 l 97 0 m 301 489 l 401 489 q 524 523 482 489 q 567 624 567 557 q 524 717 567 690 q 401 743 482 743 l 301 743 l 301 489 m 381 379 l 522 511 l 811 0 l 582 0 l 381 379 z "},"S":{"ha":833,"x_min":69,"x_max":765,"o":"m 414 -17 q 233 17 322 -17 q 69 114 143 50 l 188 254 q 301 186 239 213 q 428 160 363 160 q 524 182 493 160 q 556 239 556 204 q 539 290 556 271 q 490 323 522 308 q 415 356 458 338 l 299 406 q 204 458 249 425 q 133 538 160 490 q 106 653 106 586 q 148 788 106 728 q 265 885 190 849 q 438 922 339 922 q 599 892 519 922 q 739 803 678 861 l 635 674 q 540 727 588 708 q 426 746 493 746 q 344 725 376 746 q 313 664 313 704 q 332 619 313 638 q 385 588 351 601 q 461 557 418 574 l 571 510 q 675 455 632 488 q 742 375 718 422 q 765 264 765 328 q 724 125 765 189 q 605 22 683 61 q 414 -17 526 -17 z "},"T":{"ha":833,"x_min":43,"x_max":790,"o":"m 314 0 l 314 733 l 43 733 l 43 906 l 790 906 l 790 733 l 519 733 l 519 0 l 314 0 z "},"U":{"ha":833,"x_min":89,"x_max":744,"o":"m 419 -17 q 274 8 336 -17 q 172 78 213 32 q 110 192 131 125 q 89 349 89 260 l 89 906 l 293 906 l 293 328 q 307 236 293 274 q 349 179 321 199 q 419 160 376 160 q 491 179 463 160 q 533 236 519 199 q 547 328 547 274 l 547 906 l 744 906 l 744 349 q 725 192 744 260 q 665 78 706 125 q 563 8 624 32 q 419 -17 501 -17 z "},"V":{"ha":833,"x_min":21,"x_max":813,"o":"m 294 0 l 21 906 l 238 906 l 346 483 q 383 338 367 408 q 418 193 399 268 l 424 193 q 462 338 446 268 q 497 483 478 408 l 604 906 l 813 906 l 540 0 l 294 0 z "},"W":{"ha":833,"x_min":6,"x_max":828,"o":"m 126 0 l 6 906 l 218 906 l 246 424 q 247 348 246 385 q 249 274 249 311 q 250 196 250 238 l 256 196 q 269 274 261 238 q 285 349 276 311 q 300 424 293 386 l 361 676 l 492 676 l 549 424 q 564 350 557 386 q 579 276 571 314 q 593 196 588 238 l 599 196 q 601 276 600 238 q 602 350 601 314 q 604 424 603 386 l 629 906 l 828 906 l 717 0 l 497 0 l 444 281 q 429 368 436 324 q 419 453 422 413 l 415 453 q 406 368 411 413 q 392 281 400 324 l 339 0 l 126 0 z "},"X":{"ha":833,"x_min":25,"x_max":808,"o":"m 25 0 l 289 465 l 40 906 l 269 906 l 357 735 q 389 668 372 704 q 426 589 406 632 l 432 589 q 463 668 447 632 q 493 735 478 704 l 574 906 l 793 906 l 544 456 l 808 0 l 581 0 l 482 185 q 447 256 464 221 q 410 333 429 292 l 404 333 q 371 256 388 292 q 338 185 354 221 l 243 0 l 25 0 z "},"Y":{"ha":833,"x_min":22,"x_max":811,"o":"m 314 0 l 314 306 l 22 906 l 242 906 l 333 688 q 374 585 354 636 q 415 481 394 535 l 421 481 q 465 585 443 535 q 506 688 486 636 l 597 906 l 811 906 l 519 306 l 519 0 l 314 0 z "},"Z":{"ha":833,"x_min":78,"x_max":760,"o":"m 78 0 l 78 124 l 501 735 l 118 735 l 118 906 l 754 906 l 754 782 l 331 172 l 760 172 l 760 0 l 78 0 z "},"a":{"ha":833,"x_min":85,"x_max":743,"o":"m 311 -17 q 191 11 242 -17 q 113 86 140 39 q 85 192 85 133 q 190 368 85 307 q 539 443 294 429 q 518 497 535 475 q 470 531 501 519 q 392 543 439 543 q 325 535 358 543 q 256 513 292 528 q 182 479 221 499 l 110 613 q 209 661 157 640 q 317 694 261 682 q 432 706 374 706 q 599 672 529 706 q 706 569 668 638 q 743 394 743 500 l 743 0 l 576 0 l 561 78 l 556 78 q 442 11 504 39 q 311 -17 379 -17 m 376 142 q 463 160 422 142 q 539 207 503 179 l 539 321 q 381 300 438 315 q 303 261 325 285 q 281 207 281 238 q 292 171 281 186 q 326 149 304 156 q 376 142 347 142 z "},"b":{"ha":833,"x_min":100,"x_max":768,"o":"m 469 -17 q 373 7 422 -17 q 282 75 324 31 l 276 75 l 260 0 l 100 0 l 100 974 l 304 974 l 304 735 l 297 626 l 301 626 q 391 685 342 664 q 490 706 440 706 q 640 663 578 706 q 735 541 701 619 q 768 357 768 463 q 726 155 768 239 q 615 27 683 71 q 469 -17 547 -17 m 424 150 q 492 171 461 150 q 540 237 522 192 q 558 353 558 282 q 544 456 558 415 q 503 518 531 497 q 432 539 476 539 q 367 524 399 539 q 304 475 336 510 l 304 196 q 365 161 333 172 q 424 150 396 150 z "},"c":{"ha":833,"x_min":93,"x_max":760,"o":"m 476 -17 q 281 26 368 -17 q 144 149 194 68 q 93 344 93 231 q 149 540 93 458 q 295 663 204 621 q 492 706 386 706 q 640 680 574 706 q 750 613 707 654 l 656 486 q 578 527 615 514 q 503 540 542 540 q 399 517 444 540 q 328 449 353 493 q 303 344 303 404 q 327 240 303 285 q 395 172 351 196 q 496 149 439 149 q 595 168 550 149 q 678 214 640 188 l 760 85 q 623 8 699 33 q 476 -17 547 -17 z "},"d":{"ha":833,"x_min":65,"x_max":733,"o":"m 356 -17 q 145 80 225 -17 q 65 344 65 176 q 108 538 65 457 q 218 662 150 618 q 360 706 286 706 q 458 686 417 706 q 533 632 500 667 l 539 632 l 529 739 l 529 974 l 733 974 l 733 0 l 567 0 l 551 71 l 547 71 q 459 8 510 33 q 356 -17 408 -17 m 408 150 q 473 165 443 150 q 529 214 503 179 l 529 493 q 473 528 501 518 q 414 539 444 539 q 344 518 376 539 q 294 455 313 497 q 275 347 275 413 q 310 198 275 246 q 408 150 344 150 z "},"e":{"ha":833,"x_min":76,"x_max":760,"o":"m 458 -17 q 265 26 351 -17 q 127 149 178 68 q 76 344 76 231 q 128 538 76 457 q 261 663 179 619 q 435 706 343 706 q 614 662 542 706 q 723 544 686 618 q 760 375 760 469 q 756 322 760 347 q 750 283 753 296 l 228 283 l 228 421 l 613 421 l 581 382 q 545 508 581 465 q 442 550 510 550 q 354 528 392 550 q 296 460 317 506 q 275 344 275 414 q 300 228 275 274 q 372 161 325 183 q 486 139 419 139 q 576 151 533 139 q 664 188 618 164 l 732 64 q 600 5 672 26 q 458 -17 528 -17 z "},"f":{"ha":833,"x_min":114,"x_max":813,"o":"m 296 0 l 296 707 q 328 851 296 786 q 428 953 361 915 q 604 990 496 990 q 717 978 664 990 q 813 953 769 967 l 774 803 q 705 822 740 815 q 629 829 669 829 q 532 800 564 829 q 500 708 500 771 l 500 0 l 296 0 m 114 529 l 114 681 l 303 689 l 738 689 l 738 529 l 114 529 z "},"g":{"ha":833,"x_min":72,"x_max":794,"o":"m 385 -293 q 224 -274 294 -293 q 113 -217 154 -256 q 72 -117 72 -178 q 99 -40 72 -75 q 179 21 126 -6 l 179 26 q 130 74 150 46 q 110 144 110 101 q 133 214 110 179 q 192 274 156 249 l 192 279 q 128 350 154 304 q 101 456 101 396 q 142 594 101 539 q 251 678 183 650 q 396 706 318 706 q 510 689 460 706 l 789 689 l 789 539 l 650 539 q 672 499 663 524 q 681 449 681 475 q 642 319 681 369 q 540 243 604 268 q 396 218 476 218 q 351 222 376 218 q 301 232 326 225 q 278 210 285 221 q 271 181 271 199 q 299 142 271 154 q 388 129 328 129 l 515 129 q 723 89 651 129 q 794 -44 794 49 q 744 -173 794 -117 q 602 -261 694 -229 q 385 -293 510 -293 m 396 342 q 449 354 425 342 q 486 392 472 367 q 500 456 500 418 q 486 517 500 492 q 449 555 472 542 q 396 568 425 568 q 344 555 368 568 q 307 517 321 542 q 293 456 293 492 q 307 392 293 418 q 344 354 321 367 q 396 342 368 342 m 414 -164 q 511 -153 469 -164 q 576 -123 553 -142 q 600 -81 600 -104 q 569 -37 600 -46 q 479 -28 539 -28 l 393 -28 q 331 -25 356 -28 q 288 -18 307 -22 q 250 -51 261 -35 q 239 -86 239 -67 q 286 -144 239 -124 q 414 -164 333 -164 z "},"h":{"ha":833,"x_min":100,"x_max":750,"o":"m 100 0 l 100 974 l 304 974 l 304 735 l 293 603 l 297 603 q 392 674 336 643 q 526 706 449 706 q 697 631 643 706 q 750 425 750 556 l 750 0 l 546 0 l 546 399 q 523 500 546 468 q 444 532 500 532 q 372 513 403 532 q 304 460 340 494 l 304 0 l 100 0 z "},"i":{"ha":833,"x_min":108,"x_max":615,"o":"m 386 0 l 386 529 l 108 529 l 108 689 l 590 689 l 590 0 l 386 0 m 479 797 q 382 831 421 797 q 343 921 343 865 q 382 1013 343 978 q 479 1049 421 1049 q 577 1013 539 1049 q 615 921 615 978 q 577 831 615 865 q 479 797 539 797 z "},"j":{"ha":833,"x_min":58,"x_max":615,"o":"m 271 -272 q 155 -259 207 -272 q 58 -225 103 -246 l 118 -79 q 194 -105 160 -97 q 258 -112 228 -112 q 336 -97 308 -112 q 375 -49 364 -81 q 386 33 386 -17 l 386 529 l 108 529 l 108 689 l 590 689 l 590 42 q 575 -78 590 -22 q 524 -178 560 -135 q 426 -247 488 -222 q 271 -272 364 -272 m 479 797 q 382 831 421 797 q 343 921 343 865 q 382 1013 343 978 q 479 1049 421 1049 q 577 1013 539 1049 q 615 921 615 978 q 577 831 615 865 q 479 797 539 797 z "},"k":{"ha":833,"x_min":106,"x_max":813,"o":"m 106 0 l 106 974 l 310 974 l 310 411 l 315 411 l 568 689 l 792 689 l 310 174 l 310 0 l 106 0 m 592 0 l 392 313 l 508 439 l 813 0 l 592 0 z "},"l":{"ha":833,"x_min":71,"x_max":754,"o":"m 549 -17 q 353 61 419 -17 q 286 269 286 139 l 286 813 l 71 813 l 71 972 l 490 972 l 490 261 q 525 173 490 197 q 601 149 560 149 q 652 154 626 149 q 710 171 678 160 l 754 21 q 658 -6 701 4 q 549 -17 614 -17 z "},"m":{"ha":833,"x_min":49,"x_max":797,"o":"m 49 0 l 49 689 l 203 689 l 217 604 l 222 604 q 276 676 242 646 q 371 706 311 706 q 447 677 415 706 q 490 593 479 649 q 547 673 510 640 q 643 706 583 706 q 757 646 717 706 q 797 483 797 586 l 797 0 l 603 0 l 603 469 q 565 532 603 532 q 531 516 546 532 q 503 465 517 500 l 503 0 l 343 0 l 343 469 q 333 517 343 501 q 304 532 324 532 q 271 516 285 532 q 243 465 257 500 l 243 0 l 49 0 z "},"n":{"ha":833,"x_min":100,"x_max":750,"o":"m 100 0 l 100 689 l 267 689 l 282 597 l 288 597 q 390 674 332 642 q 525 706 447 706 q 696 631 642 706 q 750 425 750 556 l 750 0 l 546 0 l 546 399 q 523 500 546 468 q 444 532 500 532 q 372 513 403 532 q 304 460 340 494 l 304 0 l 100 0 z "},"o":{"ha":833,"x_min":65,"x_max":768,"o":"m 417 -17 q 246 26 326 -17 q 115 149 165 68 q 65 344 65 231 q 115 540 65 458 q 246 663 165 621 q 417 706 326 706 q 588 663 507 706 q 718 540 668 621 q 768 344 768 458 q 718 149 768 231 q 588 26 668 68 q 417 -17 507 -17 m 417 149 q 495 172 464 149 q 542 240 526 196 q 558 344 558 285 q 542 449 558 404 q 495 517 526 493 q 417 540 464 540 q 338 517 369 540 q 291 449 307 493 q 275 344 275 404 q 291 240 275 285 q 338 172 307 196 q 417 149 369 149 z "},"p":{"ha":833,"x_min":100,"x_max":768,"o":"m 100 -256 l 100 689 l 267 689 l 282 619 l 286 619 q 383 681 329 657 q 492 706 436 706 q 640 663 578 706 q 735 540 701 619 q 768 356 768 461 q 726 154 768 238 q 615 27 683 71 q 469 -17 547 -17 q 380 3 424 -17 q 300 58 336 22 l 294 58 l 304 -54 l 304 -256 l 100 -256 m 422 150 q 492 171 461 150 q 540 237 522 192 q 558 353 558 282 q 544 456 558 415 q 503 518 531 497 q 432 539 476 539 q 367 524 399 539 q 304 475 336 510 l 304 196 q 365 161 333 172 q 422 150 396 150 z "},"q":{"ha":833,"x_min":65,"x_max":733,"o":"m 529 -256 l 529 -49 l 539 63 l 533 63 q 452 6 500 28 q 356 -17 404 -17 q 145 80 225 -17 q 65 344 65 176 q 108 538 65 457 q 218 662 150 618 q 360 706 286 706 q 464 685 418 706 q 551 618 510 664 l 557 618 l 574 689 l 733 689 l 733 -256 l 529 -256 m 408 150 q 473 165 443 150 q 529 214 503 179 l 529 493 q 473 528 501 518 q 414 539 444 539 q 344 518 376 539 q 294 455 313 497 q 275 347 275 413 q 310 198 275 246 q 408 150 344 150 z "},"r":{"ha":833,"x_min":161,"x_max":761,"o":"m 161 0 l 161 689 l 328 689 l 344 539 l 349 539 q 473 665 400 624 q 628 706 546 706 q 702 699 674 706 q 761 678 731 692 l 719 507 q 662 522 688 517 q 597 526 636 526 q 472 489 533 526 q 365 358 410 451 l 365 0 l 161 0 z "},"s":{"ha":833,"x_min":74,"x_max":750,"o":"m 411 -17 q 229 15 319 -17 q 74 89 139 46 l 161 217 q 294 156 224 176 q 439 135 364 135 q 522 152 496 135 q 549 193 549 169 q 541 219 549 208 q 515 238 533 229 q 463 256 496 247 q 379 275 431 264 q 178 358 239 306 q 117 490 117 411 q 201 647 117 588 q 433 706 286 706 q 602 676 526 706 q 732 611 678 646 l 640 489 q 531 538 589 521 q 415 554 472 554 q 363 548 383 554 q 331 528 342 542 q 319 500 319 515 q 356 459 319 472 q 479 426 392 446 q 644 372 585 403 q 727 302 704 342 q 750 206 750 263 q 712 93 750 143 q 598 13 674 43 q 411 -17 522 -17 z "},"t":{"ha":833,"x_min":69,"x_max":764,"o":"m 539 -17 q 365 22 429 -17 q 271 128 300 60 q 242 286 242 196 l 242 529 l 69 529 l 69 681 l 251 689 l 278 900 l 446 900 l 446 689 l 738 689 l 738 529 l 446 529 l 446 288 q 461 204 446 236 q 508 158 476 172 q 590 143 540 143 q 664 150 631 143 q 728 168 697 157 l 764 21 q 663 -5 718 7 q 539 -17 608 -17 z "},"u":{"ha":833,"x_min":86,"x_max":729,"o":"m 310 -17 q 139 58 192 -17 q 86 264 86 133 l 86 689 l 290 689 l 290 290 q 312 189 290 221 q 390 157 333 157 q 460 174 429 157 q 525 236 490 190 l 525 689 l 729 689 l 729 0 l 563 0 l 547 99 l 542 99 q 440 15 496 47 q 310 -17 385 -17 z "},"v":{"ha":833,"x_min":43,"x_max":790,"o":"m 303 0 l 43 689 l 249 689 l 357 364 q 389 260 374 313 q 419 151 404 207 l 425 151 q 455 260 440 207 q 486 364 469 313 l 594 689 l 790 689 l 538 0 l 303 0 z "},"w":{"ha":833,"x_min":6,"x_max":828,"o":"m 118 0 l 6 689 l 203 689 l 246 369 q 258 269 253 319 q 268 165 263 218 l 272 165 q 287 269 279 218 q 304 369 294 321 l 347 597 l 496 597 l 540 369 q 559 269 550 319 q 575 165 568 218 l 581 165 q 591 269 588 218 q 600 369 594 319 l 639 689 l 828 689 l 722 0 l 482 0 l 444 224 q 433 319 439 269 q 419 428 426 369 l 414 428 q 404 337 410 385 q 390 224 399 289 l 354 0 l 118 0 z "},"x":{"ha":833,"x_min":51,"x_max":781,"o":"m 51 0 l 290 358 l 67 689 l 286 689 l 357 578 q 393 519 374 549 q 429 460 413 489 l 435 460 q 463 519 447 489 q 492 578 479 550 l 553 689 l 767 689 l 542 335 l 781 0 l 561 0 l 482 114 q 442 174 463 143 q 403 233 422 204 l 397 233 q 365 174 382 204 q 333 114 349 144 l 265 0 l 51 0 z "},"y":{"ha":833,"x_min":43,"x_max":793,"o":"m 199 -269 q 142 -265 168 -269 q 93 -256 115 -261 l 129 -100 q 157 -106 143 -104 q 183 -108 171 -108 q 277 -83 243 -108 q 328 -18 311 -57 l 342 18 l 43 689 l 246 689 l 361 393 q 397 292 381 344 q 431 186 414 240 l 436 186 q 467 290 450 238 q 499 393 483 343 l 600 689 l 793 689 l 521 -7 q 447 -151 489 -93 q 345 -240 404 -210 q 199 -269 286 -269 z "},"z":{"ha":833,"x_min":97,"x_max":750,"o":"m 97 0 l 97 110 l 457 529 l 140 529 l 140 689 l 740 689 l 740 581 l 379 160 l 750 160 l 750 0 l 97 0 z "},"À":{"ha":833,"x_min":13,"x_max":821,"o":"m 13 0 l 294 906 l 539 906 l 821 0 l 604 0 l 488 458 q 451 603 471 526 q 415 750 432 679 l 410 750 q 375 603 393 679 q 339 458 357 526 l 221 0 l 13 0 m 199 215 l 199 375 l 632 375 l 632 215 l 199 215 m 468 944 l 213 1110 l 321 1242 l 558 1047 l 468 944 z "},"Á":{"ha":833,"x_min":13,"x_max":821,"o":"m 13 0 l 294 906 l 539 906 l 821 0 l 604 0 l 488 458 q 451 603 471 526 q 415 750 432 679 l 410 750 q 375 603 393 679 q 339 458 357 526 l 221 0 l 13 0 m 199 215 l 199 375 l 632 375 l 632 215 l 199 215 m 365 944 l 275 1047 l 513 1242 l 621 1110 l 365 944 z "},"Â":{"ha":833,"x_min":13,"x_max":821,"o":"m 13 0 l 294 906 l 539 906 l 821 0 l 604 0 l 488 458 q 451 603 471 526 q 415 750 432 679 l 410 750 q 375 603 393 679 q 339 458 357 526 l 221 0 l 13 0 m 199 215 l 199 375 l 632 375 l 632 215 l 199 215 m 269 951 l 181 1006 l 306 1160 l 528 1160 l 653 1006 l 564 951 l 419 1068 l 414 1068 l 269 951 z "},"Ã":{"ha":833,"x_min":13,"x_max":821,"o":"m 13 0 l 294 906 l 539 906 l 821 0 l 604 0 l 488 458 q 451 603 471 526 q 415 750 432 679 l 410 750 q 375 603 393 679 q 339 458 357 526 l 221 0 l 13 0 m 199 215 l 199 375 l 632 375 l 632 215 l 199 215 m 515 961 q 451 974 479 961 q 400 1001 422 986 q 360 1029 378 1017 q 325 1042 342 1042 q 292 1027 306 1042 q 274 974 278 1013 l 142 983 q 197 1136 149 1089 q 318 1183 244 1183 q 383 1171 354 1183 q 433 1143 411 1158 q 474 1115 456 1128 q 508 1103 492 1103 q 542 1118 528 1103 q 560 1171 556 1133 l 692 1161 q 638 1009 686 1057 q 515 961 589 961 z "},"Ä":{"ha":833,"x_min":13,"x_max":821,"o":"m 13 0 l 294 906 l 539 906 l 821 0 l 604 0 l 488 458 q 451 603 471 526 q 415 750 432 679 l 410 750 q 375 603 393 679 q 339 458 357 526 l 221 0 l 13 0 m 199 215 l 199 375 l 632 375 l 632 215 l 199 215 m 263 972 q 190 1002 218 972 q 161 1075 161 1032 q 190 1147 161 1118 q 263 1175 218 1175 q 336 1147 307 1175 q 365 1075 365 1118 q 336 1002 365 1032 q 263 972 307 972 m 571 972 q 497 1002 526 972 q 468 1075 468 1032 q 497 1147 468 1118 q 571 1175 526 1175 q 644 1147 615 1175 q 672 1075 672 1118 q 644 1002 672 1032 q 571 972 615 972 z "},"Ā":{"ha":833,"x_min":13,"x_max":821,"o":"m 13 0 l 294 906 l 539 906 l 821 0 l 604 0 l 488 458 q 451 603 471 526 q 415 750 432 679 l 410 750 q 375 603 393 679 q 339 458 357 526 l 221 0 l 13 0 m 199 215 l 199 375 l 632 375 l 632 215 l 199 215 m 207 1001 l 207 1132 l 626 1132 l 626 1001 l 207 1001 z "},"Ă":{"ha":833,"x_min":13,"x_max":821,"o":"m 13 0 l 294 906 l 539 906 l 821 0 l 604 0 l 488 458 q 451 603 471 526 q 415 750 432 679 l 410 750 q 375 603 393 679 q 339 458 357 526 l 221 0 l 13 0 m 199 215 l 199 375 l 632 375 l 632 215 l 199 215 m 417 968 q 299 990 347 968 q 224 1055 251 1013 q 190 1158 197 1097 l 301 1178 q 340 1110 311 1135 q 417 1086 369 1086 q 493 1110 464 1086 q 532 1178 522 1135 l 643 1158 q 610 1055 638 1097 q 534 990 582 1013 q 417 968 486 968 z "},"Å":{"ha":833,"x_min":13,"x_max":821,"o":"m 13 0 l 294 906 l 539 906 l 821 0 l 604 0 l 488 458 q 451 603 471 526 q 415 750 432 679 l 410 750 q 375 603 393 679 q 339 458 357 526 l 221 0 l 13 0 m 199 215 l 199 375 l 632 375 l 632 215 l 199 215 m 417 968 q 302 1006 346 968 q 258 1106 258 1043 q 302 1205 258 1168 q 417 1242 346 1242 q 531 1205 486 1242 q 575 1106 575 1168 q 531 1006 575 1043 q 417 968 486 968 m 417 1044 q 458 1060 440 1044 q 475 1106 475 1076 q 458 1149 475 1132 q 417 1165 440 1165 q 375 1149 392 1165 q 358 1106 358 1132 q 375 1060 358 1076 q 417 1044 392 1044 z "},"Ǻ":{"ha":833,"x_min":13,"x_max":821,"o":"m 367 1172 l 303 1203 l 521 1399 l 603 1285 l 367 1172 m 13 0 l 294 906 l 539 906 l 821 0 l 604 0 l 488 458 q 451 603 471 526 q 415 750 432 679 l 410 750 q 375 603 393 679 q 339 458 357 526 l 221 0 l 13 0 m 199 215 l 199 375 l 632 375 l 632 215 l 199 215 m 417 968 q 302 1006 346 968 q 258 1106 258 1043 q 302 1205 258 1168 q 417 1242 346 1242 q 531 1205 486 1242 q 575 1106 575 1168 q 531 1006 575 1043 q 417 968 486 968 m 417 1044 q 458 1060 440 1044 q 475 1106 475 1076 q 458 1149 475 1132 q 417 1165 440 1165 q 375 1149 392 1165 q 358 1106 358 1132 q 375 1060 358 1076 q 417 1044 392 1044 z "},"Ǎ":{"ha":833,"x_min":13,"x_max":821,"o":"m 13 0 l 294 906 l 539 906 l 821 0 l 604 0 l 488 458 q 451 603 471 526 q 415 750 432 679 l 410 750 q 375 603 393 679 q 339 458 357 526 l 221 0 l 13 0 m 199 215 l 199 375 l 632 375 l 632 215 l 199 215 m 306 975 l 181 1128 l 269 1183 l 414 1067 l 419 1067 l 564 1183 l 653 1128 l 528 975 l 306 975 z "},"Ą":{"ha":833,"x_min":13,"x_max":854,"o":"m 704 -315 q 589 -281 636 -315 q 542 -182 542 -246 q 562 -101 542 -137 q 609 -39 582 -65 q 660 0 636 -12 l 604 0 l 488 458 q 451 603 469 526 q 415 750 432 679 l 410 750 q 375 603 393 679 q 339 458 357 526 l 221 0 l 13 0 l 294 906 l 539 906 l 821 0 q 727 -46 763 -7 q 692 -129 692 -85 q 708 -169 692 -154 q 749 -183 725 -183 q 781 -176 765 -183 q 806 -161 796 -168 l 854 -264 q 785 -300 826 -285 q 704 -315 744 -315 m 197 215 l 197 375 l 633 375 l 633 215 l 197 215 z "},"Ạ":{"ha":833,"x_min":13,"x_max":821,"o":"m 13 0 l 294 906 l 539 906 l 821 0 l 604 0 l 488 458 q 451 603 471 526 q 415 750 432 679 l 410 750 q 375 603 393 679 q 339 458 357 526 l 221 0 l 13 0 m 199 215 l 199 375 l 632 375 l 632 215 l 199 215 z "},"Ả":{"ha":833,"x_min":13,"x_max":821,"o":"m 13 0 l 294 906 l 539 906 l 821 0 l 604 0 l 488 458 q 451 603 471 526 q 415 750 432 679 l 410 750 q 375 603 393 679 q 339 458 357 526 l 221 0 l 13 0 m 199 215 l 199 375 l 632 375 l 632 215 l 199 215 m 357 960 l 340 1040 q 385 1053 367 1044 q 403 1082 403 1063 q 378 1113 403 1101 q 292 1129 353 1125 l 315 1231 q 453 1213 401 1229 q 527 1168 504 1196 q 550 1104 550 1140 q 523 1026 550 1057 q 452 980 496 996 q 357 960 408 964 z "},"Ấ":{"ha":833,"x_min":13,"x_max":821,"o":"m 13 0 l 294 906 l 539 906 l 821 0 l 604 0 l 488 458 q 451 603 471 526 q 415 750 432 679 l 410 750 q 375 603 393 679 q 339 458 357 526 l 221 0 l 13 0 m 199 215 l 199 375 l 632 375 l 632 215 l 199 215 m 286 951 l 204 1006 l 329 1144 l 504 1144 l 629 1006 l 547 951 l 419 1051 l 414 1051 l 286 951 m 628 1054 l 567 1124 l 706 1243 l 774 1160 l 628 1054 z "},"Ầ":{"ha":833,"x_min":13,"x_max":821,"o":"m 13 0 l 294 906 l 539 906 l 821 0 l 604 0 l 488 458 q 451 603 471 526 q 415 750 432 679 l 410 750 q 375 603 393 679 q 339 458 357 526 l 221 0 l 13 0 m 199 215 l 199 375 l 632 375 l 632 215 l 199 215 m 286 951 l 204 1006 l 329 1144 l 504 1144 l 629 1006 l 547 951 l 419 1051 l 414 1051 l 286 951 m 206 1054 l 65 1161 l 132 1243 l 267 1122 l 206 1054 z "},"Ẩ":{"ha":833,"x_min":13,"x_max":821,"o":"m 13 0 l 294 906 l 539 906 l 821 0 l 604 0 l 488 458 q 451 603 471 526 q 415 750 432 679 l 410 750 q 375 603 393 679 q 339 458 357 526 l 221 0 l 13 0 m 199 215 l 199 375 l 632 375 l 632 215 l 199 215 m 286 951 l 204 1006 l 329 1144 l 504 1144 l 629 1006 l 547 951 l 419 1051 l 414 1051 l 286 951 m 607 1042 l 592 1107 q 624 1119 611 1111 q 636 1144 636 1126 q 617 1175 636 1164 q 546 1190 597 1186 l 564 1274 q 685 1257 640 1272 q 749 1217 729 1242 q 768 1163 768 1193 q 722 1074 768 1101 q 607 1042 675 1047 z "},"Ẫ":{"ha":833,"x_min":13,"x_max":821,"o":"m 13 0 l 294 906 l 539 906 l 821 0 l 604 0 l 488 458 q 451 603 471 526 q 415 750 432 679 l 410 750 q 375 603 393 679 q 339 458 357 526 l 221 0 l 13 0 m 199 215 l 199 375 l 632 375 l 632 215 l 199 215 m 286 951 l 204 1006 l 329 1133 l 504 1133 l 629 1006 l 547 951 l 419 1039 l 414 1039 l 286 951 m 500 1164 q 449 1174 472 1164 q 408 1195 426 1183 q 376 1216 390 1207 q 346 1225 361 1225 q 317 1213 328 1225 q 301 1172 306 1200 l 204 1183 q 223 1270 207 1236 q 267 1321 239 1304 q 333 1338 294 1338 q 385 1328 363 1338 q 425 1306 407 1318 q 458 1285 443 1294 q 488 1276 474 1276 q 517 1290 506 1276 q 532 1331 528 1303 l 629 1318 q 610 1233 626 1267 q 567 1181 594 1199 q 500 1164 539 1164 z "},"Ậ":{"ha":833,"x_min":13,"x_max":821,"o":"m 13 0 l 294 906 l 539 906 l 821 0 l 604 0 l 488 458 q 451 603 471 526 q 415 750 432 679 l 410 750 q 375 603 393 679 q 339 458 357 526 l 221 0 l 13 0 m 199 215 l 199 375 l 632 375 l 632 215 l 199 215 m 269 951 l 181 1006 l 306 1160 l 528 1160 l 653 1006 l 564 951 l 419 1068 l 414 1068 l 269 951 z "},"Ắ":{"ha":833,"x_min":13,"x_max":821,"o":"m 13 0 l 294 906 l 539 906 l 821 0 l 604 0 l 488 458 q 451 603 471 526 q 415 750 432 679 l 410 750 q 375 603 393 679 q 339 458 357 526 l 221 0 l 13 0 m 199 215 l 199 375 l 632 375 l 632 215 l 199 215 m 417 968 q 299 990 347 968 q 224 1055 251 1013 q 190 1158 197 1097 l 290 1178 q 333 1102 300 1129 q 417 1075 365 1075 q 501 1102 468 1075 q 543 1178 533 1129 l 643 1158 q 610 1055 638 1097 q 534 990 582 1013 q 417 968 486 968 m 440 1118 l 340 1183 l 472 1374 l 600 1294 l 440 1118 z "},"Ằ":{"ha":833,"x_min":13,"x_max":821,"o":"m 13 0 l 294 906 l 539 906 l 821 0 l 604 0 l 488 458 q 451 603 471 526 q 415 750 432 679 l 410 750 q 375 603 393 679 q 339 458 357 526 l 221 0 l 13 0 m 199 215 l 199 375 l 632 375 l 632 215 l 199 215 m 417 968 q 299 990 347 968 q 224 1055 251 1013 q 190 1158 197 1097 l 290 1178 q 333 1102 300 1129 q 417 1075 365 1075 q 501 1102 468 1075 q 543 1178 533 1129 l 643 1158 q 610 1055 638 1097 q 534 990 582 1013 q 417 968 486 968 m 393 1118 l 233 1294 l 361 1374 l 493 1183 l 393 1118 z "},"Ẳ":{"ha":833,"x_min":13,"x_max":821,"o":"m 13 0 l 294 906 l 539 906 l 821 0 l 604 0 l 488 458 q 451 603 471 526 q 415 750 432 679 l 410 750 q 375 603 393 679 q 339 458 357 526 l 221 0 l 13 0 m 199 215 l 199 375 l 632 375 l 632 215 l 199 215 m 417 968 q 299 990 347 968 q 224 1055 251 1013 q 190 1158 197 1097 l 290 1178 q 333 1102 300 1129 q 417 1075 365 1075 q 501 1102 468 1075 q 543 1178 533 1129 l 643 1158 q 610 1055 638 1097 q 534 990 582 1013 q 417 968 486 968 m 372 1119 l 356 1185 q 388 1197 375 1189 q 401 1222 401 1204 q 382 1253 401 1243 q 310 1268 363 1264 l 329 1353 q 450 1335 406 1350 q 513 1295 494 1319 q 532 1240 532 1271 q 485 1152 532 1179 q 372 1119 439 1125 z "},"Ẵ":{"ha":833,"x_min":13,"x_max":821,"o":"m 13 0 l 294 906 l 539 906 l 821 0 l 604 0 l 488 458 q 451 603 471 526 q 415 750 432 679 l 410 750 q 375 603 393 679 q 339 458 357 526 l 221 0 l 13 0 m 199 215 l 199 375 l 632 375 l 632 215 l 199 215 m 417 975 q 301 994 347 975 q 230 1049 256 1014 q 199 1131 204 1083 l 297 1147 q 333 1096 306 1118 q 417 1074 360 1074 q 501 1096 474 1074 q 536 1147 528 1118 l 635 1131 q 603 1049 629 1083 q 532 994 578 1014 q 417 975 486 975 m 500 1176 q 449 1185 472 1176 q 408 1206 426 1194 q 376 1228 390 1218 q 346 1238 361 1238 q 317 1224 328 1238 q 301 1183 306 1211 l 204 1194 q 223 1282 207 1249 q 267 1332 239 1315 q 333 1349 294 1349 q 385 1340 363 1349 q 425 1319 407 1331 q 458 1297 443 1307 q 488 1288 474 1288 q 517 1301 506 1288 q 532 1342 528 1314 l 629 1329 q 610 1244 626 1278 q 567 1193 594 1210 q 500 1176 539 1176 z "},"Ặ":{"ha":833,"x_min":13,"x_max":821,"o":"m 13 0 l 294 906 l 539 906 l 821 0 l 604 0 l 488 458 q 451 603 471 526 q 415 750 432 679 l 410 750 q 375 603 393 679 q 339 458 357 526 l 221 0 l 13 0 m 199 215 l 199 375 l 632 375 l 632 215 l 199 215 m 417 968 q 299 990 347 968 q 224 1055 251 1013 q 190 1158 197 1097 l 301 1178 q 340 1110 311 1135 q 417 1086 369 1086 q 493 1110 464 1086 q 532 1178 522 1135 l 643 1158 q 610 1055 638 1097 q 534 990 582 1013 q 417 968 486 968 z "},"Æ":{"ha":833,"x_min":-4,"x_max":826,"o":"m -4 0 l 299 906 l 814 906 l 814 733 l 613 733 l 613 554 l 776 554 l 776 382 l 613 382 l 613 172 l 826 172 l 826 0 l 432 0 l 432 751 l 428 751 q 390 619 410 685 q 354 494 371 554 l 206 0 l -4 0 m 183 207 l 183 365 l 511 365 l 511 207 l 183 207 z "},"Ǽ":{"ha":833,"x_min":-4,"x_max":826,"o":"m -4 0 l 299 906 l 814 906 l 814 733 l 613 733 l 613 554 l 776 554 l 776 382 l 613 382 l 613 172 l 826 172 l 826 0 l 432 0 l 432 751 l 428 751 q 390 619 410 685 q 354 494 371 554 l 206 0 l -4 0 m 183 207 l 183 365 l 511 365 l 511 207 l 183 207 m 492 944 l 401 1047 l 639 1242 l 747 1110 l 492 944 z "},"Ǣ":{"ha":833,"x_min":-4,"x_max":826,"o":"m -4 0 l 299 906 l 814 906 l 814 733 l 613 733 l 613 554 l 776 554 l 776 382 l 613 382 l 613 172 l 826 172 l 826 0 l 432 0 l 432 751 l 428 751 q 390 619 410 685 q 354 494 371 554 l 206 0 l -4 0 m 183 207 l 183 365 l 511 365 l 511 207 l 183 207 m 333 1001 l 333 1132 l 753 1132 l 753 1001 l 333 1001 z "},"Ƀ":{"ha":833,"x_min":13,"x_max":783,"o":"m 117 0 l 117 906 l 410 906 q 578 885 503 906 q 696 817 653 865 q 739 688 739 769 q 702 577 739 629 q 586 506 665 525 l 586 500 q 733 427 683 482 q 783 276 783 372 q 737 120 783 182 q 612 29 690 58 q 435 0 533 0 l 117 0 m 13 238 l 13 333 l 119 342 l 468 342 l 468 238 l 13 238 m 321 150 l 418 150 q 541 185 501 150 q 581 292 581 221 q 542 394 581 363 q 418 425 503 425 l 321 425 l 321 150 m 321 551 l 400 551 q 508 580 474 551 q 543 663 543 608 q 508 734 543 713 q 401 756 472 756 l 321 756 l 321 551 z "},"Ḇ":{"ha":833,"x_min":103,"x_max":781,"o":"m 103 0 l 103 906 l 407 906 q 576 885 501 906 q 695 817 651 865 q 739 681 739 768 q 701 563 739 619 q 583 485 664 506 l 583 479 q 731 410 681 463 q 781 267 781 358 q 735 116 781 175 q 610 28 689 57 q 433 0 532 0 l 103 0 m 307 542 l 397 542 q 506 572 472 542 q 539 653 539 601 q 505 724 539 703 q 399 746 471 746 l 307 746 l 307 542 m 307 160 l 417 160 q 540 190 500 160 q 581 282 581 221 q 540 368 581 342 q 417 394 500 394 l 307 394 l 307 160 z "},"Ç":{"ha":833,"x_min":75,"x_max":792,"o":"m 494 -17 q 334 13 410 -17 q 200 101 258 42 q 108 247 142 160 q 75 447 75 333 q 133 703 75 597 q 288 866 190 810 q 507 922 386 922 q 663 887 593 922 q 778 807 732 851 l 665 681 q 595 728 633 711 q 507 746 557 746 q 393 710 443 746 q 314 610 343 675 q 285 454 285 544 q 314 295 285 361 q 395 194 343 229 q 515 160 447 160 q 606 182 565 160 q 679 240 646 204 l 792 117 q 661 17 736 51 q 494 -17 586 -17 m 335 -332 l 319 -250 q 432 -232 401 -246 q 463 -189 463 -218 q 441 -153 463 -167 q 356 -131 419 -139 l 425 15 l 544 15 l 503 -85 q 581 -121 554 -97 q 608 -189 608 -144 q 537 -294 608 -260 q 335 -332 465 -328 z "},"Ć":{"ha":833,"x_min":75,"x_max":792,"o":"m 494 -17 q 334 13 410 -17 q 200 101 258 42 q 108 247 142 160 q 75 447 75 333 q 133 703 75 597 q 288 866 190 810 q 507 922 386 922 q 663 887 593 922 q 778 807 732 851 l 665 681 q 595 728 633 711 q 507 746 557 746 q 393 710 443 746 q 314 610 343 675 q 285 454 285 544 q 314 295 285 361 q 395 194 343 229 q 515 160 447 160 q 606 182 565 160 q 679 240 646 204 l 792 117 q 661 17 736 51 q 494 -17 586 -17 m 439 944 l 349 1047 l 586 1242 l 694 1110 l 439 944 z "},"Ĉ":{"ha":833,"x_min":75,"x_max":792,"o":"m 494 -17 q 334 13 410 -17 q 200 101 258 42 q 108 247 142 160 q 75 447 75 333 q 133 703 75 597 q 288 866 190 810 q 507 922 386 922 q 663 887 593 922 q 778 807 732 851 l 665 681 q 595 728 633 711 q 507 746 557 746 q 393 710 443 746 q 314 610 343 675 q 285 454 285 544 q 314 295 285 361 q 395 194 343 229 q 515 160 447 160 q 606 182 565 160 q 679 240 646 204 l 792 117 q 661 17 736 51 q 494 -17 586 -17 m 343 951 l 254 1006 l 379 1160 l 601 1160 l 726 1006 l 638 951 l 493 1068 l 488 1068 l 343 951 z "},"Č":{"ha":833,"x_min":75,"x_max":792,"o":"m 494 -17 q 334 13 410 -17 q 200 101 258 42 q 108 247 142 160 q 75 447 75 333 q 133 703 75 597 q 288 866 190 810 q 507 922 386 922 q 663 887 593 922 q 778 807 732 851 l 665 681 q 595 728 633 711 q 507 746 557 746 q 393 710 443 746 q 314 610 343 675 q 285 454 285 544 q 314 295 285 361 q 395 194 343 229 q 515 160 447 160 q 606 182 565 160 q 679 240 646 204 l 792 117 q 661 17 736 51 q 494 -17 586 -17 m 379 975 l 254 1128 l 343 1183 l 488 1067 l 493 1067 l 638 1183 l 726 1128 l 601 975 l 379 975 z "},"Ċ":{"ha":833,"x_min":75,"x_max":792,"o":"m 494 -17 q 334 13 410 -17 q 200 101 258 42 q 108 247 142 160 q 75 447 75 333 q 133 703 75 597 q 288 866 190 810 q 507 922 386 922 q 663 887 593 922 q 778 807 732 851 l 665 681 q 595 728 633 711 q 507 746 557 746 q 393 710 443 746 q 314 610 343 675 q 285 454 285 544 q 314 295 285 361 q 395 194 343 229 q 515 160 447 160 q 606 182 565 160 q 679 240 646 204 l 792 117 q 661 17 736 51 q 494 -17 586 -17 m 490 974 q 401 1006 436 974 q 365 1090 365 1038 q 401 1174 365 1142 q 490 1206 436 1206 q 581 1174 546 1206 q 615 1090 615 1142 q 581 1006 615 1038 q 490 974 546 974 z "},"Ď":{"ha":833,"x_min":97,"x_max":783,"o":"m 97 0 l 97 906 l 347 906 q 577 858 479 906 q 729 712 675 811 q 783 457 783 613 q 730 200 783 301 q 581 49 676 99 q 360 0 485 0 l 97 0 m 303 165 l 336 165 q 461 193 408 165 q 544 285 514 221 q 574 457 574 349 q 544 627 574 565 q 461 715 514 689 q 336 740 408 740 l 303 740 l 303 165 m 306 975 l 181 1128 l 269 1183 l 414 1067 l 419 1067 l 564 1183 l 653 1128 l 528 975 l 306 975 z "},"Ḍ":{"ha":833,"x_min":97,"x_max":783,"o":"m 97 0 l 97 906 l 347 906 q 577 858 479 906 q 729 712 675 811 q 783 457 783 613 q 730 200 783 301 q 581 49 676 99 q 360 0 485 0 l 97 0 m 303 165 l 336 165 q 461 193 408 165 q 544 285 514 221 q 574 457 574 349 q 544 627 574 565 q 461 715 514 689 q 336 740 408 740 l 303 740 l 303 165 z "},"Ḏ":{"ha":833,"x_min":97,"x_max":783,"o":"m 97 0 l 97 906 l 347 906 q 577 858 479 906 q 729 712 675 811 q 783 457 783 613 q 730 200 783 301 q 581 49 676 99 q 360 0 485 0 l 97 0 m 303 165 l 336 165 q 461 193 408 165 q 544 285 514 221 q 574 457 574 349 q 544 627 574 565 q 461 715 514 689 q 336 740 408 740 l 303 740 l 303 165 z "},"Ḑ":{"ha":833,"x_min":97,"x_max":783,"o":"m 97 0 l 97 906 l 347 906 q 577 858 479 906 q 729 712 675 811 q 783 457 783 613 q 730 200 783 301 q 581 49 676 99 q 360 0 485 0 l 97 0 m 303 165 l 336 165 q 461 193 408 165 q 544 285 514 221 q 574 457 574 349 q 544 627 574 565 q 461 715 514 689 q 336 740 408 740 l 303 740 l 303 165 m 250 -332 l 235 -250 q 347 -232 317 -246 q 378 -189 378 -218 q 356 -153 378 -167 q 271 -131 335 -139 l 340 15 l 460 15 l 418 -85 q 497 -121 469 -97 q 524 -189 524 -144 q 452 -294 524 -260 q 250 -332 381 -328 z "},"Đ":{"ha":833,"x_min":0,"x_max":783,"o":"m 97 0 l 97 414 l 0 414 l 0 510 l 97 518 l 97 906 l 349 906 q 577 858 479 906 q 729 712 675 811 q 783 457 783 613 q 729 200 783 301 q 580 49 675 99 q 360 0 485 0 l 97 0 m 303 165 l 336 165 q 460 193 407 165 q 543 285 513 221 q 574 457 574 349 q 543 627 574 565 q 460 715 513 689 q 336 740 407 740 l 303 740 l 303 518 l 453 518 l 453 414 l 303 414 l 303 165 z "},"Ɗ":{"ha":833,"x_min":6,"x_max":807,"o":"m 261 0 l 261 814 l 446 814 l 446 165 l 464 165 q 544 193 510 165 q 597 287 578 221 q 617 465 617 353 q 594 638 617 574 q 528 729 572 701 q 421 757 485 757 l 338 757 q 236 738 275 757 q 179 685 197 718 q 161 611 161 653 q 179 534 161 564 q 235 482 197 504 l 158 351 q 46 447 86 388 q 6 599 6 506 q 46 766 6 693 q 170 881 86 839 q 389 922 254 922 q 615 873 522 922 q 758 723 708 824 q 807 465 807 622 q 760 203 807 306 q 629 50 713 100 q 436 0 546 0 l 261 0 z "},"È":{"ha":833,"x_min":128,"x_max":742,"o":"m 128 0 l 128 906 l 728 906 l 728 733 l 333 733 l 333 551 l 668 551 l 668 381 l 333 381 l 333 172 l 742 172 l 742 0 l 128 0 m 500 944 l 244 1110 l 353 1242 l 590 1047 l 500 944 z "},"É":{"ha":833,"x_min":128,"x_max":742,"o":"m 128 0 l 128 906 l 728 906 l 728 733 l 333 733 l 333 551 l 668 551 l 668 381 l 333 381 l 333 172 l 742 172 l 742 0 l 128 0 m 397 944 l 307 1047 l 544 1242 l 653 1110 l 397 944 z "},"Ê":{"ha":833,"x_min":128,"x_max":742,"o":"m 128 0 l 128 906 l 728 906 l 728 733 l 333 733 l 333 551 l 668 551 l 668 381 l 333 381 l 333 172 l 742 172 l 742 0 l 128 0 m 301 951 l 213 1006 l 338 1160 l 560 1160 l 685 1006 l 596 951 l 451 1068 l 446 1068 l 301 951 z "},"Ě":{"ha":833,"x_min":128,"x_max":742,"o":"m 128 0 l 128 906 l 728 906 l 728 733 l 333 733 l 333 551 l 668 551 l 668 381 l 333 381 l 333 172 l 742 172 l 742 0 l 128 0 m 338 975 l 213 1128 l 301 1183 l 446 1067 l 451 1067 l 596 1183 l 685 1128 l 560 975 l 338 975 z "},"Ë":{"ha":833,"x_min":128,"x_max":742,"o":"m 128 0 l 128 906 l 728 906 l 728 733 l 333 733 l 333 551 l 668 551 l 668 381 l 333 381 l 333 172 l 742 172 l 742 0 l 128 0 m 294 972 q 222 1002 250 972 q 193 1075 193 1032 q 222 1147 193 1118 q 294 1175 250 1175 q 368 1147 339 1175 q 397 1075 397 1118 q 368 1002 397 1032 q 294 972 339 972 m 603 972 q 529 1002 558 972 q 500 1075 500 1032 q 529 1147 500 1118 q 603 1175 558 1175 q 676 1147 647 1175 q 704 1075 704 1118 q 676 1002 704 1032 q 603 972 647 972 z "},"Ē":{"ha":833,"x_min":128,"x_max":742,"o":"m 128 0 l 128 906 l 728 906 l 728 733 l 333 733 l 333 551 l 668 551 l 668 381 l 333 381 l 333 172 l 742 172 l 742 0 l 128 0 m 239 1001 l 239 1132 l 658 1132 l 658 1001 l 239 1001 z "},"Ĕ":{"ha":833,"x_min":128,"x_max":742,"o":"m 128 0 l 128 906 l 728 906 l 728 733 l 333 733 l 333 551 l 668 551 l 668 381 l 333 381 l 333 172 l 742 172 l 742 0 l 128 0 m 449 968 q 331 990 379 968 q 256 1055 283 1013 q 222 1158 229 1097 l 333 1178 q 372 1110 343 1135 q 449 1086 401 1086 q 525 1110 496 1086 q 564 1178 554 1135 l 675 1158 q 642 1055 669 1097 q 566 990 614 1013 q 449 968 518 968 z "},"Ė":{"ha":833,"x_min":128,"x_max":742,"o":"m 128 0 l 128 906 l 728 906 l 728 733 l 333 733 l 333 551 l 668 551 l 668 381 l 333 381 l 333 172 l 742 172 l 742 0 l 128 0 m 449 974 q 359 1006 394 974 q 324 1090 324 1038 q 359 1174 324 1142 q 449 1206 394 1206 q 539 1174 504 1206 q 574 1090 574 1142 q 539 1006 574 1038 q 449 974 504 974 z "},"Ę":{"ha":833,"x_min":131,"x_max":774,"o":"m 624 -315 q 508 -281 556 -315 q 461 -182 461 -246 q 479 -103 461 -139 q 524 -42 497 -68 q 575 0 550 -15 l 131 0 l 131 906 l 728 906 l 728 733 l 335 733 l 335 551 l 668 551 l 668 381 l 335 381 l 335 172 l 742 172 l 742 0 l 735 0 q 674 -21 701 -1 q 628 -69 646 -40 q 611 -129 611 -97 q 630 -170 611 -157 q 672 -183 649 -183 q 701 -176 688 -183 q 725 -161 715 -168 l 774 -264 q 705 -300 746 -285 q 624 -315 664 -315 z "},"Ẹ":{"ha":833,"x_min":128,"x_max":742,"o":"m 128 0 l 128 906 l 728 906 l 728 733 l 333 733 l 333 551 l 668 551 l 668 381 l 333 381 l 333 172 l 742 172 l 742 0 l 128 0 z "},"Ẻ":{"ha":833,"x_min":128,"x_max":742,"o":"m 128 0 l 128 906 l 728 906 l 728 733 l 333 733 l 333 551 l 668 551 l 668 381 l 333 381 l 333 172 l 742 172 l 742 0 l 128 0 m 389 960 l 372 1040 q 417 1053 399 1044 q 435 1082 435 1063 q 410 1113 435 1101 q 324 1129 385 1125 l 347 1231 q 485 1213 433 1229 q 559 1168 536 1196 q 582 1104 582 1140 q 555 1026 582 1057 q 484 980 528 996 q 389 960 440 964 z "},"Ẽ":{"ha":833,"x_min":128,"x_max":742,"o":"m 128 0 l 128 906 l 728 906 l 728 733 l 333 733 l 333 551 l 668 551 l 668 381 l 333 381 l 333 172 l 742 172 l 742 0 l 128 0 m 547 961 q 483 974 511 961 q 432 1001 454 986 q 392 1029 410 1017 q 357 1042 374 1042 q 324 1027 338 1042 q 306 974 310 1013 l 174 983 q 228 1136 181 1089 q 350 1183 276 1183 q 415 1171 386 1183 q 465 1143 443 1158 q 506 1115 488 1128 q 540 1103 524 1103 q 574 1118 560 1103 q 592 1171 588 1133 l 724 1161 q 669 1009 718 1057 q 547 961 621 961 z "},"Ế":{"ha":833,"x_min":128,"x_max":806,"o":"m 128 0 l 128 906 l 728 906 l 728 733 l 333 733 l 333 551 l 668 551 l 668 381 l 333 381 l 333 172 l 742 172 l 742 0 l 128 0 m 318 951 l 236 1006 l 361 1144 l 536 1144 l 661 1006 l 579 951 l 451 1051 l 446 1051 l 318 951 m 660 1054 l 599 1124 l 738 1243 l 806 1160 l 660 1054 z "},"Ề":{"ha":833,"x_min":97,"x_max":742,"o":"m 128 0 l 128 906 l 728 906 l 728 733 l 333 733 l 333 551 l 668 551 l 668 381 l 333 381 l 333 172 l 742 172 l 742 0 l 128 0 m 318 951 l 236 1006 l 361 1144 l 536 1144 l 661 1006 l 579 951 l 451 1051 l 446 1051 l 318 951 m 238 1054 l 97 1161 l 164 1243 l 299 1122 l 238 1054 z "},"Ể":{"ha":833,"x_min":128,"x_max":800,"o":"m 128 0 l 128 906 l 728 906 l 728 733 l 333 733 l 333 551 l 668 551 l 668 381 l 333 381 l 333 172 l 742 172 l 742 0 l 128 0 m 318 951 l 236 1006 l 361 1144 l 536 1144 l 661 1006 l 579 951 l 451 1051 l 446 1051 l 318 951 m 639 1042 l 624 1107 q 656 1119 643 1111 q 668 1144 668 1126 q 649 1175 668 1164 q 578 1190 629 1186 l 596 1274 q 717 1257 672 1272 q 781 1217 761 1242 q 800 1163 800 1193 q 753 1074 800 1101 q 639 1042 707 1047 z "},"Ễ":{"ha":833,"x_min":128,"x_max":742,"o":"m 128 0 l 128 906 l 728 906 l 728 733 l 333 733 l 333 551 l 668 551 l 668 381 l 333 381 l 333 172 l 742 172 l 742 0 l 128 0 m 318 951 l 236 1006 l 361 1133 l 536 1133 l 661 1006 l 579 951 l 451 1039 l 446 1039 l 318 951 m 532 1164 q 481 1174 504 1164 q 440 1195 458 1183 q 408 1216 422 1207 q 378 1225 393 1225 q 349 1213 360 1225 q 333 1172 338 1200 l 236 1183 q 255 1270 239 1236 q 299 1321 271 1304 q 365 1338 326 1338 q 417 1328 394 1338 q 457 1306 439 1318 q 490 1285 475 1294 q 519 1276 506 1276 q 549 1290 538 1276 q 564 1331 560 1303 l 661 1318 q 642 1233 658 1267 q 599 1181 626 1199 q 532 1164 571 1164 z "},"Ệ":{"ha":833,"x_min":128,"x_max":742,"o":"m 128 0 l 128 906 l 728 906 l 728 733 l 333 733 l 333 551 l 668 551 l 668 381 l 333 381 l 333 172 l 742 172 l 742 0 l 128 0 m 301 951 l 213 1006 l 338 1160 l 560 1160 l 685 1006 l 596 951 l 451 1068 l 446 1068 l 301 951 z "},"Ḗ":{"ha":833,"x_min":128,"x_max":742,"o":"m 128 0 l 128 906 l 728 906 l 728 733 l 333 733 l 333 551 l 668 551 l 668 381 l 333 381 l 333 172 l 742 172 l 742 0 l 128 0 m 239 1001 l 239 1132 l 658 1132 l 658 1001 l 239 1001 m 406 1158 l 338 1250 l 553 1399 l 636 1286 l 406 1158 z "},"Ǵ":{"ha":833,"x_min":61,"x_max":760,"o":"m 476 -17 q 267 35 361 -17 q 117 191 172 88 q 61 447 61 294 q 117 705 61 599 q 267 867 172 811 q 479 922 363 922 q 636 887 571 922 q 744 807 701 851 l 632 681 q 568 728 603 710 q 479 746 533 746 q 374 710 421 746 q 299 610 326 675 q 272 454 272 544 q 296 295 272 361 q 368 194 319 229 q 488 160 417 160 q 538 167 514 160 q 576 188 563 174 l 576 343 l 444 343 l 444 510 l 760 510 l 760 93 q 638 17 714 50 q 476 -17 563 -17 m 407 944 l 317 1047 l 554 1242 l 663 1110 l 407 944 z "},"Ĝ":{"ha":833,"x_min":61,"x_max":760,"o":"m 476 -17 q 267 35 361 -17 q 117 191 172 88 q 61 447 61 294 q 117 705 61 599 q 267 867 172 811 q 479 922 363 922 q 636 887 571 922 q 744 807 701 851 l 632 681 q 568 728 603 710 q 479 746 533 746 q 374 710 421 746 q 299 610 326 675 q 272 454 272 544 q 296 295 272 361 q 368 194 319 229 q 488 160 417 160 q 538 167 514 160 q 576 188 563 174 l 576 343 l 444 343 l 444 510 l 760 510 l 760 93 q 638 17 714 50 q 476 -17 563 -17 m 311 951 l 222 1006 l 347 1160 l 569 1160 l 694 1006 l 606 951 l 461 1068 l 456 1068 l 311 951 z "},"Ğ":{"ha":833,"x_min":61,"x_max":760,"o":"m 476 -17 q 267 35 361 -17 q 117 191 172 88 q 61 447 61 294 q 117 705 61 599 q 267 867 172 811 q 479 922 363 922 q 636 887 571 922 q 744 807 701 851 l 632 681 q 568 728 603 710 q 479 746 533 746 q 374 710 421 746 q 299 610 326 675 q 272 454 272 544 q 296 295 272 361 q 368 194 319 229 q 488 160 417 160 q 538 167 514 160 q 576 188 563 174 l 576 343 l 444 343 l 444 510 l 760 510 l 760 93 q 638 17 714 50 q 476 -17 563 -17 m 458 968 q 341 990 389 968 q 266 1055 293 1013 q 232 1158 239 1097 l 343 1178 q 382 1110 353 1135 q 458 1086 411 1086 q 535 1110 506 1086 q 574 1178 564 1135 l 685 1158 q 651 1055 679 1097 q 576 990 624 1013 q 458 968 528 968 z "},"Ġ":{"ha":833,"x_min":61,"x_max":760,"o":"m 476 -17 q 267 35 361 -17 q 117 191 172 88 q 61 447 61 294 q 117 705 61 599 q 267 867 172 811 q 479 922 363 922 q 636 887 571 922 q 744 807 701 851 l 632 681 q 568 728 603 710 q 479 746 533 746 q 374 710 421 746 q 299 610 326 675 q 272 454 272 544 q 296 295 272 361 q 368 194 319 229 q 488 160 417 160 q 538 167 514 160 q 576 188 563 174 l 576 343 l 444 343 l 444 510 l 760 510 l 760 93 q 638 17 714 50 q 476 -17 563 -17 m 458 974 q 369 1006 404 974 q 333 1090 333 1038 q 369 1174 333 1142 q 458 1206 404 1206 q 549 1174 514 1206 q 583 1090 583 1142 q 549 1006 583 1038 q 458 974 514 974 z "},"Ģ":{"ha":833,"x_min":61,"x_max":760,"o":"m 476 -17 q 267 35 361 -17 q 117 191 172 88 q 61 447 61 294 q 117 705 61 599 q 267 867 172 811 q 479 922 363 922 q 636 887 571 922 q 744 807 701 851 l 632 681 q 568 728 603 710 q 479 746 533 746 q 374 710 421 746 q 299 610 326 675 q 272 454 272 544 q 296 295 272 361 q 368 194 319 229 q 488 160 417 160 q 538 167 514 160 q 576 188 563 174 l 576 343 l 444 343 l 444 510 l 760 510 l 760 93 q 638 17 714 50 q 476 -17 563 -17 m 307 -332 l 292 -250 q 404 -233 374 -246 q 435 -196 435 -219 q 414 -164 435 -176 q 346 -147 393 -151 l 385 -72 q 539 -110 497 -82 q 581 -189 581 -137 q 509 -294 581 -260 q 307 -332 438 -328 z "},"Ǧ":{"ha":833,"x_min":61,"x_max":760,"o":"m 476 -17 q 267 35 361 -17 q 117 191 172 88 q 61 447 61 294 q 117 705 61 599 q 267 867 172 811 q 479 922 363 922 q 636 887 571 922 q 744 807 701 851 l 632 681 q 568 728 603 710 q 479 746 533 746 q 374 710 421 746 q 299 610 326 675 q 272 454 272 544 q 296 295 272 361 q 368 194 319 229 q 488 160 417 160 q 538 167 514 160 q 576 188 563 174 l 576 343 l 444 343 l 444 510 l 760 510 l 760 93 q 638 17 714 50 q 476 -17 563 -17 m 347 975 l 222 1128 l 311 1183 l 456 1067 l 461 1067 l 606 1183 l 694 1128 l 569 975 l 347 975 z "},"Ḡ":{"ha":833,"x_min":61,"x_max":760,"o":"m 476 -17 q 267 35 361 -17 q 117 191 172 88 q 61 447 61 294 q 117 705 61 599 q 267 867 172 811 q 479 922 363 922 q 636 887 571 922 q 744 807 701 851 l 632 681 q 568 728 603 710 q 479 746 533 746 q 374 710 421 746 q 299 610 326 675 q 272 454 272 544 q 296 295 272 361 q 368 194 319 229 q 488 160 417 160 q 538 167 514 160 q 576 188 563 174 l 576 343 l 444 343 l 444 510 l 760 510 l 760 93 q 638 17 714 50 q 476 -17 563 -17 m 249 1001 l 249 1132 l 668 1132 l 668 1001 l 249 1001 z "},"Ɠ":{"ha":833,"x_min":61,"x_max":844,"o":"m 744 807 l 579 801 q 544 878 558 838 q 531 951 531 918 q 554 1044 531 1003 q 622 1111 578 1086 q 726 1136 665 1136 q 797 1131 769 1136 q 844 1118 824 1125 l 808 967 q 790 974 799 971 q 769 976 782 976 q 719 960 739 976 q 699 910 699 943 q 713 853 699 878 q 744 807 726 829 m 476 -17 q 267 35 361 -17 q 117 191 172 88 q 61 447 61 294 q 117 705 61 599 q 267 867 172 811 q 479 922 363 922 q 636 887 571 922 q 744 807 701 851 l 632 681 q 568 728 603 710 q 479 746 533 746 q 374 710 421 746 q 299 610 326 675 q 272 454 272 544 q 296 295 272 361 q 368 194 319 229 q 488 160 417 160 q 538 167 514 160 q 576 188 563 174 l 576 343 l 444 343 l 444 510 l 760 510 l 760 93 q 638 17 714 50 q 476 -17 563 -17 z "},"Ĥ":{"ha":833,"x_min":89,"x_max":744,"o":"m 89 0 l 89 906 l 293 906 l 293 556 l 540 556 l 540 906 l 744 906 l 744 0 l 540 0 l 540 378 l 293 378 l 293 0 l 89 0 m 269 951 l 181 1006 l 306 1160 l 528 1160 l 653 1006 l 564 951 l 419 1068 l 414 1068 l 269 951 z "},"Ḧ":{"ha":833,"x_min":89,"x_max":744,"o":"m 89 0 l 89 906 l 293 906 l 293 556 l 540 556 l 540 906 l 744 906 l 744 0 l 540 0 l 540 378 l 293 378 l 293 0 l 89 0 m 263 972 q 190 1002 218 972 q 161 1075 161 1032 q 190 1147 161 1118 q 263 1175 218 1175 q 336 1147 307 1175 q 365 1075 365 1118 q 336 1002 365 1032 q 263 972 307 972 m 571 972 q 497 1002 526 972 q 468 1075 468 1032 q 497 1147 468 1118 q 571 1175 526 1175 q 644 1147 615 1175 q 672 1075 672 1118 q 644 1002 672 1032 q 571 972 615 972 z "},"Ḥ":{"ha":833,"x_min":89,"x_max":744,"o":"m 89 0 l 89 906 l 293 906 l 293 556 l 540 556 l 540 906 l 744 906 l 744 0 l 540 0 l 540 378 l 293 378 l 293 0 l 89 0 z "},"Ḩ":{"ha":833,"x_min":36,"x_max":744,"o":"m 89 0 l 89 906 l 293 906 l 293 556 l 540 556 l 540 906 l 744 906 l 744 0 l 540 0 l 540 378 l 293 378 l 293 0 l 89 0 m 51 -332 l 36 -250 q 149 -232 118 -246 q 179 -189 179 -218 q 158 -153 179 -167 q 72 -131 136 -139 l 142 15 l 261 15 l 219 -85 q 298 -121 271 -97 q 325 -189 325 -144 q 253 -294 325 -260 q 51 -332 182 -328 z "},"Ḫ":{"ha":833,"x_min":89,"x_max":744,"o":"m 89 0 l 89 906 l 293 906 l 293 556 l 540 556 l 540 906 l 744 906 l 744 0 l 540 0 l 540 378 l 293 378 l 293 0 l 89 0 z "},"Ħ":{"ha":833,"x_min":4,"x_max":829,"o":"m 4 672 l 4 768 l 97 776 l 829 776 l 829 672 l 4 672 m 89 0 l 89 906 l 293 906 l 293 556 l 540 556 l 540 906 l 744 906 l 744 0 l 540 0 l 540 378 l 293 378 l 293 0 l 89 0 z "},"Ì":{"ha":833,"x_min":103,"x_max":731,"o":"m 103 0 l 103 172 l 314 172 l 314 733 l 103 733 l 103 906 l 731 906 l 731 733 l 519 733 l 519 172 l 731 172 l 731 0 l 103 0 m 468 944 l 213 1110 l 321 1242 l 558 1047 l 468 944 z "},"Í":{"ha":833,"x_min":103,"x_max":731,"o":"m 103 0 l 103 172 l 314 172 l 314 733 l 103 733 l 103 906 l 731 906 l 731 733 l 519 733 l 519 172 l 731 172 l 731 0 l 103 0 m 365 944 l 275 1047 l 513 1242 l 621 1110 l 365 944 z "},"Î":{"ha":833,"x_min":103,"x_max":731,"o":"m 103 0 l 103 172 l 314 172 l 314 733 l 103 733 l 103 906 l 731 906 l 731 733 l 519 733 l 519 172 l 731 172 l 731 0 l 103 0 m 269 951 l 181 1006 l 306 1160 l 528 1160 l 653 1006 l 564 951 l 419 1068 l 414 1068 l 269 951 z "},"Ĩ":{"ha":833,"x_min":103,"x_max":731,"o":"m 103 0 l 103 172 l 314 172 l 314 733 l 103 733 l 103 906 l 731 906 l 731 733 l 519 733 l 519 172 l 731 172 l 731 0 l 103 0 m 515 961 q 451 974 479 961 q 400 1001 422 986 q 360 1029 378 1017 q 325 1042 342 1042 q 292 1027 306 1042 q 274 974 278 1013 l 142 983 q 197 1136 149 1089 q 318 1183 244 1183 q 383 1171 354 1183 q 433 1143 411 1158 q 474 1115 456 1128 q 508 1103 492 1103 q 542 1118 528 1103 q 560 1171 556 1133 l 692 1161 q 638 1009 686 1057 q 515 961 589 961 z "},"Ï":{"ha":833,"x_min":103,"x_max":731,"o":"m 103 0 l 103 172 l 314 172 l 314 733 l 103 733 l 103 906 l 731 906 l 731 733 l 519 733 l 519 172 l 731 172 l 731 0 l 103 0 m 263 972 q 190 1002 218 972 q 161 1075 161 1032 q 190 1147 161 1118 q 263 1175 218 1175 q 336 1147 307 1175 q 365 1075 365 1118 q 336 1002 365 1032 q 263 972 307 972 m 571 972 q 497 1002 526 972 q 468 1075 468 1032 q 497 1147 468 1118 q 571 1175 526 1175 q 644 1147 615 1175 q 672 1075 672 1118 q 644 1002 672 1032 q 571 972 615 972 z "},"Ī":{"ha":833,"x_min":103,"x_max":731,"o":"m 103 0 l 103 172 l 314 172 l 314 733 l 103 733 l 103 906 l 731 906 l 731 733 l 519 733 l 519 172 l 731 172 l 731 0 l 103 0 m 207 1001 l 207 1132 l 626 1132 l 626 1001 l 207 1001 z "},"İ":{"ha":833,"x_min":103,"x_max":731,"o":"m 103 0 l 103 172 l 314 172 l 314 733 l 103 733 l 103 906 l 731 906 l 731 733 l 519 733 l 519 172 l 731 172 l 731 0 l 103 0 m 417 974 q 327 1006 363 974 q 292 1090 292 1038 q 327 1174 292 1142 q 417 1206 363 1206 q 507 1174 472 1206 q 542 1090 542 1142 q 507 1006 542 1038 q 417 974 472 974 z "},"Ǐ":{"ha":833,"x_min":103,"x_max":731,"o":"m 103 0 l 103 172 l 314 172 l 314 733 l 103 733 l 103 906 l 731 906 l 731 733 l 519 733 l 519 172 l 731 172 l 731 0 l 103 0 m 306 975 l 181 1128 l 269 1183 l 414 1067 l 419 1067 l 564 1183 l 653 1128 l 528 975 l 306 975 z "},"Į":{"ha":833,"x_min":103,"x_max":731,"o":"m 426 -315 q 312 -281 358 -315 q 265 -182 265 -246 q 283 -102 265 -137 q 324 -41 300 -67 q 369 0 349 -15 l 103 0 l 103 172 l 314 172 l 314 733 l 103 733 l 103 906 l 731 906 l 731 733 l 519 733 l 519 172 l 731 172 l 731 0 l 521 0 q 439 -59 464 -24 q 414 -129 414 -94 q 433 -170 414 -157 q 475 -183 453 -183 q 505 -176 490 -183 q 529 -161 519 -168 l 576 -264 q 508 -300 549 -285 q 426 -315 467 -315 z "},"Ỉ":{"ha":833,"x_min":103,"x_max":731,"o":"m 103 0 l 103 172 l 314 172 l 314 733 l 103 733 l 103 906 l 731 906 l 731 733 l 519 733 l 519 172 l 731 172 l 731 0 l 103 0 m 357 960 l 340 1040 q 385 1053 367 1044 q 403 1082 403 1063 q 378 1113 403 1101 q 292 1129 353 1125 l 315 1231 q 453 1213 401 1229 q 527 1168 504 1196 q 550 1104 550 1140 q 523 1026 550 1057 q 452 980 496 996 q 357 960 408 964 z "},"Ị":{"ha":833,"x_min":103,"x_max":731,"o":"m 103 0 l 103 172 l 314 172 l 314 733 l 103 733 l 103 906 l 731 906 l 731 733 l 519 733 l 519 172 l 731 172 l 731 0 l 103 0 z "},"Ĭ":{"ha":833,"x_min":103,"x_max":731,"o":"m 103 0 l 103 172 l 314 172 l 314 733 l 103 733 l 103 906 l 731 906 l 731 733 l 519 733 l 519 172 l 731 172 l 731 0 l 103 0 m 417 968 q 299 990 347 968 q 224 1055 251 1013 q 190 1158 197 1097 l 301 1178 q 340 1110 311 1135 q 417 1086 369 1086 q 493 1110 464 1086 q 532 1178 522 1135 l 643 1158 q 610 1055 638 1097 q 534 990 582 1013 q 417 968 486 968 z "},"Ĵ":{"ha":833,"x_min":82,"x_max":717,"o":"m 379 -17 q 223 17 304 -17 q 82 133 142 50 l 200 260 q 283 185 239 211 q 372 160 328 160 q 477 196 442 160 q 513 325 513 232 l 513 735 l 158 735 l 158 906 l 717 906 l 717 308 q 684 146 717 219 q 578 28 651 72 q 379 -17 506 -17 m 308 951 l 219 1006 l 344 1160 l 567 1160 l 692 1006 l 603 951 l 458 1068 l 453 1068 l 308 951 z "},"Ķ":{"ha":833,"x_min":94,"x_max":825,"o":"m 94 0 l 94 906 l 301 906 l 301 535 l 306 535 l 574 906 l 800 906 l 301 247 l 301 0 l 94 0 m 599 0 l 388 421 l 508 581 l 825 0 l 599 0 m 310 -332 l 294 -250 q 407 -233 376 -246 q 438 -196 438 -219 q 417 -164 438 -176 q 349 -147 396 -151 l 388 -72 q 542 -110 500 -82 q 583 -189 583 -137 q 512 -294 583 -260 q 310 -332 440 -328 z "},"Ḳ":{"ha":833,"x_min":94,"x_max":825,"o":"m 94 0 l 94 906 l 301 906 l 301 535 l 306 535 l 574 906 l 800 906 l 301 247 l 301 0 l 94 0 m 599 0 l 388 421 l 508 581 l 825 0 l 599 0 z "},"Ḵ":{"ha":833,"x_min":94,"x_max":825,"o":"m 94 0 l 94 906 l 301 906 l 301 535 l 306 535 l 574 906 l 800 906 l 301 247 l 301 0 l 94 0 m 599 0 l 388 421 l 508 581 l 825 0 l 599 0 z "},"Ĺ":{"ha":833,"x_min":126,"x_max":756,"o":"m 149 0 l 149 906 l 353 906 l 353 172 l 756 172 l 756 0 l 149 0 m 217 944 l 126 1047 l 364 1242 l 472 1110 l 217 944 z "},"Ľ":{"ha":833,"x_min":149,"x_max":756,"o":"m 149 0 l 149 906 l 353 906 l 353 172 l 756 172 l 756 0 l 149 0 m 513 708 l 504 1089 l 686 1089 l 683 953 l 650 708 l 513 708 z "},"Ļ":{"ha":833,"x_min":149,"x_max":756,"o":"m 149 0 l 149 906 l 353 906 l 353 172 l 756 172 l 756 0 l 149 0 m 324 -332 l 308 -250 q 421 -233 390 -246 q 451 -196 451 -219 q 431 -164 451 -176 q 363 -147 410 -151 l 401 -72 q 556 -110 514 -82 q 597 -189 597 -137 q 526 -294 597 -260 q 324 -332 454 -328 z "},"Ḷ":{"ha":833,"x_min":149,"x_max":756,"o":"m 149 0 l 149 906 l 353 906 l 353 172 l 756 172 l 756 0 l 149 0 z "},"Ḹ":{"ha":833,"x_min":57,"x_max":756,"o":"m 149 0 l 149 906 l 353 906 l 353 172 l 756 172 l 756 0 l 149 0 m 58 1001 l 58 1132 l 478 1132 l 478 1001 l 58 1001 z "},"Ḻ":{"ha":833,"x_min":149,"x_max":756,"o":"m 149 0 l 149 906 l 353 906 l 353 172 l 756 172 l 756 0 l 149 0 z "},"Ł":{"ha":833,"x_min":-10,"x_max":756,"o":"m 60 236 l -10 358 l 171 460 l 332 529 l 603 679 l 671 557 l 332 371 l 171 301 l 60 236 m 149 0 l 149 906 l 353 906 l 353 172 l 756 172 l 756 0 l 149 0 z "},"Ŀ":{"ha":833,"x_min":149,"x_max":796,"o":"m 149 0 l 149 906 l 353 906 l 353 172 l 756 172 l 756 0 l 149 0 m 660 374 q 563 408 601 374 q 524 497 524 442 q 563 590 524 554 q 660 625 601 625 q 758 590 719 625 q 796 497 796 554 q 758 408 796 442 q 660 374 719 374 z "},"Ḿ":{"ha":833,"x_min":81,"x_max":753,"o":"m 81 0 l 81 906 l 294 906 l 383 585 l 414 460 l 419 460 l 450 585 l 539 906 l 753 906 l 753 0 l 581 0 l 581 281 q 583 374 581 318 q 590 492 586 431 q 599 608 594 553 q 607 700 604 664 l 603 700 l 533 458 l 464 240 l 364 240 l 293 458 l 228 700 l 224 700 q 231 608 226 664 q 240 492 236 553 q 247 374 244 431 q 250 281 250 318 l 250 0 l 81 0 m 365 944 l 275 1047 l 513 1242 l 621 1110 l 365 944 z "},"Ṁ":{"ha":833,"x_min":81,"x_max":753,"o":"m 81 0 l 81 906 l 294 906 l 383 585 l 414 460 l 419 460 l 450 585 l 539 906 l 753 906 l 753 0 l 581 0 l 581 281 q 583 374 581 318 q 590 492 586 431 q 599 608 594 553 q 607 700 604 664 l 603 700 l 533 458 l 464 240 l 364 240 l 293 458 l 228 700 l 224 700 q 231 608 226 664 q 240 492 236 553 q 247 374 244 431 q 250 281 250 318 l 250 0 l 81 0 m 417 974 q 327 1006 363 974 q 292 1090 292 1038 q 327 1174 292 1142 q 417 1206 363 1206 q 507 1174 472 1206 q 542 1090 542 1142 q 507 1006 542 1038 q 417 974 472 974 z "},"Ṃ":{"ha":833,"x_min":81,"x_max":753,"o":"m 81 0 l 81 906 l 294 906 l 383 585 l 414 460 l 419 460 l 450 585 l 539 906 l 753 906 l 753 0 l 581 0 l 581 281 q 583 374 581 318 q 590 492 586 431 q 599 608 594 553 q 607 700 604 664 l 603 700 l 533 458 l 464 240 l 364 240 l 293 458 l 228 700 l 224 700 q 231 608 226 664 q 240 492 236 553 q 247 374 244 431 q 250 281 250 318 l 250 0 l 81 0 z "},"Ń":{"ha":833,"x_min":92,"x_max":742,"o":"m 92 0 l 92 906 l 301 906 l 492 456 l 569 256 l 575 256 q 557 417 568 328 q 546 585 546 506 l 546 906 l 742 906 l 742 0 l 532 0 l 342 451 l 264 649 l 258 649 q 276 488 265 575 q 288 321 288 401 l 288 0 l 92 0 m 379 944 l 289 1047 l 526 1242 l 635 1110 l 379 944 z "},"Ǹ":{"ha":833,"x_min":92,"x_max":742,"o":"m 92 0 l 92 906 l 301 906 l 492 456 l 569 256 l 575 256 q 557 417 568 328 q 546 585 546 506 l 546 906 l 742 906 l 742 0 l 532 0 l 342 451 l 264 649 l 258 649 q 276 488 265 575 q 288 321 288 401 l 288 0 l 92 0 m 482 944 l 226 1110 l 335 1242 l 572 1047 l 482 944 z "},"Ň":{"ha":833,"x_min":92,"x_max":742,"o":"m 92 0 l 92 906 l 301 906 l 492 456 l 569 256 l 575 256 q 557 417 568 328 q 546 585 546 506 l 546 906 l 742 906 l 742 0 l 532 0 l 342 451 l 264 649 l 258 649 q 276 488 265 575 q 288 321 288 401 l 288 0 l 92 0 m 319 975 l 194 1128 l 283 1183 l 428 1067 l 433 1067 l 578 1183 l 667 1128 l 542 975 l 319 975 z "},"Ñ":{"ha":833,"x_min":92,"x_max":742,"o":"m 92 0 l 92 906 l 301 906 l 492 456 l 569 256 l 575 256 q 557 417 568 328 q 546 585 546 506 l 546 906 l 742 906 l 742 0 l 532 0 l 342 451 l 264 649 l 258 649 q 276 488 265 575 q 288 321 288 401 l 288 0 l 92 0 m 529 961 q 465 974 493 961 q 414 1001 436 986 q 374 1029 392 1017 q 339 1042 356 1042 q 306 1027 319 1042 q 288 974 292 1013 l 156 983 q 210 1136 163 1089 q 332 1183 258 1183 q 397 1171 368 1183 q 447 1143 425 1158 q 488 1115 469 1128 q 522 1103 506 1103 q 556 1118 542 1103 q 574 1171 569 1133 l 706 1161 q 651 1009 700 1057 q 529 961 603 961 z "},"Ņ":{"ha":833,"x_min":92,"x_max":742,"o":"m 92 0 l 92 906 l 301 906 l 492 456 l 569 256 l 575 256 q 557 417 568 328 q 546 585 546 506 l 546 906 l 742 906 l 742 0 l 532 0 l 342 451 l 264 649 l 258 649 q 276 488 265 575 q 288 321 288 401 l 288 0 l 92 0 m 275 -332 l 260 -250 q 372 -233 342 -246 q 403 -196 403 -219 q 382 -164 403 -176 q 314 -147 361 -151 l 353 -72 q 507 -110 465 -82 q 549 -189 549 -137 q 477 -294 549 -260 q 275 -332 406 -328 z "},"Ṅ":{"ha":833,"x_min":92,"x_max":742,"o":"m 92 0 l 92 906 l 301 906 l 492 456 l 569 256 l 575 256 q 557 417 568 328 q 546 585 546 506 l 546 906 l 742 906 l 742 0 l 532 0 l 342 451 l 264 649 l 258 649 q 276 488 265 575 q 288 321 288 401 l 288 0 l 92 0 m 431 974 q 341 1006 376 974 q 306 1090 306 1038 q 341 1174 306 1142 q 431 1206 376 1206 q 521 1174 486 1206 q 556 1090 556 1142 q 521 1006 556 1038 q 431 974 486 974 z "},"Ṇ":{"ha":833,"x_min":92,"x_max":742,"o":"m 92 0 l 92 906 l 301 906 l 492 456 l 569 256 l 575 256 q 557 417 568 328 q 546 585 546 506 l 546 906 l 742 906 l 742 0 l 532 0 l 342 451 l 264 649 l 258 649 q 276 488 265 575 q 288 321 288 401 l 288 0 l 92 0 z "},"Ṉ":{"ha":833,"x_min":92,"x_max":742,"o":"m 92 0 l 92 906 l 301 906 l 492 456 l 569 256 l 575 256 q 557 417 568 328 q 546 585 546 506 l 546 906 l 742 906 l 742 0 l 532 0 l 342 451 l 264 649 l 258 649 q 276 488 265 575 q 288 321 288 401 l 288 0 l 92 0 z "},"Ò":{"ha":833,"x_min":53,"x_max":781,"o":"m 417 -17 q 226 38 308 -17 q 99 197 144 92 q 53 457 53 301 q 99 712 53 608 q 226 869 144 815 q 417 922 308 922 q 607 869 525 922 q 735 712 689 815 q 781 457 781 608 q 735 197 781 301 q 607 38 689 92 q 417 -17 525 -17 m 417 160 q 499 194 464 160 q 552 294 533 228 q 571 457 571 360 q 552 615 571 551 q 499 713 533 679 q 417 746 464 746 q 335 713 369 746 q 281 615 300 679 q 263 457 263 551 q 281 294 263 360 q 335 194 300 228 q 417 160 369 160 m 468 944 l 213 1110 l 321 1242 l 558 1047 l 468 944 z "},"Ó":{"ha":833,"x_min":53,"x_max":781,"o":"m 417 -17 q 226 38 308 -17 q 99 197 144 92 q 53 457 53 301 q 99 712 53 608 q 226 869 144 815 q 417 922 308 922 q 607 869 525 922 q 735 712 689 815 q 781 457 781 608 q 735 197 781 301 q 607 38 689 92 q 417 -17 525 -17 m 417 160 q 499 194 464 160 q 552 294 533 228 q 571 457 571 360 q 552 615 571 551 q 499 713 533 679 q 417 746 464 746 q 335 713 369 746 q 281 615 300 679 q 263 457 263 551 q 281 294 263 360 q 335 194 300 228 q 417 160 369 160 m 365 944 l 275 1047 l 513 1242 l 621 1110 l 365 944 z "},"Ô":{"ha":833,"x_min":53,"x_max":781,"o":"m 417 -17 q 226 38 308 -17 q 99 197 144 92 q 53 457 53 301 q 99 712 53 608 q 226 869 144 815 q 417 922 308 922 q 607 869 525 922 q 735 712 689 815 q 781 457 781 608 q 735 197 781 301 q 607 38 689 92 q 417 -17 525 -17 m 417 160 q 499 194 464 160 q 552 294 533 228 q 571 457 571 360 q 552 615 571 551 q 499 713 533 679 q 417 746 464 746 q 335 713 369 746 q 281 615 300 679 q 263 457 263 551 q 281 294 263 360 q 335 194 300 228 q 417 160 369 160 m 269 951 l 181 1006 l 306 1160 l 528 1160 l 653 1006 l 564 951 l 419 1068 l 414 1068 l 269 951 z "},"Õ":{"ha":833,"x_min":53,"x_max":781,"o":"m 417 -17 q 226 38 308 -17 q 99 197 144 92 q 53 457 53 301 q 99 712 53 608 q 226 869 144 815 q 417 922 308 922 q 607 869 525 922 q 735 712 689 815 q 781 457 781 608 q 735 197 781 301 q 607 38 689 92 q 417 -17 525 -17 m 417 160 q 499 194 464 160 q 552 294 533 228 q 571 457 571 360 q 552 615 571 551 q 499 713 533 679 q 417 746 464 746 q 335 713 369 746 q 281 615 300 679 q 263 457 263 551 q 281 294 263 360 q 335 194 300 228 q 417 160 369 160 m 515 961 q 451 974 479 961 q 400 1001 422 986 q 360 1029 378 1017 q 325 1042 342 1042 q 292 1027 306 1042 q 274 974 278 1013 l 142 983 q 197 1136 149 1089 q 318 1183 244 1183 q 383 1171 354 1183 q 433 1143 411 1158 q 474 1115 456 1128 q 508 1103 492 1103 q 542 1118 528 1103 q 560 1171 556 1133 l 692 1161 q 638 1009 686 1057 q 515 961 589 961 z "},"Ö":{"ha":833,"x_min":53,"x_max":781,"o":"m 417 -17 q 226 38 308 -17 q 99 197 144 92 q 53 457 53 301 q 99 712 53 608 q 226 869 144 815 q 417 922 308 922 q 607 869 525 922 q 735 712 689 815 q 781 457 781 608 q 735 197 781 301 q 607 38 689 92 q 417 -17 525 -17 m 417 160 q 499 194 464 160 q 552 294 533 228 q 571 457 571 360 q 552 615 571 551 q 499 713 533 679 q 417 746 464 746 q 335 713 369 746 q 281 615 300 679 q 263 457 263 551 q 281 294 263 360 q 335 194 300 228 q 417 160 369 160 m 263 972 q 190 1002 218 972 q 161 1075 161 1032 q 190 1147 161 1118 q 263 1175 218 1175 q 336 1147 307 1175 q 365 1075 365 1118 q 336 1002 365 1032 q 263 972 307 972 m 571 972 q 497 1002 526 972 q 468 1075 468 1032 q 497 1147 468 1118 q 571 1175 526 1175 q 644 1147 615 1175 q 672 1075 672 1118 q 644 1002 672 1032 q 571 972 615 972 z "},"Ō":{"ha":833,"x_min":53,"x_max":781,"o":"m 417 -17 q 226 38 308 -17 q 99 197 144 92 q 53 457 53 301 q 99 712 53 608 q 226 869 144 815 q 417 922 308 922 q 607 869 525 922 q 735 712 689 815 q 781 457 781 608 q 735 197 781 301 q 607 38 689 92 q 417 -17 525 -17 m 417 160 q 499 194 464 160 q 552 294 533 228 q 571 457 571 360 q 552 615 571 551 q 499 713 533 679 q 417 746 464 746 q 335 713 369 746 q 281 615 300 679 q 263 457 263 551 q 281 294 263 360 q 335 194 300 228 q 417 160 369 160 m 207 1001 l 207 1132 l 626 1132 l 626 1001 l 207 1001 z "},"Ő":{"ha":833,"x_min":53,"x_max":781,"o":"m 417 -17 q 226 38 308 -17 q 99 197 144 92 q 53 457 53 301 q 99 712 53 608 q 226 869 144 815 q 417 922 308 922 q 607 869 525 922 q 735 712 689 815 q 781 457 781 608 q 735 197 781 301 q 607 38 689 92 q 417 -17 525 -17 m 417 160 q 499 194 464 160 q 552 294 533 228 q 571 457 571 360 q 552 615 571 551 q 499 713 533 679 q 417 746 464 746 q 335 713 369 746 q 281 615 300 679 q 263 457 263 551 q 281 294 263 360 q 335 194 300 228 q 417 160 369 160 m 325 964 l 224 1011 l 364 1235 l 494 1163 l 325 964 m 585 964 l 485 1011 l 624 1235 l 754 1163 l 585 964 z "},"Ŏ":{"ha":833,"x_min":53,"x_max":781,"o":"m 417 -17 q 226 38 308 -17 q 99 197 144 92 q 53 457 53 301 q 99 712 53 608 q 226 869 144 815 q 417 922 308 922 q 607 869 525 922 q 735 712 689 815 q 781 457 781 608 q 735 197 781 301 q 607 38 689 92 q 417 -17 525 -17 m 417 160 q 499 194 464 160 q 552 294 533 228 q 571 457 571 360 q 552 615 571 551 q 499 713 533 679 q 417 746 464 746 q 335 713 369 746 q 281 615 300 679 q 263 457 263 551 q 281 294 263 360 q 335 194 300 228 q 417 160 369 160 m 417 968 q 299 990 347 968 q 224 1055 251 1013 q 190 1158 197 1097 l 301 1178 q 340 1110 311 1135 q 417 1086 369 1086 q 493 1110 464 1086 q 532 1178 522 1135 l 643 1158 q 610 1055 638 1097 q 534 990 582 1013 q 417 968 486 968 z "},"Ǒ":{"ha":833,"x_min":53,"x_max":781,"o":"m 417 -17 q 226 38 308 -17 q 99 197 144 92 q 53 457 53 301 q 99 712 53 608 q 226 869 144 815 q 417 922 308 922 q 607 869 525 922 q 735 712 689 815 q 781 457 781 608 q 735 197 781 301 q 607 38 689 92 q 417 -17 525 -17 m 417 160 q 499 194 464 160 q 552 294 533 228 q 571 457 571 360 q 552 615 571 551 q 499 713 533 679 q 417 746 464 746 q 335 713 369 746 q 281 615 300 679 q 263 457 263 551 q 281 294 263 360 q 335 194 300 228 q 417 160 369 160 m 306 975 l 181 1128 l 269 1183 l 414 1067 l 419 1067 l 564 1183 l 653 1128 l 528 975 l 306 975 z "},"Ǫ":{"ha":833,"x_min":53,"x_max":781,"o":"m 447 -315 q 333 -281 379 -315 q 286 -182 286 -246 q 316 -83 286 -125 q 378 -14 346 -42 q 196 65 268 -1 q 88 233 124 131 q 53 457 53 335 q 99 708 53 604 q 226 867 144 813 q 417 922 308 922 q 607 867 525 922 q 735 708 689 813 q 781 457 781 604 q 714 163 781 272 q 536 3 647 53 q 458 -58 482 -21 q 435 -129 435 -94 q 453 -170 435 -157 q 496 -183 472 -183 q 525 -176 511 -183 q 549 -161 539 -168 l 597 -264 q 528 -300 569 -285 q 447 -315 488 -315 m 417 156 q 499 188 464 156 q 552 287 533 221 q 571 457 571 353 q 552 615 571 551 q 499 713 533 679 q 417 746 464 746 q 335 713 369 746 q 281 615 300 679 q 263 457 263 551 q 281 287 263 353 q 335 188 300 221 q 417 156 369 156 z "},"Ọ":{"ha":833,"x_min":53,"x_max":781,"o":"m 417 -17 q 226 38 308 -17 q 99 197 144 92 q 53 457 53 301 q 99 712 53 608 q 226 869 144 815 q 417 922 308 922 q 607 869 525 922 q 735 712 689 815 q 781 457 781 608 q 735 197 781 301 q 607 38 689 92 q 417 -17 525 -17 m 417 160 q 499 194 464 160 q 552 294 533 228 q 571 457 571 360 q 552 615 571 551 q 499 713 533 679 q 417 746 464 746 q 335 713 369 746 q 281 615 300 679 q 263 457 263 551 q 281 294 263 360 q 335 194 300 228 q 417 160 369 160 z "},"Ỏ":{"ha":833,"x_min":53,"x_max":781,"o":"m 417 -17 q 226 38 308 -17 q 99 197 144 92 q 53 457 53 301 q 99 712 53 608 q 226 869 144 815 q 417 922 308 922 q 607 869 525 922 q 735 712 689 815 q 781 457 781 608 q 735 197 781 301 q 607 38 689 92 q 417 -17 525 -17 m 417 160 q 499 194 464 160 q 552 294 533 228 q 571 457 571 360 q 552 615 571 551 q 499 713 533 679 q 417 746 464 746 q 335 713 369 746 q 281 615 300 679 q 263 457 263 551 q 281 294 263 360 q 335 194 300 228 q 417 160 369 160 m 357 960 l 340 1040 q 385 1053 367 1044 q 403 1082 403 1063 q 378 1113 403 1101 q 292 1129 353 1125 l 315 1231 q 453 1213 401 1229 q 527 1168 504 1196 q 550 1104 550 1140 q 523 1026 550 1057 q 452 980 496 996 q 357 960 408 964 z "},"Ố":{"ha":833,"x_min":53,"x_max":781,"o":"m 417 -17 q 226 38 308 -17 q 99 197 144 92 q 53 457 53 301 q 99 712 53 608 q 226 869 144 815 q 417 922 308 922 q 607 869 525 922 q 735 712 689 815 q 781 457 781 608 q 735 197 781 301 q 607 38 689 92 q 417 -17 525 -17 m 417 160 q 499 194 464 160 q 552 294 533 228 q 571 457 571 360 q 552 615 571 551 q 499 713 533 679 q 417 746 464 746 q 335 713 369 746 q 281 615 300 679 q 263 457 263 551 q 281 294 263 360 q 335 194 300 228 q 417 160 369 160 m 286 951 l 204 1006 l 329 1144 l 504 1144 l 629 1006 l 547 951 l 419 1051 l 414 1051 l 286 951 m 628 1054 l 567 1124 l 706 1243 l 774 1160 l 628 1054 z "},"Ồ":{"ha":833,"x_min":53,"x_max":781,"o":"m 417 -17 q 226 38 308 -17 q 99 197 144 92 q 53 457 53 301 q 99 712 53 608 q 226 869 144 815 q 417 922 308 922 q 607 869 525 922 q 735 712 689 815 q 781 457 781 608 q 735 197 781 301 q 607 38 689 92 q 417 -17 525 -17 m 417 160 q 499 194 464 160 q 552 294 533 228 q 571 457 571 360 q 552 615 571 551 q 499 713 533 679 q 417 746 464 746 q 335 713 369 746 q 281 615 300 679 q 263 457 263 551 q 281 294 263 360 q 335 194 300 228 q 417 160 369 160 m 286 951 l 204 1006 l 329 1144 l 504 1144 l 629 1006 l 547 951 l 419 1051 l 414 1051 l 286 951 m 206 1054 l 65 1161 l 132 1243 l 267 1122 l 206 1054 z "},"Ổ":{"ha":833,"x_min":53,"x_max":781,"o":"m 417 -17 q 226 38 308 -17 q 99 197 144 92 q 53 457 53 301 q 99 712 53 608 q 226 869 144 815 q 417 922 308 922 q 607 869 525 922 q 735 712 689 815 q 781 457 781 608 q 735 197 781 301 q 607 38 689 92 q 417 -17 525 -17 m 417 160 q 499 194 464 160 q 552 294 533 228 q 571 457 571 360 q 552 615 571 551 q 499 713 533 679 q 417 746 464 746 q 335 713 369 746 q 281 615 300 679 q 263 457 263 551 q 281 294 263 360 q 335 194 300 228 q 417 160 369 160 m 286 951 l 204 1006 l 329 1144 l 504 1144 l 629 1006 l 547 951 l 419 1051 l 414 1051 l 286 951 m 607 1042 l 592 1107 q 624 1119 611 1111 q 636 1144 636 1126 q 617 1175 636 1164 q 546 1190 597 1186 l 564 1274 q 685 1257 640 1272 q 749 1217 729 1242 q 768 1163 768 1193 q 722 1074 768 1101 q 607 1042 675 1047 z "},"Ỗ":{"ha":833,"x_min":53,"x_max":781,"o":"m 417 -17 q 226 38 308 -17 q 99 197 144 92 q 53 457 53 301 q 99 712 53 608 q 226 869 144 815 q 417 922 308 922 q 607 869 525 922 q 735 712 689 815 q 781 457 781 608 q 735 197 781 301 q 607 38 689 92 q 417 -17 525 -17 m 417 160 q 499 194 464 160 q 552 294 533 228 q 571 457 571 360 q 552 615 571 551 q 499 713 533 679 q 417 746 464 746 q 335 713 369 746 q 281 615 300 679 q 263 457 263 551 q 281 294 263 360 q 335 194 300 228 q 417 160 369 160 m 286 951 l 204 1006 l 329 1133 l 504 1133 l 629 1006 l 547 951 l 419 1039 l 414 1039 l 286 951 m 500 1164 q 449 1174 472 1164 q 408 1195 426 1183 q 376 1216 390 1207 q 346 1225 361 1225 q 317 1213 328 1225 q 301 1172 306 1200 l 204 1183 q 223 1270 207 1236 q 267 1321 239 1304 q 333 1338 294 1338 q 385 1328 363 1338 q 425 1306 407 1318 q 458 1285 443 1294 q 488 1276 474 1276 q 517 1290 506 1276 q 532 1331 528 1303 l 629 1318 q 610 1233 626 1267 q 567 1181 594 1199 q 500 1164 539 1164 z "},"Ộ":{"ha":833,"x_min":53,"x_max":781,"o":"m 417 -17 q 226 38 308 -17 q 99 197 144 92 q 53 457 53 301 q 99 712 53 608 q 226 869 144 815 q 417 922 308 922 q 607 869 525 922 q 735 712 689 815 q 781 457 781 608 q 735 197 781 301 q 607 38 689 92 q 417 -17 525 -17 m 417 160 q 499 194 464 160 q 552 294 533 228 q 571 457 571 360 q 552 615 571 551 q 499 713 533 679 q 417 746 464 746 q 335 713 369 746 q 281 615 300 679 q 263 457 263 551 q 281 294 263 360 q 335 194 300 228 q 417 160 369 160 m 269 951 l 181 1006 l 306 1160 l 528 1160 l 653 1006 l 564 951 l 419 1068 l 414 1068 l 269 951 z "},"Ơ":{"ha":833,"x_min":53,"x_max":826,"o":"m 664 817 l 569 885 q 634 924 613 897 q 656 1003 656 951 q 649 1053 656 1029 q 635 1093 642 1078 l 786 1154 q 814 1095 801 1132 q 826 1017 826 1058 q 787 889 826 939 q 664 817 747 839 m 417 -17 q 226 38 308 -17 q 99 197 144 92 q 53 457 53 301 q 99 712 53 608 q 226 869 144 815 q 417 922 308 922 q 607 869 525 922 q 735 712 689 815 q 781 457 781 608 q 735 197 781 301 q 607 38 689 92 q 417 -17 525 -17 m 417 160 q 499 194 464 160 q 552 293 533 228 q 571 457 571 358 q 552 615 571 551 q 499 713 533 679 q 417 746 464 746 q 335 713 369 746 q 281 615 300 679 q 263 457 263 551 q 281 293 263 358 q 335 194 300 228 q 417 160 369 160 z "},"Ớ":{"ha":833,"x_min":53,"x_max":826,"o":"m 664 817 l 569 885 q 634 924 613 897 q 656 1003 656 951 q 649 1053 656 1029 q 635 1093 642 1078 l 786 1154 q 814 1095 801 1132 q 826 1017 826 1058 q 787 889 826 939 q 664 817 747 839 m 417 -17 q 226 38 308 -17 q 99 197 144 92 q 53 457 53 301 q 99 712 53 608 q 226 869 144 815 q 417 922 308 922 q 607 869 525 922 q 735 712 689 815 q 781 457 781 608 q 735 197 781 301 q 607 38 689 92 q 417 -17 525 -17 m 417 160 q 499 194 464 160 q 552 293 533 228 q 571 457 571 358 q 552 615 571 551 q 499 713 533 679 q 417 746 464 746 q 335 713 369 746 q 281 615 300 679 q 263 457 263 551 q 281 293 263 358 q 335 194 300 228 q 417 160 369 160 m 365 944 l 275 1047 l 513 1242 l 621 1110 l 365 944 z "},"Ờ":{"ha":833,"x_min":53,"x_max":826,"o":"m 664 817 l 569 885 q 634 924 613 897 q 656 1003 656 951 q 649 1053 656 1029 q 635 1093 642 1078 l 786 1154 q 814 1095 801 1132 q 826 1017 826 1058 q 787 889 826 939 q 664 817 747 839 m 417 -17 q 226 38 308 -17 q 99 197 144 92 q 53 457 53 301 q 99 712 53 608 q 226 869 144 815 q 417 922 308 922 q 607 869 525 922 q 735 712 689 815 q 781 457 781 608 q 735 197 781 301 q 607 38 689 92 q 417 -17 525 -17 m 417 160 q 499 194 464 160 q 552 293 533 228 q 571 457 571 358 q 552 615 571 551 q 499 713 533 679 q 417 746 464 746 q 335 713 369 746 q 281 615 300 679 q 263 457 263 551 q 281 293 263 358 q 335 194 300 228 q 417 160 369 160 m 468 944 l 213 1110 l 321 1242 l 558 1047 l 468 944 z "},"Ở":{"ha":833,"x_min":53,"x_max":826,"o":"m 664 817 l 569 885 q 634 924 613 897 q 656 1003 656 951 q 649 1053 656 1029 q 635 1093 642 1078 l 786 1154 q 814 1095 801 1132 q 826 1017 826 1058 q 787 889 826 939 q 664 817 747 839 m 417 -17 q 226 38 308 -17 q 99 197 144 92 q 53 457 53 301 q 99 712 53 608 q 226 869 144 815 q 417 922 308 922 q 607 869 525 922 q 735 712 689 815 q 781 457 781 608 q 735 197 781 301 q 607 38 689 92 q 417 -17 525 -17 m 417 160 q 499 194 464 160 q 552 293 533 228 q 571 457 571 358 q 552 615 571 551 q 499 713 533 679 q 417 746 464 746 q 335 713 369 746 q 281 615 300 679 q 263 457 263 551 q 281 293 263 358 q 335 194 300 228 q 417 160 369 160 m 357 960 l 340 1040 q 385 1053 367 1044 q 403 1082 403 1063 q 378 1113 403 1101 q 292 1129 353 1125 l 315 1231 q 453 1213 401 1229 q 527 1168 504 1196 q 550 1104 550 1140 q 523 1026 550 1057 q 452 980 496 996 q 357 960 408 964 z "},"Ỡ":{"ha":833,"x_min":53,"x_max":826,"o":"m 664 817 l 569 885 q 634 924 613 897 q 656 1003 656 951 q 649 1053 656 1029 q 635 1093 642 1078 l 786 1154 q 814 1095 801 1132 q 826 1017 826 1058 q 787 889 826 939 q 664 817 747 839 m 417 -17 q 226 38 308 -17 q 99 197 144 92 q 53 457 53 301 q 99 712 53 608 q 226 869 144 815 q 417 922 308 922 q 607 869 525 922 q 735 712 689 815 q 781 457 781 608 q 735 197 781 301 q 607 38 689 92 q 417 -17 525 -17 m 417 160 q 499 194 464 160 q 552 293 533 228 q 571 457 571 358 q 552 615 571 551 q 499 713 533 679 q 417 746 464 746 q 335 713 369 746 q 281 615 300 679 q 263 457 263 551 q 281 293 263 358 q 335 194 300 228 q 417 160 369 160 m 488 961 q 423 974 451 961 q 372 1001 394 986 q 332 1029 350 1017 q 297 1042 314 1042 q 264 1027 278 1042 q 246 974 250 1013 l 114 983 q 169 1136 121 1089 q 290 1183 217 1183 q 355 1171 326 1183 q 406 1143 383 1158 q 446 1115 428 1128 q 481 1103 464 1103 q 514 1118 500 1103 q 532 1171 528 1133 l 664 1161 q 610 1009 658 1057 q 488 961 561 961 z "},"Ợ":{"ha":833,"x_min":53,"x_max":826,"o":"m 664 817 l 569 885 q 634 924 613 897 q 656 1003 656 951 q 649 1053 656 1029 q 635 1093 642 1078 l 786 1154 q 814 1095 801 1132 q 826 1017 826 1058 q 787 889 826 939 q 664 817 747 839 m 417 -17 q 226 38 308 -17 q 99 197 144 92 q 53 457 53 301 q 99 712 53 608 q 226 869 144 815 q 417 922 308 922 q 607 869 525 922 q 735 712 689 815 q 781 457 781 608 q 735 197 781 301 q 607 38 689 92 q 417 -17 525 -17 m 417 160 q 499 194 464 160 q 552 293 533 228 q 571 457 571 358 q 552 615 571 551 q 499 713 533 679 q 417 746 464 746 q 335 713 369 746 q 281 615 300 679 q 263 457 263 551 q 281 293 263 358 q 335 194 300 228 q 417 160 369 160 z "},"Ṓ":{"ha":833,"x_min":53,"x_max":781,"o":"m 417 -17 q 226 38 308 -17 q 99 197 144 92 q 53 457 53 301 q 99 712 53 608 q 226 869 144 815 q 417 922 308 922 q 607 869 525 922 q 735 712 689 815 q 781 457 781 608 q 735 197 781 301 q 607 38 689 92 q 417 -17 525 -17 m 417 160 q 499 194 464 160 q 552 294 533 228 q 571 457 571 360 q 552 615 571 551 q 499 713 533 679 q 417 746 464 746 q 335 713 369 746 q 281 615 300 679 q 263 457 263 551 q 281 294 263 360 q 335 194 300 228 q 417 160 369 160 m 207 1001 l 207 1132 l 626 1132 l 626 1001 l 207 1001 m 374 1158 l 306 1250 l 521 1399 l 604 1286 l 374 1158 z "},"Ø":{"ha":833,"x_min":26,"x_max":806,"o":"m 26 14 l 694 964 l 806 892 l 138 -58 l 26 14 m 417 -17 q 226 38 308 -17 q 99 197 144 92 q 53 457 53 301 q 99 712 53 608 q 226 869 144 815 q 417 922 308 922 q 607 869 525 922 q 735 712 689 815 q 781 457 781 608 q 735 197 781 301 q 607 38 689 92 q 417 -17 525 -17 m 417 160 q 499 194 464 160 q 552 294 533 228 q 571 457 571 360 q 552 615 571 551 q 499 713 533 679 q 417 746 464 746 q 335 713 369 746 q 281 615 300 679 q 263 457 263 551 q 281 294 263 360 q 335 194 300 228 q 417 160 369 160 z "},"Ǿ":{"ha":833,"x_min":26,"x_max":806,"o":"m 26 14 l 694 964 l 806 892 l 138 -58 l 26 14 m 417 -17 q 226 38 308 -17 q 99 197 144 92 q 53 457 53 301 q 99 712 53 608 q 226 869 144 815 q 417 922 308 922 q 607 869 525 922 q 735 712 689 815 q 781 457 781 608 q 735 197 781 301 q 607 38 689 92 q 417 -17 525 -17 m 417 160 q 499 194 464 160 q 552 294 533 228 q 571 457 571 360 q 552 615 571 551 q 499 713 533 679 q 417 746 464 746 q 335 713 369 746 q 281 615 300 679 q 263 457 263 551 q 281 294 263 360 q 335 194 300 228 q 417 160 369 160 m 365 944 l 275 1047 l 513 1242 l 621 1110 l 365 944 z "},"Œ":{"ha":833,"x_min":26,"x_max":826,"o":"m 399 0 q 208 49 292 0 q 75 200 124 99 q 26 457 26 301 q 76 712 26 613 q 213 858 126 811 q 410 906 300 906 l 813 906 l 813 735 l 590 735 l 590 551 l 758 551 l 758 381 l 590 381 l 590 172 l 826 172 l 826 0 l 399 0 m 386 165 l 408 165 l 408 740 l 386 740 q 307 715 340 740 q 255 627 274 689 q 236 457 236 565 q 255 283 236 347 q 307 192 274 219 q 386 165 340 165 z "},"Ŕ":{"ha":833,"x_min":97,"x_max":811,"o":"m 97 0 l 97 906 l 418 906 q 593 880 514 906 q 720 792 672 854 q 768 624 768 731 q 720 454 768 519 q 593 358 672 389 q 418 326 514 326 l 301 326 l 301 0 l 97 0 m 301 489 l 401 489 q 524 523 482 489 q 567 624 567 557 q 524 717 567 690 q 401 743 482 743 l 301 743 l 301 489 m 381 379 l 522 511 l 811 0 l 582 0 l 381 379 m 367 944 l 276 1047 l 514 1242 l 622 1110 l 367 944 z "},"Ř":{"ha":833,"x_min":97,"x_max":811,"o":"m 97 0 l 97 906 l 418 906 q 593 880 514 906 q 720 792 672 854 q 768 624 768 731 q 720 454 768 519 q 593 358 672 389 q 418 326 514 326 l 301 326 l 301 0 l 97 0 m 301 489 l 401 489 q 524 523 482 489 q 567 624 567 557 q 524 717 567 690 q 401 743 482 743 l 301 743 l 301 489 m 381 379 l 522 511 l 811 0 l 582 0 l 381 379 m 307 975 l 182 1128 l 271 1183 l 415 1067 l 421 1067 l 565 1183 l 654 1128 l 529 975 l 307 975 z "},"Ṙ":{"ha":833,"x_min":97,"x_max":811,"o":"m 97 0 l 97 906 l 418 906 q 593 880 514 906 q 720 792 672 854 q 768 624 768 731 q 720 454 768 519 q 593 358 672 389 q 418 326 514 326 l 301 326 l 301 0 l 97 0 m 301 489 l 401 489 q 524 523 482 489 q 567 624 567 557 q 524 717 567 690 q 401 743 482 743 l 301 743 l 301 489 m 381 379 l 522 511 l 811 0 l 582 0 l 381 379 m 418 974 q 328 1006 364 974 q 293 1090 293 1038 q 328 1174 293 1142 q 418 1206 364 1206 q 508 1174 474 1206 q 543 1090 543 1142 q 508 1006 543 1038 q 418 974 474 974 z "},"Ŗ":{"ha":833,"x_min":97,"x_max":811,"o":"m 97 0 l 97 906 l 418 906 q 593 880 514 906 q 720 792 672 854 q 768 624 768 731 q 720 454 768 519 q 593 358 672 389 q 418 326 514 326 l 301 326 l 301 0 l 97 0 m 301 489 l 401 489 q 524 523 482 489 q 567 624 567 557 q 524 717 567 690 q 401 743 482 743 l 301 743 l 301 489 m 381 379 l 522 511 l 811 0 l 582 0 l 381 379 m 303 -332 l 288 -250 q 400 -233 369 -246 q 431 -196 431 -219 q 410 -164 431 -176 q 342 -147 389 -151 l 381 -72 q 535 -110 493 -82 q 576 -189 576 -137 q 505 -294 576 -260 q 303 -332 433 -328 z "},"Ṛ":{"ha":833,"x_min":97,"x_max":811,"o":"m 97 0 l 97 906 l 418 906 q 593 880 514 906 q 720 792 672 854 q 768 624 768 731 q 720 454 768 519 q 593 358 672 389 q 418 326 514 326 l 301 326 l 301 0 l 97 0 m 301 489 l 401 489 q 524 523 482 489 q 567 624 567 557 q 524 717 567 690 q 401 743 482 743 l 301 743 l 301 489 m 381 379 l 522 511 l 811 0 l 582 0 l 381 379 z "},"Ṝ":{"ha":833,"x_min":97,"x_max":811,"o":"m 97 0 l 97 906 l 418 906 q 593 880 514 906 q 720 792 672 854 q 768 624 768 731 q 720 454 768 519 q 593 358 672 389 q 418 326 514 326 l 301 326 l 301 0 l 97 0 m 301 489 l 401 489 q 524 523 482 489 q 567 624 567 557 q 524 717 567 690 q 401 743 482 743 l 301 743 l 301 489 m 381 379 l 522 511 l 811 0 l 582 0 l 381 379 m 208 1001 l 208 1132 l 628 1132 l 628 1001 l 208 1001 z "},"Ṟ":{"ha":833,"x_min":97,"x_max":811,"o":"m 97 0 l 97 906 l 418 906 q 593 880 514 906 q 720 792 672 854 q 768 624 768 731 q 720 454 768 519 q 593 358 672 389 q 418 326 514 326 l 301 326 l 301 0 l 97 0 m 301 489 l 401 489 q 524 523 482 489 q 567 624 567 557 q 524 717 567 690 q 401 743 482 743 l 301 743 l 301 489 m 381 379 l 522 511 l 811 0 l 582 0 l 381 379 z "},"Ś":{"ha":833,"x_min":69,"x_max":765,"o":"m 414 -17 q 233 17 322 -17 q 69 114 143 50 l 188 254 q 301 186 239 213 q 428 160 363 160 q 524 182 493 160 q 556 239 556 204 q 539 290 556 271 q 490 323 522 308 q 415 356 458 338 l 299 406 q 204 458 249 425 q 133 538 160 490 q 106 653 106 586 q 148 788 106 728 q 265 885 190 849 q 438 922 339 922 q 599 892 519 922 q 739 803 678 861 l 635 674 q 540 727 588 708 q 426 746 493 746 q 344 725 376 746 q 313 664 313 704 q 332 619 313 638 q 385 588 351 601 q 461 557 418 574 l 571 510 q 675 455 632 488 q 742 375 718 422 q 765 264 765 328 q 724 125 765 189 q 605 22 683 61 q 414 -17 526 -17 m 392 944 l 301 1047 l 539 1242 l 647 1110 l 392 944 z "},"Ŝ":{"ha":833,"x_min":69,"x_max":765,"o":"m 414 -17 q 233 17 322 -17 q 69 114 143 50 l 188 254 q 301 186 239 213 q 428 160 363 160 q 524 182 493 160 q 556 239 556 204 q 539 290 556 271 q 490 323 522 308 q 415 356 458 338 l 299 406 q 204 458 249 425 q 133 538 160 490 q 106 653 106 586 q 148 788 106 728 q 265 885 190 849 q 438 922 339 922 q 599 892 519 922 q 739 803 678 861 l 635 674 q 540 727 588 708 q 426 746 493 746 q 344 725 376 746 q 313 664 313 704 q 332 619 313 638 q 385 588 351 601 q 461 557 418 574 l 571 510 q 675 455 632 488 q 742 375 718 422 q 765 264 765 328 q 724 125 765 189 q 605 22 683 61 q 414 -17 526 -17 m 296 951 l 207 1006 l 332 1160 l 554 1160 l 679 1006 l 590 951 l 446 1068 l 440 1068 l 296 951 z "},"Š":{"ha":833,"x_min":69,"x_max":765,"o":"m 414 -17 q 233 17 322 -17 q 69 114 143 50 l 188 254 q 301 186 239 213 q 428 160 363 160 q 524 182 493 160 q 556 239 556 204 q 539 290 556 271 q 490 323 522 308 q 415 356 458 338 l 299 406 q 204 458 249 425 q 133 538 160 490 q 106 653 106 586 q 148 788 106 728 q 265 885 190 849 q 438 922 339 922 q 599 892 519 922 q 739 803 678 861 l 635 674 q 540 727 588 708 q 426 746 493 746 q 344 725 376 746 q 313 664 313 704 q 332 619 313 638 q 385 588 351 601 q 461 557 418 574 l 571 510 q 675 455 632 488 q 742 375 718 422 q 765 264 765 328 q 724 125 765 189 q 605 22 683 61 q 414 -17 526 -17 m 332 975 l 207 1128 l 296 1183 l 440 1067 l 446 1067 l 590 1183 l 679 1128 l 554 975 l 332 975 z "},"Ṧ":{"ha":833,"x_min":69,"x_max":765,"o":"m 414 -17 q 233 17 322 -17 q 69 114 143 50 l 188 254 q 301 186 239 213 q 428 160 363 160 q 524 182 493 160 q 556 239 556 204 q 539 290 556 271 q 490 323 522 308 q 415 356 458 338 l 299 406 q 204 458 249 425 q 133 538 160 490 q 106 653 106 586 q 148 788 106 728 q 265 885 190 849 q 438 922 339 922 q 599 892 519 922 q 739 803 678 861 l 635 674 q 540 727 588 708 q 426 746 493 746 q 344 725 376 746 q 313 664 313 704 q 332 619 313 638 q 385 588 351 601 q 461 557 418 574 l 571 510 q 675 455 632 488 q 742 375 718 422 q 765 264 765 328 q 724 125 765 189 q 605 22 683 61 q 414 -17 526 -17 m 443 1135 q 369 1163 399 1135 q 339 1236 339 1190 q 369 1309 339 1281 q 443 1338 399 1338 q 517 1309 488 1338 q 547 1236 547 1281 q 517 1163 547 1190 q 443 1135 488 1135 m 332 975 l 196 1117 l 261 1183 l 440 1067 l 446 1067 l 625 1183 l 690 1117 l 554 975 l 332 975 z "},"Ş":{"ha":833,"x_min":69,"x_max":765,"o":"m 414 -17 q 233 17 322 -17 q 69 114 143 50 l 188 254 q 301 186 239 213 q 428 160 363 160 q 524 182 493 160 q 556 239 556 204 q 539 290 556 271 q 490 323 522 308 q 415 356 458 338 l 299 406 q 204 458 249 425 q 133 538 160 490 q 106 653 106 586 q 148 788 106 728 q 265 885 190 849 q 438 922 339 922 q 599 892 519 922 q 739 803 678 861 l 635 674 q 540 727 588 708 q 426 746 493 746 q 344 725 376 746 q 313 664 313 704 q 332 619 313 638 q 385 588 351 601 q 461 557 418 574 l 571 510 q 675 455 632 488 q 742 375 718 422 q 765 264 765 328 q 724 125 765 189 q 605 22 683 61 q 414 -17 526 -17 m 282 -332 l 267 -250 q 379 -232 349 -246 q 410 -189 410 -218 q 388 -153 410 -167 q 303 -131 367 -139 l 372 15 l 492 15 l 450 -85 q 528 -121 501 -97 q 556 -189 556 -144 q 484 -294 556 -260 q 282 -332 413 -328 z "},"Ș":{"ha":833,"x_min":69,"x_max":765,"o":"m 414 -17 q 233 17 322 -17 q 69 114 143 50 l 188 254 q 301 186 239 213 q 428 160 363 160 q 524 182 493 160 q 556 239 556 204 q 539 290 556 271 q 490 323 522 308 q 415 356 458 338 l 299 406 q 204 458 249 425 q 133 538 160 490 q 106 653 106 586 q 148 788 106 728 q 265 885 190 849 q 438 922 339 922 q 599 892 519 922 q 739 803 678 861 l 635 674 q 540 727 588 708 q 426 746 493 746 q 344 725 376 746 q 313 664 313 704 q 332 619 313 638 q 385 588 351 601 q 461 557 418 574 l 571 510 q 675 455 632 488 q 742 375 718 422 q 765 264 765 328 q 724 125 765 189 q 605 22 683 61 q 414 -17 526 -17 m 281 -332 l 265 -250 q 378 -233 347 -246 q 408 -196 408 -219 q 388 -164 408 -176 q 319 -147 367 -151 l 358 -72 q 513 -110 471 -82 q 554 -189 554 -137 q 483 -294 554 -260 q 281 -332 411 -328 z "},"Ṡ":{"ha":833,"x_min":69,"x_max":765,"o":"m 414 -17 q 233 17 322 -17 q 69 114 143 50 l 188 254 q 301 186 239 213 q 428 160 363 160 q 524 182 493 160 q 556 239 556 204 q 539 290 556 271 q 490 323 522 308 q 415 356 458 338 l 299 406 q 204 458 249 425 q 133 538 160 490 q 106 653 106 586 q 148 788 106 728 q 265 885 190 849 q 438 922 339 922 q 599 892 519 922 q 739 803 678 861 l 635 674 q 540 727 588 708 q 426 746 493 746 q 344 725 376 746 q 313 664 313 704 q 332 619 313 638 q 385 588 351 601 q 461 557 418 574 l 571 510 q 675 455 632 488 q 742 375 718 422 q 765 264 765 328 q 724 125 765 189 q 605 22 683 61 q 414 -17 526 -17 m 443 974 q 353 1006 389 974 q 318 1090 318 1038 q 353 1174 318 1142 q 443 1206 389 1206 q 533 1174 499 1206 q 568 1090 568 1142 q 533 1006 568 1038 q 443 974 499 974 z "},"Ṣ":{"ha":833,"x_min":69,"x_max":765,"o":"m 414 -17 q 233 17 322 -17 q 69 114 143 50 l 188 254 q 301 186 239 213 q 428 160 363 160 q 524 182 493 160 q 556 239 556 204 q 539 290 556 271 q 490 323 522 308 q 415 356 458 338 l 299 406 q 204 458 249 425 q 133 538 160 490 q 106 653 106 586 q 148 788 106 728 q 265 885 190 849 q 438 922 339 922 q 599 892 519 922 q 739 803 678 861 l 635 674 q 540 727 588 708 q 426 746 493 746 q 344 725 376 746 q 313 664 313 704 q 332 619 313 638 q 385 588 351 601 q 461 557 418 574 l 571 510 q 675 455 632 488 q 742 375 718 422 q 765 264 765 328 q 724 125 765 189 q 605 22 683 61 q 414 -17 526 -17 z "},"ẞ":{"ha":833,"x_min":89,"x_max":806,"o":"m 546 -17 q 422 8 478 -17 q 333 72 367 33 l 417 196 q 465 160 440 172 q 519 149 489 149 q 572 173 550 149 q 593 238 593 197 q 577 294 593 267 q 525 344 561 322 q 429 382 489 367 l 414 501 l 557 710 l 539 644 q 499 731 533 706 q 421 757 465 757 q 326 713 358 757 q 293 575 293 668 l 293 0 l 89 0 l 89 603 q 124 767 89 696 q 232 881 158 839 q 418 922 306 922 q 627 852 546 922 q 736 668 708 782 l 597 464 l 589 518 q 715 440 667 481 q 784 350 763 400 q 806 235 806 300 q 778 108 806 164 q 692 17 750 51 q 546 -17 635 -17 z "},"Ť":{"ha":833,"x_min":43,"x_max":790,"o":"m 314 0 l 314 733 l 43 733 l 43 906 l 790 906 l 790 733 l 519 733 l 519 0 l 314 0 m 306 975 l 181 1128 l 269 1183 l 414 1067 l 419 1067 l 564 1183 l 653 1128 l 528 975 l 306 975 z "},"Ţ":{"ha":833,"x_min":43,"x_max":790,"o":"m 314 0 l 314 733 l 43 733 l 43 906 l 790 906 l 790 733 l 519 733 l 519 0 l 314 0 m 275 -332 l 260 -250 q 372 -232 342 -246 q 403 -189 403 -218 q 381 -153 403 -167 q 296 -131 360 -139 l 365 15 l 485 15 l 443 -85 q 522 -121 494 -97 q 549 -189 549 -144 q 477 -294 549 -260 q 275 -332 406 -328 z "},"Ț":{"ha":833,"x_min":43,"x_max":790,"o":"m 314 0 l 314 733 l 43 733 l 43 906 l 790 906 l 790 733 l 519 733 l 519 0 l 314 0 m 275 -332 l 260 -250 q 372 -233 342 -246 q 403 -196 403 -219 q 382 -164 403 -176 q 314 -147 361 -151 l 353 -72 q 507 -110 465 -82 q 549 -189 549 -137 q 477 -294 549 -260 q 275 -332 406 -328 z "},"Ṭ":{"ha":833,"x_min":43,"x_max":790,"o":"m 314 0 l 314 733 l 43 733 l 43 906 l 790 906 l 790 733 l 519 733 l 519 0 l 314 0 z "},"Ṯ":{"ha":833,"x_min":43,"x_max":790,"o":"m 314 0 l 314 733 l 43 733 l 43 906 l 790 906 l 790 733 l 519 733 l 519 0 l 314 0 z "},"Ŧ":{"ha":833,"x_min":43,"x_max":790,"o":"m 129 393 l 129 489 l 260 497 l 704 497 l 704 393 l 129 393 m 314 0 l 314 733 l 43 733 l 43 906 l 790 906 l 790 733 l 519 733 l 519 0 l 314 0 z "},"Ù":{"ha":833,"x_min":89,"x_max":744,"o":"m 419 -17 q 274 8 336 -17 q 172 78 213 32 q 110 192 131 125 q 89 349 89 260 l 89 906 l 293 906 l 293 328 q 307 236 293 274 q 349 179 321 199 q 419 160 376 160 q 491 179 463 160 q 533 236 519 199 q 547 328 547 274 l 547 906 l 744 906 l 744 349 q 725 192 744 260 q 665 78 706 125 q 563 8 624 32 q 419 -17 501 -17 m 468 944 l 213 1110 l 321 1242 l 558 1047 l 468 944 z "},"Ú":{"ha":833,"x_min":89,"x_max":744,"o":"m 419 -17 q 274 8 336 -17 q 172 78 213 32 q 110 192 131 125 q 89 349 89 260 l 89 906 l 293 906 l 293 328 q 307 236 293 274 q 349 179 321 199 q 419 160 376 160 q 491 179 463 160 q 533 236 519 199 q 547 328 547 274 l 547 906 l 744 906 l 744 349 q 725 192 744 260 q 665 78 706 125 q 563 8 624 32 q 419 -17 501 -17 m 365 944 l 275 1047 l 513 1242 l 621 1110 l 365 944 z "},"Û":{"ha":833,"x_min":89,"x_max":744,"o":"m 419 -17 q 274 8 336 -17 q 172 78 213 32 q 110 192 131 125 q 89 349 89 260 l 89 906 l 293 906 l 293 328 q 307 236 293 274 q 349 179 321 199 q 419 160 376 160 q 491 179 463 160 q 533 236 519 199 q 547 328 547 274 l 547 906 l 744 906 l 744 349 q 725 192 744 260 q 665 78 706 125 q 563 8 624 32 q 419 -17 501 -17 m 269 951 l 181 1006 l 306 1160 l 528 1160 l 653 1006 l 564 951 l 419 1068 l 414 1068 l 269 951 z "},"Ũ":{"ha":833,"x_min":89,"x_max":744,"o":"m 419 -17 q 274 8 336 -17 q 172 78 213 32 q 110 192 131 125 q 89 349 89 260 l 89 906 l 293 906 l 293 328 q 307 236 293 274 q 349 179 321 199 q 419 160 376 160 q 491 179 463 160 q 533 236 519 199 q 547 328 547 274 l 547 906 l 744 906 l 744 349 q 725 192 744 260 q 665 78 706 125 q 563 8 624 32 q 419 -17 501 -17 m 515 961 q 451 974 479 961 q 400 1001 422 986 q 360 1029 378 1017 q 325 1042 342 1042 q 292 1027 306 1042 q 274 974 278 1013 l 142 983 q 197 1136 149 1089 q 318 1183 244 1183 q 383 1171 354 1183 q 433 1143 411 1158 q 474 1115 456 1128 q 508 1103 492 1103 q 542 1118 528 1103 q 560 1171 556 1133 l 692 1161 q 638 1009 686 1057 q 515 961 589 961 z "},"Ü":{"ha":833,"x_min":89,"x_max":744,"o":"m 419 -17 q 274 8 336 -17 q 172 78 213 32 q 110 192 131 125 q 89 349 89 260 l 89 906 l 293 906 l 293 328 q 307 236 293 274 q 349 179 321 199 q 419 160 376 160 q 491 179 463 160 q 533 236 519 199 q 547 328 547 274 l 547 906 l 744 906 l 744 349 q 725 192 744 260 q 665 78 706 125 q 563 8 624 32 q 419 -17 501 -17 m 263 972 q 190 1002 218 972 q 161 1075 161 1032 q 190 1147 161 1118 q 263 1175 218 1175 q 336 1147 307 1175 q 365 1075 365 1118 q 336 1002 365 1032 q 263 972 307 972 m 571 972 q 497 1002 526 972 q 468 1075 468 1032 q 497 1147 468 1118 q 571 1175 526 1175 q 644 1147 615 1175 q 672 1075 672 1118 q 644 1002 672 1032 q 571 972 615 972 z "},"Ū":{"ha":833,"x_min":89,"x_max":744,"o":"m 419 -17 q 274 8 336 -17 q 172 78 213 32 q 110 192 131 125 q 89 349 89 260 l 89 906 l 293 906 l 293 328 q 307 236 293 274 q 349 179 321 199 q 419 160 376 160 q 491 179 463 160 q 533 236 519 199 q 547 328 547 274 l 547 906 l 744 906 l 744 349 q 725 192 744 260 q 665 78 706 125 q 563 8 624 32 q 419 -17 501 -17 m 207 1001 l 207 1132 l 626 1132 l 626 1001 l 207 1001 z "},"Ŭ":{"ha":833,"x_min":89,"x_max":744,"o":"m 419 -17 q 274 8 336 -17 q 172 78 213 32 q 110 192 131 125 q 89 349 89 260 l 89 906 l 293 906 l 293 328 q 307 236 293 274 q 349 179 321 199 q 419 160 376 160 q 491 179 463 160 q 533 236 519 199 q 547 328 547 274 l 547 906 l 744 906 l 744 349 q 725 192 744 260 q 665 78 706 125 q 563 8 624 32 q 419 -17 501 -17 m 417 968 q 299 990 347 968 q 224 1055 251 1013 q 190 1158 197 1097 l 301 1178 q 340 1110 311 1135 q 417 1086 369 1086 q 493 1110 464 1086 q 532 1178 522 1135 l 643 1158 q 610 1055 638 1097 q 534 990 582 1013 q 417 968 486 968 z "},"Ů":{"ha":833,"x_min":89,"x_max":744,"o":"m 419 -17 q 274 8 336 -17 q 172 78 213 32 q 110 192 131 125 q 89 349 89 260 l 89 906 l 293 906 l 293 328 q 307 236 293 274 q 349 179 321 199 q 419 160 376 160 q 491 179 463 160 q 533 236 519 199 q 547 328 547 274 l 547 906 l 744 906 l 744 349 q 725 192 744 260 q 665 78 706 125 q 563 8 624 32 q 419 -17 501 -17 m 417 968 q 302 1006 346 968 q 258 1106 258 1043 q 302 1205 258 1168 q 417 1242 346 1242 q 531 1205 486 1242 q 575 1106 575 1168 q 531 1006 575 1043 q 417 968 486 968 m 417 1044 q 458 1060 440 1044 q 475 1106 475 1076 q 458 1149 475 1132 q 417 1165 440 1165 q 375 1149 392 1165 q 358 1106 358 1132 q 375 1060 358 1076 q 417 1044 392 1044 z "},"Ű":{"ha":833,"x_min":89,"x_max":754,"o":"m 419 -17 q 274 8 336 -17 q 172 78 213 32 q 110 192 131 125 q 89 349 89 260 l 89 906 l 293 906 l 293 328 q 307 236 293 274 q 349 179 321 199 q 419 160 376 160 q 491 179 463 160 q 533 236 519 199 q 547 328 547 274 l 547 906 l 744 906 l 744 349 q 725 192 744 260 q 665 78 706 125 q 563 8 624 32 q 419 -17 501 -17 m 325 964 l 224 1011 l 364 1235 l 494 1163 l 325 964 m 585 964 l 485 1011 l 624 1235 l 754 1163 l 585 964 z "},"Ǔ":{"ha":833,"x_min":89,"x_max":744,"o":"m 419 -17 q 274 8 336 -17 q 172 78 213 32 q 110 192 131 125 q 89 349 89 260 l 89 906 l 293 906 l 293 328 q 307 236 293 274 q 349 179 321 199 q 419 160 376 160 q 491 179 463 160 q 533 236 519 199 q 547 328 547 274 l 547 906 l 744 906 l 744 349 q 725 192 744 260 q 665 78 706 125 q 563 8 624 32 q 419 -17 501 -17 m 306 975 l 181 1128 l 269 1183 l 414 1067 l 419 1067 l 564 1183 l 653 1128 l 528 975 l 306 975 z "},"Ų":{"ha":833,"x_min":89,"x_max":744,"o":"m 447 -315 q 333 -281 379 -315 q 286 -182 286 -246 q 303 -106 286 -139 q 342 -49 319 -72 q 376 -14 364 -25 q 218 38 282 -7 q 122 160 154 82 q 89 349 89 238 l 89 906 l 293 906 l 293 328 q 307 236 293 274 q 349 179 321 199 q 418 160 376 160 q 490 179 463 160 q 533 236 518 199 q 547 328 547 274 l 547 906 l 744 906 l 744 349 q 725 197 744 263 q 667 84 706 131 q 567 10 628 38 q 483 -40 511 -15 q 445 -86 456 -64 q 435 -129 435 -108 q 453 -170 435 -157 q 496 -183 472 -183 q 525 -176 511 -183 q 549 -161 539 -168 l 597 -264 q 528 -300 569 -285 q 447 -315 488 -315 z "},"Ǖ":{"ha":833,"x_min":89,"x_max":744,"o":"m 419 -17 q 274 8 336 -17 q 172 78 213 32 q 110 192 131 125 q 89 349 89 260 l 89 906 l 293 906 l 293 328 q 307 236 293 274 q 349 179 321 199 q 419 160 376 160 q 491 179 463 160 q 533 236 519 199 q 547 328 547 274 l 547 906 l 744 906 l 744 349 q 725 192 744 260 q 665 78 706 125 q 563 8 624 32 q 419 -17 501 -17 m 263 972 q 201 997 225 972 q 178 1058 178 1022 q 201 1119 178 1094 q 263 1143 225 1143 q 324 1119 300 1143 q 349 1058 349 1094 q 324 997 349 1022 q 263 972 300 972 m 571 972 q 509 997 533 972 q 485 1058 485 1022 q 509 1119 485 1094 q 571 1143 533 1143 q 632 1119 608 1143 q 656 1058 656 1094 q 632 997 656 1022 q 571 972 608 972 m 207 1211 l 207 1307 l 626 1307 l 626 1211 l 207 1211 z "},"Ǘ":{"ha":833,"x_min":89,"x_max":744,"o":"m 419 -17 q 274 8 336 -17 q 172 78 213 32 q 110 192 131 125 q 89 349 89 260 l 89 906 l 293 906 l 293 328 q 307 236 293 274 q 349 179 321 199 q 419 160 376 160 q 491 179 463 160 q 533 236 519 199 q 547 328 547 274 l 547 906 l 744 906 l 744 349 q 725 192 744 260 q 665 78 706 125 q 563 8 624 32 q 419 -17 501 -17 m 263 972 q 201 997 225 972 q 178 1058 178 1022 q 201 1119 178 1094 q 263 1143 225 1143 q 324 1119 300 1143 q 349 1058 349 1094 q 324 997 349 1022 q 263 972 300 972 m 571 972 q 509 997 533 972 q 485 1058 485 1022 q 509 1119 485 1094 q 571 1143 533 1143 q 632 1119 608 1143 q 656 1058 656 1094 q 632 997 656 1022 q 571 972 608 972 m 428 1146 l 340 1200 l 472 1401 l 600 1322 l 428 1146 z "},"Ǚ":{"ha":833,"x_min":89,"x_max":744,"o":"m 419 -17 q 274 8 336 -17 q 172 78 213 32 q 110 192 131 125 q 89 349 89 260 l 89 906 l 293 906 l 293 328 q 307 236 293 274 q 349 179 321 199 q 419 160 376 160 q 491 179 463 160 q 533 236 519 199 q 547 328 547 274 l 547 906 l 744 906 l 744 349 q 725 192 744 260 q 665 78 706 125 q 563 8 624 32 q 419 -17 501 -17 m 263 972 q 201 997 225 972 q 178 1058 178 1022 q 201 1119 178 1094 q 263 1143 225 1143 q 324 1119 300 1143 q 349 1058 349 1094 q 324 997 349 1022 q 263 972 300 972 m 571 972 q 509 997 533 972 q 485 1058 485 1022 q 509 1119 485 1094 q 571 1143 533 1143 q 632 1119 608 1143 q 656 1058 656 1094 q 632 997 656 1022 q 571 972 608 972 m 329 1186 l 201 1328 l 283 1382 l 414 1281 l 419 1281 l 550 1382 l 632 1328 l 504 1186 l 329 1186 z "},"Ǜ":{"ha":833,"x_min":89,"x_max":744,"o":"m 419 -17 q 274 8 336 -17 q 172 78 213 32 q 110 192 131 125 q 89 349 89 260 l 89 906 l 293 906 l 293 328 q 307 236 293 274 q 349 179 321 199 q 419 160 376 160 q 491 179 463 160 q 533 236 519 199 q 547 328 547 274 l 547 906 l 744 906 l 744 349 q 725 192 744 260 q 665 78 706 125 q 563 8 624 32 q 419 -17 501 -17 m 263 972 q 201 997 225 972 q 178 1058 178 1022 q 201 1119 178 1094 q 263 1143 225 1143 q 324 1119 300 1143 q 349 1058 349 1094 q 324 997 349 1022 q 263 972 300 972 m 571 972 q 509 997 533 972 q 485 1058 485 1022 q 509 1119 485 1094 q 571 1143 533 1143 q 632 1119 608 1143 q 656 1058 656 1094 q 632 997 656 1022 q 571 972 608 972 m 406 1146 l 233 1322 l 361 1401 l 493 1200 l 406 1146 z "},"Ụ":{"ha":833,"x_min":89,"x_max":744,"o":"m 419 -17 q 274 8 336 -17 q 172 78 213 32 q 110 192 131 125 q 89 349 89 260 l 89 906 l 293 906 l 293 328 q 307 236 293 274 q 349 179 321 199 q 419 160 376 160 q 491 179 463 160 q 533 236 519 199 q 547 328 547 274 l 547 906 l 744 906 l 744 349 q 725 192 744 260 q 665 78 706 125 q 563 8 624 32 q 419 -17 501 -17 z "},"Ủ":{"ha":833,"x_min":89,"x_max":744,"o":"m 419 -17 q 274 8 336 -17 q 172 78 213 32 q 110 192 131 125 q 89 349 89 260 l 89 906 l 293 906 l 293 328 q 307 236 293 274 q 349 179 321 199 q 419 160 376 160 q 491 179 463 160 q 533 236 519 199 q 547 328 547 274 l 547 906 l 744 906 l 744 349 q 725 192 744 260 q 665 78 706 125 q 563 8 624 32 q 419 -17 501 -17 m 357 960 l 340 1040 q 385 1053 367 1044 q 403 1082 403 1063 q 378 1113 403 1101 q 292 1129 353 1125 l 315 1231 q 453 1213 401 1229 q 527 1168 504 1196 q 550 1104 550 1140 q 523 1026 550 1057 q 452 980 496 996 q 357 960 408 964 z "},"Ư":{"ha":833,"x_min":89,"x_max":917,"o":"m 744 831 l 644 906 q 694 915 671 907 q 731 944 717 922 q 746 1007 746 965 q 739 1058 746 1035 q 725 1097 732 1082 l 876 1158 q 904 1100 892 1136 q 917 1022 917 1064 q 897 926 917 965 q 838 864 876 888 q 744 831 799 840 m 419 -17 q 274 8 336 -17 q 172 78 213 32 q 110 192 131 125 q 89 349 89 260 l 89 906 l 293 906 l 293 328 q 307 236 293 274 q 349 179 321 199 q 419 160 376 160 q 491 179 463 160 q 533 236 519 199 q 547 328 547 274 l 547 906 l 744 906 l 744 349 q 725 192 744 260 q 665 78 706 125 q 563 8 624 32 q 419 -17 501 -17 z "},"Ứ":{"ha":833,"x_min":89,"x_max":917,"o":"m 744 831 l 644 906 q 694 915 671 907 q 731 944 717 922 q 746 1007 746 965 q 739 1058 746 1035 q 725 1097 732 1082 l 876 1158 q 904 1100 892 1136 q 917 1022 917 1064 q 897 926 917 965 q 838 864 876 888 q 744 831 799 840 m 419 -17 q 274 8 336 -17 q 172 78 213 32 q 110 192 131 125 q 89 349 89 260 l 89 906 l 293 906 l 293 328 q 307 236 293 274 q 349 179 321 199 q 419 160 376 160 q 491 179 463 160 q 533 236 519 199 q 547 328 547 274 l 547 906 l 744 906 l 744 349 q 725 192 744 260 q 665 78 706 125 q 563 8 624 32 q 419 -17 501 -17 m 365 944 l 275 1047 l 513 1242 l 621 1110 l 365 944 z "},"Ừ":{"ha":833,"x_min":89,"x_max":917,"o":"m 744 831 l 644 906 q 694 915 671 907 q 731 944 717 922 q 746 1007 746 965 q 739 1058 746 1035 q 725 1097 732 1082 l 876 1158 q 904 1100 892 1136 q 917 1022 917 1064 q 897 926 917 965 q 838 864 876 888 q 744 831 799 840 m 419 -17 q 274 8 336 -17 q 172 78 213 32 q 110 192 131 125 q 89 349 89 260 l 89 906 l 293 906 l 293 328 q 307 236 293 274 q 349 179 321 199 q 419 160 376 160 q 491 179 463 160 q 533 236 519 199 q 547 328 547 274 l 547 906 l 744 906 l 744 349 q 725 192 744 260 q 665 78 706 125 q 563 8 624 32 q 419 -17 501 -17 m 468 944 l 213 1110 l 321 1242 l 558 1047 l 468 944 z "},"Ử":{"ha":833,"x_min":89,"x_max":917,"o":"m 744 831 l 644 906 q 694 915 671 907 q 731 944 717 922 q 746 1007 746 965 q 739 1058 746 1035 q 725 1097 732 1082 l 876 1158 q 904 1100 892 1136 q 917 1022 917 1064 q 897 926 917 965 q 838 864 876 888 q 744 831 799 840 m 419 -17 q 274 8 336 -17 q 172 78 213 32 q 110 192 131 125 q 89 349 89 260 l 89 906 l 293 906 l 293 328 q 307 236 293 274 q 349 179 321 199 q 419 160 376 160 q 491 179 463 160 q 533 236 519 199 q 547 328 547 274 l 547 906 l 744 906 l 744 349 q 725 192 744 260 q 665 78 706 125 q 563 8 624 32 q 419 -17 501 -17 m 357 960 l 340 1040 q 385 1053 367 1044 q 403 1082 403 1063 q 378 1113 403 1101 q 292 1129 353 1125 l 315 1231 q 453 1213 401 1229 q 527 1168 504 1196 q 550 1104 550 1140 q 523 1026 550 1057 q 452 980 496 996 q 357 960 408 964 z "},"Ữ":{"ha":833,"x_min":89,"x_max":917,"o":"m 744 831 l 644 906 q 694 915 671 907 q 731 944 717 922 q 746 1007 746 965 q 739 1058 746 1035 q 725 1097 732 1082 l 876 1158 q 904 1100 892 1136 q 917 1022 917 1064 q 897 926 917 965 q 838 864 876 888 q 744 831 799 840 m 419 -17 q 274 8 336 -17 q 172 78 213 32 q 110 192 131 125 q 89 349 89 260 l 89 906 l 293 906 l 293 328 q 307 236 293 274 q 349 179 321 199 q 419 160 376 160 q 491 179 463 160 q 533 236 519 199 q 547 328 547 274 l 547 906 l 744 906 l 744 349 q 725 192 744 260 q 665 78 706 125 q 563 8 624 32 q 419 -17 501 -17 m 515 961 q 451 974 479 961 q 400 1001 422 986 q 360 1029 378 1017 q 325 1042 342 1042 q 292 1027 306 1042 q 274 974 278 1013 l 142 983 q 197 1136 149 1089 q 318 1183 244 1183 q 383 1171 354 1183 q 433 1143 411 1158 q 474 1115 456 1128 q 508 1103 492 1103 q 542 1118 528 1103 q 560 1171 556 1133 l 692 1161 q 638 1009 686 1057 q 515 961 589 961 z "},"Ự":{"ha":833,"x_min":89,"x_max":917,"o":"m 744 831 l 644 906 q 694 915 671 907 q 731 944 717 922 q 746 1007 746 965 q 739 1058 746 1035 q 725 1097 732 1082 l 876 1158 q 904 1100 892 1136 q 917 1022 917 1064 q 897 926 917 965 q 838 864 876 888 q 744 831 799 840 m 419 -17 q 274 8 336 -17 q 172 78 213 32 q 110 192 131 125 q 89 349 89 260 l 89 906 l 293 906 l 293 328 q 307 236 293 274 q 349 179 321 199 q 419 160 376 160 q 491 179 463 160 q 533 236 519 199 q 547 328 547 274 l 547 906 l 744 906 l 744 349 q 725 192 744 260 q 665 78 706 125 q 563 8 624 32 q 419 -17 501 -17 z "},"Ṿ":{"ha":833,"x_min":21,"x_max":813,"o":"m 294 0 l 21 906 l 238 906 l 346 483 q 383 338 367 408 q 418 193 399 268 l 424 193 q 462 338 446 268 q 497 483 478 408 l 604 906 l 813 906 l 540 0 l 294 0 z "},"Ẁ":{"ha":833,"x_min":6,"x_max":828,"o":"m 126 0 l 6 906 l 218 906 l 246 424 q 247 348 246 385 q 249 274 249 311 q 250 196 250 238 l 256 196 q 269 274 261 238 q 285 349 276 311 q 300 424 293 386 l 361 676 l 492 676 l 549 424 q 564 350 557 386 q 579 276 571 314 q 593 196 588 238 l 599 196 q 601 276 600 238 q 602 350 601 314 q 604 424 603 386 l 629 906 l 828 906 l 717 0 l 497 0 l 444 281 q 429 368 436 324 q 419 453 422 413 l 415 453 q 406 368 411 413 q 392 281 400 324 l 339 0 l 126 0 m 468 944 l 213 1110 l 321 1242 l 558 1047 l 468 944 z "},"Ẃ":{"ha":833,"x_min":6,"x_max":828,"o":"m 126 0 l 6 906 l 218 906 l 246 424 q 247 348 246 385 q 249 274 249 311 q 250 196 250 238 l 256 196 q 269 274 261 238 q 285 349 276 311 q 300 424 293 386 l 361 676 l 492 676 l 549 424 q 564 350 557 386 q 579 276 571 314 q 593 196 588 238 l 599 196 q 601 276 600 238 q 602 350 601 314 q 604 424 603 386 l 629 906 l 828 906 l 717 0 l 497 0 l 444 281 q 429 368 436 324 q 419 453 422 413 l 415 453 q 406 368 411 413 q 392 281 400 324 l 339 0 l 126 0 m 365 944 l 275 1047 l 513 1242 l 621 1110 l 365 944 z "},"Ŵ":{"ha":833,"x_min":6,"x_max":828,"o":"m 126 0 l 6 906 l 218 906 l 246 424 q 247 348 246 385 q 249 274 249 311 q 250 196 250 238 l 256 196 q 269 274 261 238 q 285 349 276 311 q 300 424 293 386 l 361 676 l 492 676 l 549 424 q 564 350 557 386 q 579 276 571 314 q 593 196 588 238 l 599 196 q 601 276 600 238 q 602 350 601 314 q 604 424 603 386 l 629 906 l 828 906 l 717 0 l 497 0 l 444 281 q 429 368 436 324 q 419 453 422 413 l 415 453 q 406 368 411 413 q 392 281 400 324 l 339 0 l 126 0 m 269 951 l 181 1006 l 306 1160 l 528 1160 l 653 1006 l 564 951 l 419 1068 l 414 1068 l 269 951 z "},"Ẅ":{"ha":833,"x_min":6,"x_max":828,"o":"m 126 0 l 6 906 l 218 906 l 246 424 q 247 348 246 385 q 249 274 249 311 q 250 196 250 238 l 256 196 q 269 274 261 238 q 285 349 276 311 q 300 424 293 386 l 361 676 l 492 676 l 549 424 q 564 350 557 386 q 579 276 571 314 q 593 196 588 238 l 599 196 q 601 276 600 238 q 602 350 601 314 q 604 424 603 386 l 629 906 l 828 906 l 717 0 l 497 0 l 444 281 q 429 368 436 324 q 419 453 422 413 l 415 453 q 406 368 411 413 q 392 281 400 324 l 339 0 l 126 0 m 263 972 q 190 1002 218 972 q 161 1075 161 1032 q 190 1147 161 1118 q 263 1175 218 1175 q 336 1147 307 1175 q 365 1075 365 1118 q 336 1002 365 1032 q 263 972 307 972 m 571 972 q 497 1002 526 972 q 468 1075 468 1032 q 497 1147 468 1118 q 571 1175 526 1175 q 644 1147 615 1175 q 672 1075 672 1118 q 644 1002 672 1032 q 571 972 615 972 z "},"Ỳ":{"ha":833,"x_min":22,"x_max":811,"o":"m 314 0 l 314 306 l 22 906 l 242 906 l 333 688 q 374 585 354 636 q 415 481 394 535 l 421 481 q 465 585 443 535 q 506 688 486 636 l 597 906 l 811 906 l 519 306 l 519 0 l 314 0 m 468 944 l 213 1110 l 321 1242 l 558 1047 l 468 944 z "},"Ý":{"ha":833,"x_min":22,"x_max":811,"o":"m 314 0 l 314 306 l 22 906 l 242 906 l 333 688 q 374 585 354 636 q 415 481 394 535 l 421 481 q 465 585 443 535 q 506 688 486 636 l 597 906 l 811 906 l 519 306 l 519 0 l 314 0 m 365 944 l 275 1047 l 513 1242 l 621 1110 l 365 944 z "},"Ŷ":{"ha":833,"x_min":22,"x_max":811,"o":"m 314 0 l 314 306 l 22 906 l 242 906 l 333 688 q 374 585 354 636 q 415 481 394 535 l 421 481 q 465 585 443 535 q 506 688 486 636 l 597 906 l 811 906 l 519 306 l 519 0 l 314 0 m 269 951 l 181 1006 l 306 1160 l 528 1160 l 653 1006 l 564 951 l 419 1068 l 414 1068 l 269 951 z "},"Ÿ":{"ha":833,"x_min":22,"x_max":811,"o":"m 314 0 l 314 306 l 22 906 l 242 906 l 333 688 q 374 585 354 636 q 415 481 394 535 l 421 481 q 465 585 443 535 q 506 688 486 636 l 597 906 l 811 906 l 519 306 l 519 0 l 314 0 m 263 972 q 190 1002 218 972 q 161 1075 161 1032 q 190 1147 161 1118 q 263 1175 218 1175 q 336 1147 307 1175 q 365 1075 365 1118 q 336 1002 365 1032 q 263 972 307 972 m 571 972 q 497 1002 526 972 q 468 1075 468 1032 q 497 1147 468 1118 q 571 1175 526 1175 q 644 1147 615 1175 q 672 1075 672 1118 q 644 1002 672 1032 q 571 972 615 972 z "},"Ẏ":{"ha":833,"x_min":22,"x_max":811,"o":"m 314 0 l 314 306 l 22 906 l 242 906 l 333 688 q 374 585 354 636 q 415 481 394 535 l 421 481 q 465 585 443 535 q 506 688 486 636 l 597 906 l 811 906 l 519 306 l 519 0 l 314 0 m 417 974 q 327 1006 363 974 q 292 1090 292 1038 q 327 1174 292 1142 q 417 1206 363 1206 q 507 1174 472 1206 q 542 1090 542 1142 q 507 1006 542 1038 q 417 974 472 974 z "},"Ỵ":{"ha":833,"x_min":22,"x_max":811,"o":"m 314 0 l 314 306 l 22 906 l 242 906 l 333 688 q 374 585 354 636 q 415 481 394 535 l 421 481 q 465 585 443 535 q 506 688 486 636 l 597 906 l 811 906 l 519 306 l 519 0 l 314 0 z "},"Ỷ":{"ha":833,"x_min":22,"x_max":811,"o":"m 314 0 l 314 306 l 22 906 l 242 906 l 333 688 q 374 585 354 636 q 415 481 394 535 l 421 481 q 465 585 443 535 q 506 688 486 636 l 597 906 l 811 906 l 519 306 l 519 0 l 314 0 m 357 960 l 340 1040 q 385 1053 367 1044 q 403 1082 403 1063 q 378 1113 403 1101 q 292 1129 353 1125 l 315 1231 q 453 1213 401 1229 q 527 1168 504 1196 q 550 1104 550 1140 q 523 1026 550 1057 q 452 980 496 996 q 357 960 408 964 z "},"Ỹ":{"ha":833,"x_min":22,"x_max":811,"o":"m 314 0 l 314 306 l 22 906 l 242 906 l 333 688 q 374 585 354 636 q 415 481 394 535 l 421 481 q 465 585 443 535 q 506 688 486 636 l 597 906 l 811 906 l 519 306 l 519 0 l 314 0 m 515 961 q 451 974 479 961 q 400 1001 422 986 q 360 1029 378 1017 q 325 1042 342 1042 q 292 1027 306 1042 q 274 974 278 1013 l 142 983 q 197 1136 149 1089 q 318 1183 244 1183 q 383 1171 354 1183 q 433 1143 411 1158 q 474 1115 456 1128 q 508 1103 492 1103 q 542 1118 528 1103 q 560 1171 556 1133 l 692 1161 q 638 1009 686 1057 q 515 961 589 961 z "},"Ź":{"ha":833,"x_min":78,"x_max":760,"o":"m 78 0 l 78 124 l 501 735 l 118 735 l 118 906 l 754 906 l 754 782 l 331 172 l 760 172 l 760 0 l 78 0 m 392 944 l 301 1047 l 539 1242 l 647 1110 l 392 944 z "},"Ž":{"ha":833,"x_min":78,"x_max":760,"o":"m 78 0 l 78 124 l 501 735 l 118 735 l 118 906 l 754 906 l 754 782 l 331 172 l 760 172 l 760 0 l 78 0 m 332 975 l 207 1128 l 296 1183 l 440 1067 l 446 1067 l 590 1183 l 679 1128 l 554 975 l 332 975 z "},"Ż":{"ha":833,"x_min":78,"x_max":760,"o":"m 78 0 l 78 124 l 501 735 l 118 735 l 118 906 l 754 906 l 754 782 l 331 172 l 760 172 l 760 0 l 78 0 m 443 974 q 353 1006 389 974 q 318 1090 318 1038 q 353 1174 318 1142 q 443 1206 389 1206 q 533 1174 499 1206 q 568 1090 568 1142 q 533 1006 568 1038 q 443 974 499 974 z "},"Ẑ":{"ha":833,"x_min":78,"x_max":760,"o":"m 78 0 l 78 124 l 501 735 l 118 735 l 118 906 l 754 906 l 754 782 l 331 172 l 760 172 l 760 0 l 78 0 m 296 951 l 207 1006 l 332 1160 l 554 1160 l 679 1006 l 590 951 l 446 1068 l 440 1068 l 296 951 z "},"Ẓ":{"ha":833,"x_min":78,"x_max":760,"o":"m 78 0 l 78 124 l 501 735 l 118 735 l 118 906 l 754 906 l 754 782 l 331 172 l 760 172 l 760 0 l 78 0 z "},"Ẕ":{"ha":833,"x_min":78,"x_max":760,"o":"m 78 0 l 78 124 l 501 735 l 118 735 l 118 906 l 754 906 l 754 782 l 331 172 l 760 172 l 760 0 l 78 0 z "},"Ð":{"ha":833,"x_min":0,"x_max":783,"o":"m 97 0 l 97 414 l 0 414 l 0 510 l 97 518 l 97 906 l 349 906 q 577 858 479 906 q 729 712 675 811 q 783 457 783 613 q 729 200 783 301 q 580 49 675 99 q 360 0 485 0 l 97 0 m 303 165 l 336 165 q 460 193 407 165 q 543 285 513 221 q 574 457 574 349 q 543 627 574 565 q 460 715 513 689 q 336 740 407 740 l 303 740 l 303 518 l 453 518 l 453 414 l 303 414 l 303 165 z "},"Þ":{"ha":833,"x_min":101,"x_max":786,"o":"m 101 0 l 101 906 l 306 906 l 306 768 l 432 768 q 610 741 531 768 q 738 651 690 714 q 786 478 786 588 q 738 303 786 371 q 608 203 689 236 q 432 171 528 171 l 306 171 l 306 0 l 101 0 m 306 333 l 419 333 q 544 370 504 333 q 585 478 585 407 q 543 577 585 549 q 419 606 501 606 l 306 606 l 306 333 z "},"Ə":{"ha":833,"x_min":69,"x_max":778,"o":"m 421 -17 q 238 39 318 -17 q 114 199 158 94 q 69 449 69 303 q 71 482 69 465 q 74 517 72 499 l 626 517 l 626 367 l 239 367 l 267 454 q 286 276 267 340 q 340 186 306 213 q 421 160 375 160 q 500 186 465 160 q 555 276 535 213 q 575 454 575 340 q 556 620 575 556 q 497 715 536 685 q 400 746 457 746 q 314 727 351 746 q 249 681 276 708 l 154 821 q 266 894 201 865 q 417 922 331 922 q 606 867 525 922 q 733 707 688 811 q 778 454 778 603 q 732 201 778 307 q 606 40 686 96 q 421 -17 525 -17 z "},"Ŋ":{"ha":833,"x_min":90,"x_max":772,"o":"m 501 -17 q 440 -11 472 -17 q 388 7 407 -6 l 432 185 q 451 177 440 181 q 478 174 463 174 q 524 197 506 174 q 553 281 543 219 q 563 460 563 343 q 547 628 563 565 q 504 718 532 690 q 436 746 476 746 q 388 734 413 746 q 339 699 363 722 q 296 643 315 676 l 296 0 l 90 0 l 90 906 l 289 906 l 289 819 q 348 876 317 853 q 414 910 379 899 q 489 922 449 922 q 633 877 569 922 q 735 731 697 832 q 772 460 772 629 q 745 194 772 300 q 660 35 718 88 q 501 -17 601 -17 z "},"Ĳ":{"ha":833,"x_min":103,"x_max":731,"o":"m 103 0 l 103 906 l 308 906 l 308 0 l 103 0 m 476 -253 q 400 -246 431 -253 q 346 -231 369 -239 l 382 -79 q 415 -88 399 -85 q 444 -92 431 -92 q 508 -65 490 -92 q 525 19 525 -37 l 525 906 l 731 906 l 731 25 q 708 -113 731 -50 q 629 -215 685 -176 q 476 -253 574 -253 z "},"à":{"ha":833,"x_min":85,"x_max":743,"o":"m 311 -17 q 191 11 242 -17 q 113 86 140 39 q 85 192 85 133 q 190 368 85 307 q 539 443 294 429 q 518 497 535 475 q 470 531 501 519 q 392 543 439 543 q 325 535 358 543 q 256 513 292 528 q 182 479 221 499 l 110 613 q 209 661 157 640 q 317 694 261 682 q 432 706 374 706 q 599 672 529 706 q 706 569 668 638 q 743 394 743 500 l 743 0 l 576 0 l 561 78 l 556 78 q 442 11 504 39 q 311 -17 379 -17 m 376 142 q 463 160 422 142 q 539 207 503 179 l 539 321 q 381 300 438 315 q 303 261 325 285 q 281 207 281 238 q 292 171 281 186 q 326 149 304 156 q 376 142 347 142 m 453 779 l 201 996 l 340 1132 l 553 879 l 453 779 z "},"á":{"ha":833,"x_min":85,"x_max":743,"o":"m 311 -17 q 191 11 242 -17 q 113 86 140 39 q 85 192 85 133 q 190 368 85 307 q 539 443 294 429 q 518 497 535 475 q 470 531 501 519 q 392 543 439 543 q 325 535 358 543 q 256 513 292 528 q 182 479 221 499 l 110 613 q 209 661 157 640 q 317 694 261 682 q 432 706 374 706 q 599 672 529 706 q 706 569 668 638 q 743 394 743 500 l 743 0 l 576 0 l 561 78 l 556 78 q 442 11 504 39 q 311 -17 379 -17 m 376 142 q 463 160 422 142 q 539 207 503 179 l 539 321 q 381 300 438 315 q 303 261 325 285 q 281 207 281 238 q 292 171 281 186 q 326 149 304 156 q 376 142 347 142 m 436 779 l 336 879 l 549 1132 l 688 996 l 436 779 z "},"â":{"ha":833,"x_min":85,"x_max":743,"o":"m 311 -17 q 191 11 242 -17 q 113 86 140 39 q 85 192 85 133 q 190 368 85 307 q 539 443 294 429 q 518 497 535 475 q 470 531 501 519 q 392 543 439 543 q 325 535 358 543 q 256 513 292 528 q 182 479 221 499 l 110 613 q 209 661 157 640 q 317 694 261 682 q 432 706 374 706 q 599 672 529 706 q 706 569 668 638 q 743 394 743 500 l 743 0 l 576 0 l 561 78 l 556 78 q 442 11 504 39 q 311 -17 379 -17 m 376 142 q 463 160 422 142 q 539 207 503 179 l 539 321 q 381 300 438 315 q 303 261 325 285 q 281 207 281 238 q 292 171 281 186 q 326 149 304 156 q 376 142 347 142 m 268 779 l 190 851 l 340 1033 l 549 1033 l 699 851 l 621 779 l 447 907 l 442 907 l 268 779 z "},"ã":{"ha":833,"x_min":85,"x_max":743,"o":"m 311 -17 q 191 11 242 -17 q 113 86 140 39 q 85 192 85 133 q 190 368 85 307 q 539 443 294 429 q 518 497 535 475 q 470 531 501 519 q 392 543 439 543 q 325 535 358 543 q 256 513 292 528 q 182 479 221 499 l 110 613 q 209 661 157 640 q 317 694 261 682 q 432 706 374 706 q 599 672 529 706 q 706 569 668 638 q 743 394 743 500 l 743 0 l 576 0 l 561 78 l 556 78 q 442 11 504 39 q 311 -17 379 -17 m 376 142 q 463 160 422 142 q 539 207 503 179 l 539 321 q 381 300 438 315 q 303 261 325 285 q 281 207 281 238 q 292 171 281 186 q 326 149 304 156 q 376 142 347 142 m 536 796 q 478 810 504 796 q 430 841 451 824 q 391 872 408 858 q 357 885 374 885 q 324 867 336 885 q 308 808 313 849 l 181 815 q 203 934 183 888 q 261 1003 224 981 q 353 1026 299 1026 q 412 1013 386 1026 q 459 983 438 1000 q 498 951 481 965 q 532 938 515 938 q 565 956 553 938 q 581 1014 576 974 l 708 1007 q 685 889 706 936 q 628 819 665 842 q 536 796 590 796 z "},"ä":{"ha":833,"x_min":85,"x_max":743,"o":"m 311 -17 q 191 11 242 -17 q 113 86 140 39 q 85 192 85 133 q 190 368 85 307 q 539 443 294 429 q 518 497 535 475 q 470 531 501 519 q 392 543 439 543 q 325 535 358 543 q 256 513 292 528 q 182 479 221 499 l 110 613 q 209 661 157 640 q 317 694 261 682 q 432 706 374 706 q 599 672 529 706 q 706 569 668 638 q 743 394 743 500 l 743 0 l 576 0 l 561 78 l 556 78 q 442 11 504 39 q 311 -17 379 -17 m 376 142 q 463 160 422 142 q 539 207 503 179 l 539 321 q 381 300 438 315 q 303 261 325 285 q 281 207 281 238 q 292 171 281 186 q 326 149 304 156 q 376 142 347 142 m 290 793 q 210 826 242 793 q 179 904 179 858 q 210 984 179 951 q 290 1017 242 1017 q 371 984 340 1017 q 401 904 401 951 q 371 826 401 858 q 290 793 340 793 m 599 793 q 518 826 549 793 q 488 904 488 858 q 518 984 488 951 q 599 1017 549 1017 q 678 984 647 1017 q 710 904 710 951 q 678 826 710 858 q 599 793 647 793 z "},"ā":{"ha":833,"x_min":85,"x_max":743,"o":"m 311 -17 q 191 11 242 -17 q 113 86 140 39 q 85 192 85 133 q 190 368 85 307 q 539 443 294 429 q 518 497 535 475 q 470 531 501 519 q 392 543 439 543 q 325 535 358 543 q 256 513 292 528 q 182 479 221 499 l 110 613 q 209 661 157 640 q 317 694 261 682 q 432 706 374 706 q 599 672 529 706 q 706 569 668 638 q 743 394 743 500 l 743 0 l 576 0 l 561 78 l 556 78 q 442 11 504 39 q 311 -17 379 -17 m 376 142 q 463 160 422 142 q 539 207 503 179 l 539 321 q 381 300 438 315 q 303 261 325 285 q 281 207 281 238 q 292 171 281 186 q 326 149 304 156 q 376 142 347 142 m 239 822 l 239 951 l 650 951 l 650 822 l 239 822 z "},"ă":{"ha":833,"x_min":85,"x_max":743,"o":"m 311 -17 q 191 11 242 -17 q 113 86 140 39 q 85 192 85 133 q 190 368 85 307 q 539 443 294 429 q 518 497 535 475 q 470 531 501 519 q 392 543 439 543 q 325 535 358 543 q 256 513 292 528 q 182 479 221 499 l 110 613 q 209 661 157 640 q 317 694 261 682 q 432 706 374 706 q 599 672 529 706 q 706 569 668 638 q 743 394 743 500 l 743 0 l 576 0 l 561 78 l 556 78 q 442 11 504 39 q 311 -17 379 -17 m 376 142 q 463 160 422 142 q 539 207 503 179 l 539 321 q 381 300 438 315 q 303 261 325 285 q 281 207 281 238 q 292 171 281 186 q 326 149 304 156 q 376 142 347 142 m 444 794 q 314 824 365 794 q 237 902 263 853 q 210 1013 211 951 l 326 1032 q 344 976 331 1001 q 383 937 358 951 q 444 922 408 922 q 506 937 481 922 q 544 976 531 951 q 563 1032 558 1001 l 679 1013 q 652 902 678 951 q 576 824 626 853 q 444 794 525 794 z "},"å":{"ha":833,"x_min":85,"x_max":743,"o":"m 311 -17 q 191 11 242 -17 q 113 86 140 39 q 85 192 85 133 q 190 368 85 307 q 539 443 294 429 q 518 497 535 475 q 470 531 501 519 q 392 543 439 543 q 325 535 358 543 q 256 513 292 528 q 182 479 221 499 l 110 613 q 209 661 157 640 q 317 694 261 682 q 432 706 374 706 q 599 672 529 706 q 706 569 668 638 q 743 394 743 500 l 743 0 l 576 0 l 561 78 l 556 78 q 442 11 504 39 q 311 -17 379 -17 m 376 142 q 463 160 422 142 q 539 207 503 179 l 539 321 q 381 300 438 315 q 303 261 325 285 q 281 207 281 238 q 292 171 281 186 q 326 149 304 156 q 376 142 347 142 m 444 789 q 308 831 354 789 q 261 933 261 874 q 308 1035 261 993 q 444 1076 354 1076 q 582 1035 536 1076 q 628 933 628 993 q 582 831 628 874 q 444 789 536 789 m 444 865 q 487 885 469 865 q 504 933 504 904 q 487 981 504 963 q 444 1000 469 1000 q 402 981 419 1000 q 385 933 385 963 q 402 885 385 904 q 444 865 419 865 z "},"ǻ":{"ha":833,"x_min":85,"x_max":743,"o":"m 406 1019 l 319 1042 l 538 1219 l 619 1117 l 406 1019 m 311 -17 q 191 11 242 -17 q 113 86 140 39 q 85 192 85 133 q 190 368 85 307 q 539 443 294 429 q 518 497 535 475 q 470 531 501 519 q 392 543 439 543 q 325 535 358 543 q 256 513 292 528 q 182 479 221 499 l 110 613 q 209 661 157 640 q 317 694 261 682 q 432 706 374 706 q 599 672 529 706 q 706 569 668 638 q 743 394 743 500 l 743 0 l 576 0 l 561 78 l 556 78 q 442 11 504 39 q 311 -17 379 -17 m 376 142 q 463 160 422 142 q 539 207 503 179 l 539 321 q 381 300 438 315 q 303 261 325 285 q 281 207 281 238 q 292 171 281 186 q 326 149 304 156 q 376 142 347 142 m 444 789 q 308 831 354 789 q 261 933 261 874 q 308 1035 261 993 q 444 1076 354 1076 q 582 1035 536 1076 q 628 933 628 993 q 582 831 628 874 q 444 789 536 789 m 444 865 q 487 885 469 865 q 504 933 504 904 q 487 981 504 963 q 444 1000 469 1000 q 402 981 419 1000 q 385 933 385 963 q 402 885 385 904 q 444 865 419 865 z "},"ǎ":{"ha":833,"x_min":85,"x_max":743,"o":"m 311 -17 q 191 11 242 -17 q 113 86 140 39 q 85 192 85 133 q 190 368 85 307 q 539 443 294 429 q 518 497 535 475 q 470 531 501 519 q 392 543 439 543 q 325 535 358 543 q 256 513 292 528 q 182 479 221 499 l 110 613 q 209 661 157 640 q 317 694 261 682 q 432 706 374 706 q 599 672 529 706 q 706 569 668 638 q 743 394 743 500 l 743 0 l 576 0 l 561 78 l 556 78 q 442 11 504 39 q 311 -17 379 -17 m 376 142 q 463 160 422 142 q 539 207 503 179 l 539 321 q 381 300 438 315 q 303 261 325 285 q 281 207 281 238 q 292 171 281 186 q 326 149 304 156 q 376 142 347 142 m 340 801 l 190 983 l 268 1056 l 442 928 l 447 928 l 621 1056 l 699 983 l 549 801 l 340 801 z "},"ą":{"ha":833,"x_min":85,"x_max":775,"o":"m 619 -315 q 505 -281 553 -315 q 457 -178 457 -246 q 476 -100 457 -133 q 524 -42 494 -67 q 578 -3 553 -17 l 561 78 l 556 78 q 442 11 504 39 q 311 -17 379 -17 q 191 11 242 -17 q 113 86 140 39 q 85 192 85 133 q 190 368 85 307 q 539 443 294 429 q 518 497 535 475 q 470 531 501 519 q 392 543 439 543 q 325 535 358 543 q 256 513 292 528 q 182 479 221 499 l 110 613 q 209 661 157 640 q 317 694 261 682 q 432 706 374 706 q 599 672 529 706 q 706 569 668 638 q 743 394 743 500 l 743 0 q 629 -59 664 -22 q 594 -131 594 -96 q 617 -179 594 -164 q 668 -194 640 -194 q 704 -188 686 -194 q 732 -175 722 -182 l 775 -265 q 703 -302 747 -289 q 619 -315 658 -315 m 376 142 q 463 160 422 142 q 539 207 503 179 l 539 321 q 381 300 438 315 q 303 261 325 285 q 281 207 281 238 q 292 171 281 186 q 326 149 304 156 q 376 142 347 142 z "},"ạ":{"ha":833,"x_min":85,"x_max":743,"o":"m 311 -17 q 191 11 242 -17 q 113 86 140 39 q 85 192 85 133 q 190 368 85 307 q 539 443 294 429 q 518 497 535 475 q 470 531 501 519 q 392 543 439 543 q 325 535 358 543 q 256 513 292 528 q 182 479 221 499 l 110 613 q 209 661 157 640 q 317 694 261 682 q 432 706 374 706 q 599 672 529 706 q 706 569 668 638 q 743 394 743 500 l 743 0 l 576 0 l 561 78 l 556 78 q 442 11 504 39 q 311 -17 379 -17 m 376 142 q 463 160 422 142 q 539 207 503 179 l 539 321 q 381 300 438 315 q 303 261 325 285 q 281 207 281 238 q 292 171 281 186 q 326 149 304 156 q 376 142 347 142 z "},"ả":{"ha":833,"x_min":85,"x_max":743,"o":"m 311 -17 q 191 11 242 -17 q 113 86 140 39 q 85 192 85 133 q 190 368 85 307 q 539 443 294 429 q 518 497 535 475 q 470 531 501 519 q 392 543 439 543 q 325 535 358 543 q 256 513 292 528 q 182 479 221 499 l 110 613 q 209 661 157 640 q 317 694 261 682 q 432 706 374 706 q 599 672 529 706 q 706 569 668 638 q 743 394 743 500 l 743 0 l 576 0 l 561 78 l 556 78 q 442 11 504 39 q 311 -17 379 -17 m 376 142 q 463 160 422 142 q 539 207 503 179 l 539 321 q 381 300 438 315 q 303 261 325 285 q 281 207 281 238 q 292 171 281 186 q 326 149 304 156 q 376 142 347 142 m 385 789 l 368 869 q 413 885 394 875 q 431 918 431 896 q 406 958 431 944 q 319 976 381 972 l 332 1101 q 477 1078 422 1100 q 556 1019 532 1056 q 579 933 579 982 q 552 856 579 886 q 481 809 525 825 q 385 789 436 793 z "},"ấ":{"ha":833,"x_min":85,"x_max":829,"o":"m 311 -17 q 191 11 242 -17 q 113 86 140 39 q 85 192 85 133 q 190 368 85 307 q 539 443 294 429 q 518 497 535 475 q 470 531 501 519 q 392 543 439 543 q 325 535 358 543 q 256 513 292 528 q 182 479 221 499 l 110 613 q 209 661 157 640 q 317 694 261 682 q 432 706 374 706 q 599 672 529 706 q 706 569 668 638 q 743 394 743 500 l 743 0 l 576 0 l 561 78 l 556 78 q 442 11 504 39 q 311 -17 379 -17 m 376 142 q 463 160 422 142 q 539 207 503 179 l 539 321 q 381 300 438 315 q 303 261 325 285 q 281 207 281 238 q 292 171 281 186 q 326 149 304 156 q 376 142 347 142 m 300 786 l 235 858 l 364 986 l 525 986 l 654 858 l 589 786 l 447 876 l 442 876 l 300 786 m 689 886 l 611 947 l 721 1124 l 829 1053 l 689 886 z "},"ầ":{"ha":833,"x_min":54,"x_max":743,"o":"m 311 -17 q 191 11 242 -17 q 113 86 140 39 q 85 192 85 133 q 190 368 85 307 q 539 443 294 429 q 518 497 535 475 q 470 531 501 519 q 392 543 439 543 q 325 535 358 543 q 256 513 292 528 q 182 479 221 499 l 110 613 q 209 661 157 640 q 317 694 261 682 q 432 706 374 706 q 599 672 529 706 q 706 569 668 638 q 743 394 743 500 l 743 0 l 576 0 l 561 78 l 556 78 q 442 11 504 39 q 311 -17 379 -17 m 376 142 q 463 160 422 142 q 539 207 503 179 l 539 321 q 381 300 438 315 q 303 261 325 285 q 281 207 281 238 q 292 171 281 186 q 326 149 304 156 q 376 142 347 142 m 300 786 l 235 858 l 364 986 l 525 986 l 654 858 l 589 786 l 447 876 l 442 876 l 300 786 m 200 886 l 54 1051 l 163 1124 l 278 947 l 200 886 z "},"ẩ":{"ha":833,"x_min":85,"x_max":797,"o":"m 311 -17 q 191 11 242 -17 q 113 86 140 39 q 85 192 85 133 q 190 368 85 307 q 539 443 294 429 q 518 497 535 475 q 470 531 501 519 q 392 543 439 543 q 325 535 358 543 q 256 513 292 528 q 182 479 221 499 l 110 613 q 209 661 157 640 q 317 694 261 682 q 432 706 374 706 q 599 672 529 706 q 706 569 668 638 q 743 394 743 500 l 743 0 l 576 0 l 561 78 l 556 78 q 442 11 504 39 q 311 -17 379 -17 m 376 142 q 463 160 422 142 q 539 207 503 179 l 539 321 q 381 300 438 315 q 303 261 325 285 q 281 207 281 238 q 292 171 281 186 q 326 149 304 156 q 376 142 347 142 m 300 786 l 235 858 l 364 986 l 525 986 l 654 858 l 589 786 l 447 876 l 442 876 l 300 786 m 636 894 l 622 964 q 653 978 642 969 q 664 1004 664 986 q 645 1035 664 1024 q 574 1050 626 1046 l 593 1136 q 752 1103 707 1132 q 797 1025 797 1074 q 775 954 797 981 q 716 915 753 928 q 636 894 679 901 z "},"ẫ":{"ha":833,"x_min":85,"x_max":743,"o":"m 311 -17 q 191 11 242 -17 q 113 86 140 39 q 85 192 85 133 q 190 368 85 307 q 539 443 294 429 q 518 497 535 475 q 470 531 501 519 q 392 543 439 543 q 325 535 358 543 q 256 513 292 528 q 182 479 221 499 l 110 613 q 209 661 157 640 q 317 694 261 682 q 432 706 374 706 q 599 672 529 706 q 706 569 668 638 q 743 394 743 500 l 743 0 l 576 0 l 561 78 l 556 78 q 442 11 504 39 q 311 -17 379 -17 m 376 142 q 463 160 422 142 q 539 207 503 179 l 539 321 q 381 300 438 315 q 303 261 325 285 q 281 207 281 238 q 292 171 281 186 q 326 149 304 156 q 376 142 347 142 m 300 786 l 235 858 l 364 975 l 525 975 l 654 858 l 589 786 l 447 864 l 442 864 l 300 786 m 525 994 q 461 1009 488 994 q 415 1038 435 1024 q 375 1053 396 1053 q 349 1041 360 1053 q 332 1000 339 1029 l 239 1010 q 279 1127 247 1090 q 364 1164 311 1164 q 428 1149 401 1164 q 474 1120 454 1135 q 514 1106 493 1106 q 541 1119 531 1106 q 557 1158 551 1132 l 650 1149 q 610 1032 642 1069 q 525 994 578 994 z "},"ậ":{"ha":833,"x_min":85,"x_max":743,"o":"m 311 -17 q 191 11 242 -17 q 113 86 140 39 q 85 192 85 133 q 190 368 85 307 q 539 443 294 429 q 518 497 535 475 q 470 531 501 519 q 392 543 439 543 q 325 535 358 543 q 256 513 292 528 q 182 479 221 499 l 110 613 q 209 661 157 640 q 317 694 261 682 q 432 706 374 706 q 599 672 529 706 q 706 569 668 638 q 743 394 743 500 l 743 0 l 576 0 l 561 78 l 556 78 q 442 11 504 39 q 311 -17 379 -17 m 376 142 q 463 160 422 142 q 539 207 503 179 l 539 321 q 381 300 438 315 q 303 261 325 285 q 281 207 281 238 q 292 171 281 186 q 326 149 304 156 q 376 142 347 142 m 268 779 l 190 851 l 340 1033 l 549 1033 l 699 851 l 621 779 l 447 907 l 442 907 l 268 779 z "},"ắ":{"ha":833,"x_min":85,"x_max":743,"o":"m 311 -17 q 191 11 242 -17 q 113 86 140 39 q 85 192 85 133 q 190 368 85 307 q 539 443 294 429 q 518 497 535 475 q 470 531 501 519 q 392 543 439 543 q 325 535 358 543 q 256 513 292 528 q 182 479 221 499 l 110 613 q 209 661 157 640 q 317 694 261 682 q 432 706 374 706 q 599 672 529 706 q 706 569 668 638 q 743 394 743 500 l 743 0 l 576 0 l 561 78 l 556 78 q 442 11 504 39 q 311 -17 379 -17 m 376 142 q 463 160 422 142 q 539 207 503 179 l 539 321 q 381 300 438 315 q 303 261 325 285 q 281 207 281 238 q 292 171 281 186 q 326 149 304 156 q 376 142 347 142 m 444 794 q 314 824 365 794 q 237 902 263 853 q 210 1013 211 951 l 314 1032 q 335 971 319 999 q 377 926 350 943 q 444 910 404 910 q 512 926 485 910 q 554 971 539 943 q 575 1032 569 999 l 679 1013 q 652 902 678 951 q 576 824 626 853 q 444 794 525 794 m 457 971 l 368 1032 l 497 1228 l 618 1138 l 457 971 z "},"ằ":{"ha":833,"x_min":85,"x_max":743,"o":"m 311 -17 q 191 11 242 -17 q 113 86 140 39 q 85 192 85 133 q 190 368 85 307 q 539 443 294 429 q 518 497 535 475 q 470 531 501 519 q 392 543 439 543 q 325 535 358 543 q 256 513 292 528 q 182 479 221 499 l 110 613 q 209 661 157 640 q 317 694 261 682 q 432 706 374 706 q 599 672 529 706 q 706 569 668 638 q 743 394 743 500 l 743 0 l 576 0 l 561 78 l 556 78 q 442 11 504 39 q 311 -17 379 -17 m 376 142 q 463 160 422 142 q 539 207 503 179 l 539 321 q 381 300 438 315 q 303 261 325 285 q 281 207 281 238 q 292 171 281 186 q 326 149 304 156 q 376 142 347 142 m 444 794 q 314 824 365 794 q 237 902 263 853 q 210 1013 211 951 l 314 1032 q 335 971 319 999 q 377 926 350 943 q 444 910 404 910 q 512 926 485 910 q 554 971 539 943 q 575 1032 569 999 l 679 1013 q 652 902 678 951 q 576 824 626 853 q 444 794 525 794 m 432 971 l 271 1138 l 392 1228 l 521 1032 l 432 971 z "},"ẳ":{"ha":833,"x_min":85,"x_max":743,"o":"m 311 -17 q 191 11 242 -17 q 113 86 140 39 q 85 192 85 133 q 190 368 85 307 q 539 443 294 429 q 518 497 535 475 q 470 531 501 519 q 392 543 439 543 q 325 535 358 543 q 256 513 292 528 q 182 479 221 499 l 110 613 q 209 661 157 640 q 317 694 261 682 q 432 706 374 706 q 599 672 529 706 q 706 569 668 638 q 743 394 743 500 l 743 0 l 576 0 l 561 78 l 556 78 q 442 11 504 39 q 311 -17 379 -17 m 376 142 q 463 160 422 142 q 539 207 503 179 l 539 321 q 381 300 438 315 q 303 261 325 285 q 281 207 281 238 q 292 171 281 186 q 326 149 304 156 q 376 142 347 142 m 444 794 q 314 824 365 794 q 237 902 263 853 q 210 1013 211 951 l 314 1032 q 335 971 319 999 q 377 926 350 943 q 444 910 404 910 q 512 926 485 910 q 554 971 539 943 q 575 1032 569 999 l 679 1013 q 652 902 678 951 q 576 824 626 853 q 444 794 525 794 m 396 968 l 383 1039 q 415 1051 403 1042 q 428 1078 428 1060 q 408 1108 428 1097 q 333 1124 388 1119 l 353 1235 q 515 1194 468 1231 q 561 1099 561 1158 q 538 1027 561 1054 q 478 987 515 1000 q 396 968 440 974 z "},"ẵ":{"ha":833,"x_min":85,"x_max":743,"o":"m 311 -17 q 191 11 242 -17 q 113 86 140 39 q 85 192 85 133 q 190 368 85 307 q 539 443 294 429 q 518 497 535 475 q 470 531 501 519 q 392 543 439 543 q 325 535 358 543 q 256 513 292 528 q 182 479 221 499 l 110 613 q 209 661 157 640 q 317 694 261 682 q 432 706 374 706 q 599 672 529 706 q 706 569 668 638 q 743 394 743 500 l 743 0 l 576 0 l 561 78 l 556 78 q 442 11 504 39 q 311 -17 379 -17 m 376 142 q 463 160 422 142 q 539 207 503 179 l 539 321 q 381 300 438 315 q 303 261 325 285 q 281 207 281 238 q 292 171 281 186 q 326 149 304 156 q 376 142 347 142 m 444 794 q 326 816 372 794 q 258 874 281 838 q 231 951 235 910 l 331 968 q 363 919 338 942 q 444 896 389 896 q 526 919 500 896 q 558 968 551 942 l 658 951 q 631 874 654 910 q 563 816 608 838 q 444 794 517 794 m 525 992 q 461 1006 488 992 q 415 1035 435 1021 q 375 1050 396 1050 q 349 1038 360 1050 q 332 997 339 1026 l 228 1007 q 271 1125 236 1088 q 364 1163 306 1163 q 428 1148 401 1163 q 474 1119 454 1133 q 514 1104 493 1104 q 541 1117 531 1104 q 557 1156 551 1129 l 661 1146 q 618 1030 653 1068 q 525 992 583 992 z "},"ặ":{"ha":833,"x_min":85,"x_max":743,"o":"m 311 -17 q 191 11 242 -17 q 113 86 140 39 q 85 192 85 133 q 190 368 85 307 q 539 443 294 429 q 518 497 535 475 q 470 531 501 519 q 392 543 439 543 q 325 535 358 543 q 256 513 292 528 q 182 479 221 499 l 110 613 q 209 661 157 640 q 317 694 261 682 q 432 706 374 706 q 599 672 529 706 q 706 569 668 638 q 743 394 743 500 l 743 0 l 576 0 l 561 78 l 556 78 q 442 11 504 39 q 311 -17 379 -17 m 376 142 q 463 160 422 142 q 539 207 503 179 l 539 321 q 381 300 438 315 q 303 261 325 285 q 281 207 281 238 q 292 171 281 186 q 326 149 304 156 q 376 142 347 142 m 444 794 q 314 824 365 794 q 237 902 263 853 q 210 1013 211 951 l 326 1032 q 344 976 331 1001 q 383 937 358 951 q 444 922 408 922 q 506 937 481 922 q 544 976 531 951 q 563 1032 558 1001 l 679 1013 q 652 902 678 951 q 576 824 626 853 q 444 794 525 794 z "},"æ":{"ha":833,"x_min":22,"x_max":824,"o":"m 207 -17 q 74 39 125 -17 q 22 181 22 94 q 60 310 22 257 q 176 395 99 363 q 371 440 253 428 l 371 319 q 271 297 307 313 q 219 257 235 281 q 204 206 204 233 q 223 158 204 174 q 269 142 242 142 q 319 156 292 142 q 381 214 346 171 l 438 122 q 321 15 376 47 q 207 -17 265 -17 m 618 -17 q 467 28 529 -17 q 371 147 404 74 q 338 308 338 221 l 338 406 q 313 516 338 489 q 251 543 288 543 q 181 531 214 543 q 113 496 149 518 l 40 629 q 153 685 97 664 q 265 706 210 706 q 372 674 328 706 q 449 564 417 643 l 407 564 q 499 674 449 643 q 606 706 549 706 q 726 660 678 706 q 799 540 775 615 q 824 374 824 464 q 821 322 824 346 q 815 283 818 297 l 456 283 l 456 413 l 697 413 l 664 385 q 647 512 664 474 q 589 550 629 550 q 541 531 564 550 q 503 466 518 511 q 489 344 489 421 q 507 233 489 278 q 556 166 525 189 q 626 143 586 143 q 680 153 654 143 q 732 181 706 163 l 803 49 q 713 0 763 17 q 618 -17 663 -17 z "},"ǽ":{"ha":833,"x_min":22,"x_max":824,"o":"m 207 -17 q 74 39 125 -17 q 22 181 22 94 q 60 310 22 257 q 176 395 99 363 q 371 440 253 428 l 371 319 q 271 297 307 313 q 219 257 235 281 q 204 206 204 233 q 223 158 204 174 q 269 142 242 142 q 319 156 292 142 q 381 214 346 171 l 438 122 q 321 15 376 47 q 207 -17 265 -17 m 618 -17 q 467 28 529 -17 q 371 147 404 74 q 338 308 338 221 l 338 406 q 313 516 338 489 q 251 543 288 543 q 181 531 214 543 q 113 496 149 518 l 40 629 q 153 685 97 664 q 265 706 210 706 q 372 674 328 706 q 449 564 417 643 l 407 564 q 499 674 449 643 q 606 706 549 706 q 726 660 678 706 q 799 540 775 615 q 824 374 824 464 q 821 322 824 346 q 815 283 818 297 l 456 283 l 456 413 l 697 413 l 664 385 q 647 512 664 474 q 589 550 629 550 q 541 531 564 550 q 503 466 518 511 q 489 344 489 421 q 507 233 489 278 q 556 166 525 189 q 626 143 586 143 q 680 153 654 143 q 732 181 706 163 l 803 49 q 713 0 763 17 q 618 -17 663 -17 m 422 779 l 322 879 l 535 1132 l 674 996 l 422 779 z "},"ǣ":{"ha":833,"x_min":22,"x_max":824,"o":"m 207 -17 q 74 39 125 -17 q 22 181 22 94 q 60 310 22 257 q 176 395 99 363 q 371 440 253 428 l 371 319 q 271 297 307 313 q 219 257 235 281 q 204 206 204 233 q 223 158 204 174 q 269 142 242 142 q 319 156 292 142 q 381 214 346 171 l 438 122 q 321 15 376 47 q 207 -17 265 -17 m 618 -17 q 467 28 529 -17 q 371 147 404 74 q 338 308 338 221 l 338 406 q 313 516 338 489 q 251 543 288 543 q 181 531 214 543 q 113 496 149 518 l 40 629 q 153 685 97 664 q 265 706 210 706 q 372 674 328 706 q 449 564 417 643 l 407 564 q 499 674 449 643 q 606 706 549 706 q 726 660 678 706 q 799 540 775 615 q 824 374 824 464 q 821 322 824 346 q 815 283 818 297 l 456 283 l 456 413 l 697 413 l 664 385 q 647 512 664 474 q 589 550 629 550 q 541 531 564 550 q 503 466 518 511 q 489 344 489 421 q 507 233 489 278 q 556 166 525 189 q 626 143 586 143 q 680 153 654 143 q 732 181 706 163 l 803 49 q 713 0 763 17 q 618 -17 663 -17 m 225 822 l 225 951 l 636 951 l 636 822 l 225 822 z "},"ƀ":{"ha":833,"x_min":8,"x_max":768,"o":"m 469 -17 q 374 7 422 -17 q 282 75 325 31 l 276 75 l 260 0 l 100 0 l 100 972 l 304 972 l 300 700 l 297 599 l 303 599 q 391 657 342 636 q 490 678 440 678 q 640 637 578 678 q 735 520 701 596 q 768 343 768 444 q 726 149 768 229 q 615 26 683 68 q 469 -17 547 -17 m 424 150 q 492 169 461 150 q 540 231 522 189 q 558 339 558 274 q 544 435 558 397 q 503 492 531 472 q 432 511 475 511 q 368 497 399 511 q 304 447 338 482 l 304 196 q 365 160 333 171 q 424 150 396 150 m 8 768 l 8 865 l 114 874 l 557 874 l 557 768 l 8 768 z "},"ḇ":{"ha":833,"x_min":100,"x_max":768,"o":"m 469 -17 q 373 7 422 -17 q 282 75 324 31 l 276 75 l 260 0 l 100 0 l 100 974 l 304 974 l 304 735 l 297 626 l 301 626 q 391 685 342 664 q 490 706 440 706 q 640 663 578 706 q 735 541 701 619 q 768 357 768 463 q 726 155 768 239 q 615 27 683 71 q 469 -17 547 -17 m 424 150 q 492 171 461 150 q 540 237 522 192 q 558 353 558 282 q 544 456 558 415 q 503 518 531 497 q 432 539 476 539 q 367 524 399 539 q 304 475 336 510 l 304 196 q 365 161 333 172 q 424 150 396 150 z "},"ç":{"ha":833,"x_min":93,"x_max":760,"o":"m 476 -17 q 281 26 368 -17 q 144 149 194 68 q 93 344 93 231 q 149 540 93 458 q 295 663 204 621 q 492 706 386 706 q 640 680 574 706 q 750 613 707 654 l 656 486 q 578 527 615 514 q 503 540 542 540 q 399 517 444 540 q 328 449 353 493 q 303 344 303 404 q 327 240 303 285 q 395 172 351 196 q 496 149 439 149 q 595 168 550 149 q 678 214 640 188 l 760 85 q 623 8 699 33 q 476 -17 547 -17 m 333 -332 l 318 -250 q 431 -232 400 -246 q 461 -189 461 -218 q 440 -153 461 -167 q 354 -131 418 -139 l 424 15 l 543 15 l 501 -85 q 580 -121 553 -97 q 607 -189 607 -144 q 535 -294 607 -260 q 333 -332 464 -328 z "},"ć":{"ha":833,"x_min":93,"x_max":760,"o":"m 476 -17 q 281 26 368 -17 q 144 149 194 68 q 93 344 93 231 q 149 540 93 458 q 295 663 204 621 q 492 706 386 706 q 640 680 574 706 q 750 613 707 654 l 656 486 q 578 527 615 514 q 503 540 542 540 q 399 517 444 540 q 328 449 353 493 q 303 344 303 404 q 327 240 303 285 q 395 172 351 196 q 496 149 439 149 q 595 168 550 149 q 678 214 640 188 l 760 85 q 623 8 699 33 q 476 -17 547 -17 m 467 779 l 367 879 l 579 1132 l 718 996 l 467 779 z "},"ĉ":{"ha":833,"x_min":93,"x_max":760,"o":"m 476 -17 q 281 26 368 -17 q 144 149 194 68 q 93 344 93 231 q 149 540 93 458 q 295 663 204 621 q 492 706 386 706 q 640 680 574 706 q 750 613 707 654 l 656 486 q 578 527 615 514 q 503 540 542 540 q 399 517 444 540 q 328 449 353 493 q 303 344 303 404 q 327 240 303 285 q 395 172 351 196 q 496 149 439 149 q 595 168 550 149 q 678 214 640 188 l 760 85 q 623 8 699 33 q 476 -17 547 -17 m 299 779 l 221 851 l 371 1033 l 579 1033 l 729 851 l 651 779 l 478 907 l 472 907 l 299 779 z "},"č":{"ha":833,"x_min":93,"x_max":760,"o":"m 476 -17 q 281 26 368 -17 q 144 149 194 68 q 93 344 93 231 q 149 540 93 458 q 295 663 204 621 q 492 706 386 706 q 640 680 574 706 q 750 613 707 654 l 656 486 q 578 527 615 514 q 503 540 542 540 q 399 517 444 540 q 328 449 353 493 q 303 344 303 404 q 327 240 303 285 q 395 172 351 196 q 496 149 439 149 q 595 168 550 149 q 678 214 640 188 l 760 85 q 623 8 699 33 q 476 -17 547 -17 m 371 801 l 221 983 l 299 1056 l 472 928 l 478 928 l 651 1056 l 729 983 l 579 801 l 371 801 z "},"ċ":{"ha":833,"x_min":93,"x_max":760,"o":"m 476 -17 q 281 26 368 -17 q 144 149 194 68 q 93 344 93 231 q 149 540 93 458 q 295 663 204 621 q 492 706 386 706 q 640 680 574 706 q 750 613 707 654 l 656 486 q 578 527 615 514 q 503 540 542 540 q 399 517 444 540 q 328 449 353 493 q 303 344 303 404 q 327 240 303 285 q 395 172 351 196 q 496 149 439 149 q 595 168 550 149 q 678 214 640 188 l 760 85 q 623 8 699 33 q 476 -17 547 -17 m 475 797 q 378 831 417 797 q 339 921 339 865 q 378 1013 339 978 q 475 1049 417 1049 q 573 1013 535 1049 q 611 921 611 978 q 573 831 611 865 q 475 797 535 797 z "},"ď":{"ha":833,"x_min":47,"x_max":881,"o":"m 304 -17 q 117 80 186 -17 q 47 344 47 176 q 85 538 47 457 q 182 662 122 618 q 307 706 242 706 q 391 685 357 706 q 458 632 425 665 l 463 632 l 454 739 l 454 974 l 646 974 l 646 0 l 492 0 l 476 71 l 471 71 q 393 10 436 36 q 304 -17 350 -17 m 356 150 q 406 166 383 150 q 454 214 428 182 l 454 493 q 406 527 428 515 q 361 539 385 539 q 303 518 331 539 q 260 455 276 497 q 244 347 244 413 q 274 198 244 246 q 356 150 304 150 m 707 761 l 700 1142 l 881 1142 l 879 1006 l 846 761 l 707 761 z "},"ḍ":{"ha":833,"x_min":65,"x_max":733,"o":"m 356 -17 q 145 80 225 -17 q 65 344 65 176 q 108 538 65 457 q 218 662 150 618 q 360 706 286 706 q 458 686 417 706 q 533 632 500 667 l 539 632 l 529 739 l 529 974 l 733 974 l 733 0 l 567 0 l 551 71 l 547 71 q 459 8 510 33 q 356 -17 408 -17 m 408 150 q 473 165 443 150 q 529 214 503 179 l 529 493 q 473 528 501 518 q 414 539 444 539 q 344 518 376 539 q 294 455 313 497 q 275 347 275 413 q 310 198 275 246 q 408 150 344 150 z "},"ḏ":{"ha":833,"x_min":65,"x_max":733,"o":"m 356 -17 q 145 80 225 -17 q 65 344 65 176 q 108 538 65 457 q 218 662 150 618 q 360 706 286 706 q 458 686 417 706 q 533 632 500 667 l 539 632 l 529 739 l 529 974 l 733 974 l 733 0 l 567 0 l 551 71 l 547 71 q 459 8 510 33 q 356 -17 408 -17 m 408 150 q 473 165 443 150 q 529 214 503 179 l 529 493 q 473 528 501 518 q 414 539 444 539 q 344 518 376 539 q 294 455 313 497 q 275 347 275 413 q 310 198 275 246 q 408 150 344 150 z "},"ḑ":{"ha":833,"x_min":65,"x_max":733,"o":"m 356 -17 q 145 80 225 -17 q 65 344 65 176 q 108 538 65 457 q 218 662 150 618 q 360 706 286 706 q 458 686 417 706 q 533 632 500 667 l 539 632 l 529 739 l 529 974 l 733 974 l 733 0 l 567 0 l 551 71 l 547 71 q 459 8 510 33 q 356 -17 408 -17 m 408 150 q 473 165 443 150 q 529 214 503 179 l 529 493 q 473 528 501 518 q 414 539 444 539 q 344 518 376 539 q 294 455 313 497 q 275 347 275 413 q 310 198 275 246 q 408 150 344 150 m 243 -332 l 228 -250 q 340 -232 310 -246 q 371 -189 371 -218 q 349 -153 371 -167 q 264 -131 328 -139 l 333 15 l 453 15 l 411 -85 q 490 -121 463 -97 q 517 -189 517 -144 q 445 -294 517 -260 q 243 -332 374 -328 z "},"đ":{"ha":833,"x_min":65,"x_max":825,"o":"m 357 -17 q 145 76 225 -17 q 65 331 65 168 q 108 517 65 439 q 219 636 151 594 q 360 678 286 678 q 459 658 418 678 q 533 603 500 638 l 539 603 l 529 710 l 529 972 l 733 972 l 733 0 l 567 0 l 551 71 l 547 71 q 459 8 510 33 q 357 -17 408 -17 m 408 150 q 473 165 443 150 q 529 215 503 179 l 529 465 q 473 501 501 490 q 417 511 444 511 q 347 492 379 511 q 294 433 314 472 q 275 332 275 394 q 310 194 275 239 q 408 150 344 150 m 313 768 l 313 874 l 825 874 l 825 776 l 722 768 l 313 768 z "},"è":{"ha":833,"x_min":76,"x_max":760,"o":"m 458 -17 q 265 26 351 -17 q 127 149 178 68 q 76 344 76 231 q 128 538 76 457 q 261 663 179 619 q 435 706 343 706 q 614 662 542 706 q 723 544 686 618 q 760 375 760 469 q 756 322 760 347 q 750 283 753 296 l 228 283 l 228 421 l 613 421 l 581 382 q 545 508 581 465 q 442 550 510 550 q 354 528 392 550 q 296 460 317 506 q 275 344 275 414 q 300 228 275 274 q 372 161 325 183 q 486 139 419 139 q 576 151 533 139 q 664 188 618 164 l 732 64 q 600 5 672 26 q 458 -17 528 -17 m 442 779 l 190 996 l 329 1132 l 542 879 l 442 779 z "},"é":{"ha":833,"x_min":76,"x_max":760,"o":"m 458 -17 q 265 26 351 -17 q 127 149 178 68 q 76 344 76 231 q 128 538 76 457 q 261 663 179 619 q 435 706 343 706 q 614 662 542 706 q 723 544 686 618 q 760 375 760 469 q 756 322 760 347 q 750 283 753 296 l 228 283 l 228 421 l 613 421 l 581 382 q 545 508 581 465 q 442 550 510 550 q 354 528 392 550 q 296 460 317 506 q 275 344 275 414 q 300 228 275 274 q 372 161 325 183 q 486 139 419 139 q 576 151 533 139 q 664 188 618 164 l 732 64 q 600 5 672 26 q 458 -17 528 -17 m 425 779 l 325 879 l 538 1132 l 676 996 l 425 779 z "},"ê":{"ha":833,"x_min":76,"x_max":760,"o":"m 458 -17 q 265 26 351 -17 q 127 149 178 68 q 76 344 76 231 q 128 538 76 457 q 261 663 179 619 q 435 706 343 706 q 614 662 542 706 q 723 544 686 618 q 760 375 760 469 q 756 322 760 347 q 750 283 753 296 l 228 283 l 228 421 l 613 421 l 581 382 q 545 508 581 465 q 442 550 510 550 q 354 528 392 550 q 296 460 317 506 q 275 344 275 414 q 300 228 275 274 q 372 161 325 183 q 486 139 419 139 q 576 151 533 139 q 664 188 618 164 l 732 64 q 600 5 672 26 q 458 -17 528 -17 m 257 779 l 179 851 l 329 1033 l 538 1033 l 688 851 l 610 779 l 436 907 l 431 907 l 257 779 z "},"ě":{"ha":833,"x_min":76,"x_max":760,"o":"m 458 -17 q 265 26 351 -17 q 127 149 178 68 q 76 344 76 231 q 128 538 76 457 q 261 663 179 619 q 435 706 343 706 q 614 662 542 706 q 723 544 686 618 q 760 375 760 469 q 756 322 760 347 q 750 283 753 296 l 228 283 l 228 421 l 613 421 l 581 382 q 545 508 581 465 q 442 550 510 550 q 354 528 392 550 q 296 460 317 506 q 275 344 275 414 q 300 228 275 274 q 372 161 325 183 q 486 139 419 139 q 576 151 533 139 q 664 188 618 164 l 732 64 q 600 5 672 26 q 458 -17 528 -17 m 329 801 l 179 983 l 257 1056 l 431 928 l 436 928 l 610 1056 l 688 983 l 538 801 l 329 801 z "},"ë":{"ha":833,"x_min":76,"x_max":760,"o":"m 458 -17 q 265 26 351 -17 q 127 149 178 68 q 76 344 76 231 q 128 538 76 457 q 261 663 179 619 q 435 706 343 706 q 614 662 542 706 q 723 544 686 618 q 760 375 760 469 q 756 322 760 347 q 750 283 753 296 l 228 283 l 228 421 l 613 421 l 581 382 q 545 508 581 465 q 442 550 510 550 q 354 528 392 550 q 296 460 317 506 q 275 344 275 414 q 300 228 275 274 q 372 161 325 183 q 486 139 419 139 q 576 151 533 139 q 664 188 618 164 l 732 64 q 600 5 672 26 q 458 -17 528 -17 m 279 793 q 199 826 231 793 q 168 904 168 858 q 199 984 168 951 q 279 1017 231 1017 q 360 984 329 1017 q 390 904 390 951 q 360 826 390 858 q 279 793 329 793 m 588 793 q 507 826 538 793 q 476 904 476 858 q 507 984 476 951 q 588 1017 538 1017 q 667 984 636 1017 q 699 904 699 951 q 667 826 699 858 q 588 793 636 793 z "},"ē":{"ha":833,"x_min":76,"x_max":760,"o":"m 458 -17 q 265 26 351 -17 q 127 149 178 68 q 76 344 76 231 q 128 538 76 457 q 261 663 179 619 q 435 706 343 706 q 614 662 542 706 q 723 544 686 618 q 760 375 760 469 q 756 322 760 347 q 750 283 753 296 l 228 283 l 228 421 l 613 421 l 581 382 q 545 508 581 465 q 442 550 510 550 q 354 528 392 550 q 296 460 317 506 q 275 344 275 414 q 300 228 275 274 q 372 161 325 183 q 486 139 419 139 q 576 151 533 139 q 664 188 618 164 l 732 64 q 600 5 672 26 q 458 -17 528 -17 m 228 822 l 228 951 l 639 951 l 639 822 l 228 822 z "},"ĕ":{"ha":833,"x_min":76,"x_max":760,"o":"m 458 -17 q 265 26 351 -17 q 127 149 178 68 q 76 344 76 231 q 128 538 76 457 q 261 663 179 619 q 435 706 343 706 q 614 662 542 706 q 723 544 686 618 q 760 375 760 469 q 756 322 760 347 q 750 283 753 296 l 228 283 l 228 421 l 613 421 l 581 382 q 545 508 581 465 q 442 550 510 550 q 354 528 392 550 q 296 460 317 506 q 275 344 275 414 q 300 228 275 274 q 372 161 325 183 q 486 139 419 139 q 576 151 533 139 q 664 188 618 164 l 732 64 q 600 5 672 26 q 458 -17 528 -17 m 433 794 q 303 824 354 794 q 226 902 251 853 q 199 1013 200 951 l 315 1032 q 333 976 319 1001 q 372 937 347 951 q 433 922 397 922 q 494 937 469 922 q 533 976 519 951 q 551 1032 547 1001 l 668 1013 q 641 902 667 951 q 565 824 615 853 q 433 794 514 794 z "},"ę":{"ha":833,"x_min":76,"x_max":760,"o":"m 576 -315 q 460 -281 506 -315 q 414 -178 414 -246 q 447 -75 414 -119 q 540 15 481 -31 l 551 -1 q 494 -15 518 -12 q 458 -17 471 -17 q 265 26 351 -17 q 127 149 178 68 q 76 344 76 231 q 128 538 76 457 q 261 663 179 619 q 435 706 343 706 q 614 662 542 706 q 723 544 686 618 q 760 375 760 469 q 756 322 760 347 q 750 283 753 296 l 228 283 l 228 421 l 613 421 l 581 382 q 545 508 581 465 q 442 550 510 550 q 354 528 392 550 q 296 460 317 506 q 275 344 275 414 q 300 228 275 274 q 372 161 325 183 q 486 139 419 139 q 576 151 533 139 q 664 188 618 164 l 732 64 q 622 -15 661 17 q 567 -74 583 -47 q 551 -131 551 -101 q 573 -178 551 -162 q 625 -194 594 -194 q 660 -189 643 -194 q 689 -174 676 -183 l 733 -265 q 660 -302 704 -289 q 576 -315 615 -315 z "},"ė":{"ha":833,"x_min":76,"x_max":760,"o":"m 458 -17 q 265 26 351 -17 q 127 149 178 68 q 76 344 76 231 q 128 538 76 457 q 261 663 179 619 q 435 706 343 706 q 614 662 542 706 q 723 544 686 618 q 760 375 760 469 q 756 322 760 347 q 750 283 753 296 l 228 283 l 228 421 l 613 421 l 581 382 q 545 508 581 465 q 442 550 510 550 q 354 528 392 550 q 296 460 317 506 q 275 344 275 414 q 300 228 275 274 q 372 161 325 183 q 486 139 419 139 q 576 151 533 139 q 664 188 618 164 l 732 64 q 600 5 672 26 q 458 -17 528 -17 m 433 797 q 336 831 375 797 q 297 921 297 865 q 336 1013 297 978 q 433 1049 375 1049 q 531 1013 493 1049 q 569 921 569 978 q 531 831 569 865 q 433 797 493 797 z "},"ẹ":{"ha":833,"x_min":76,"x_max":760,"o":"m 458 -17 q 265 26 351 -17 q 127 149 178 68 q 76 344 76 231 q 128 538 76 457 q 261 663 179 619 q 435 706 343 706 q 614 662 542 706 q 723 544 686 618 q 760 375 760 469 q 756 322 760 347 q 750 283 753 296 l 228 283 l 228 421 l 613 421 l 581 382 q 545 508 581 465 q 442 550 510 550 q 354 528 392 550 q 296 460 317 506 q 275 344 275 414 q 300 228 275 274 q 372 161 325 183 q 486 139 419 139 q 576 151 533 139 q 664 188 618 164 l 732 64 q 600 5 672 26 q 458 -17 528 -17 z "},"ẻ":{"ha":833,"x_min":76,"x_max":760,"o":"m 458 -17 q 265 26 351 -17 q 127 149 178 68 q 76 344 76 231 q 128 538 76 457 q 261 663 179 619 q 435 706 343 706 q 614 662 542 706 q 723 544 686 618 q 760 375 760 469 q 756 322 760 347 q 750 283 753 296 l 228 283 l 228 421 l 613 421 l 581 382 q 545 508 581 465 q 442 550 510 550 q 354 528 392 550 q 296 460 317 506 q 275 344 275 414 q 300 228 275 274 q 372 161 325 183 q 486 139 419 139 q 576 151 533 139 q 664 188 618 164 l 732 64 q 600 5 672 26 q 458 -17 528 -17 m 374 789 l 357 869 q 401 885 383 875 q 419 918 419 896 q 394 958 419 944 q 308 976 369 972 l 321 1101 q 466 1078 411 1100 q 544 1019 521 1056 q 568 933 568 982 q 541 856 568 886 q 469 809 514 825 q 374 789 425 793 z "},"ẽ":{"ha":833,"x_min":76,"x_max":760,"o":"m 458 -17 q 265 26 351 -17 q 127 149 178 68 q 76 344 76 231 q 128 538 76 457 q 261 663 179 619 q 435 706 343 706 q 614 662 542 706 q 723 544 686 618 q 760 375 760 469 q 756 322 760 347 q 750 283 753 296 l 228 283 l 228 421 l 613 421 l 581 382 q 545 508 581 465 q 442 550 510 550 q 354 528 392 550 q 296 460 317 506 q 275 344 275 414 q 300 228 275 274 q 372 161 325 183 q 486 139 419 139 q 576 151 533 139 q 664 188 618 164 l 732 64 q 600 5 672 26 q 458 -17 528 -17 m 525 796 q 467 810 493 796 q 419 841 440 824 q 380 872 397 858 q 346 885 363 885 q 313 867 325 885 q 297 808 301 849 l 169 815 q 192 934 172 888 q 250 1003 213 981 q 342 1026 288 1026 q 401 1013 375 1026 q 448 983 426 1000 q 487 951 469 965 q 521 938 504 938 q 553 956 542 938 q 569 1014 565 974 l 697 1007 q 674 889 694 936 q 617 819 654 842 q 525 796 579 796 z "},"ế":{"ha":833,"x_min":76,"x_max":818,"o":"m 458 -17 q 265 26 351 -17 q 127 149 178 68 q 76 344 76 231 q 128 538 76 457 q 261 663 179 619 q 435 706 343 706 q 614 662 542 706 q 723 544 686 618 q 760 375 760 469 q 756 322 760 347 q 750 283 753 296 l 228 283 l 228 421 l 613 421 l 581 382 q 545 508 581 465 q 442 550 510 550 q 354 528 392 550 q 296 460 317 506 q 275 344 275 414 q 300 228 275 274 q 372 161 325 183 q 486 139 419 139 q 576 151 533 139 q 664 188 618 164 l 732 64 q 600 5 672 26 q 458 -17 528 -17 m 289 786 l 224 858 l 353 986 l 514 986 l 643 858 l 578 786 l 436 876 l 431 876 l 289 786 m 678 886 l 600 947 l 710 1124 l 818 1053 l 678 886 z "},"ề":{"ha":833,"x_min":43,"x_max":760,"o":"m 458 -17 q 265 26 351 -17 q 127 149 178 68 q 76 344 76 231 q 128 538 76 457 q 261 663 179 619 q 435 706 343 706 q 614 662 542 706 q 723 544 686 618 q 760 375 760 469 q 756 322 760 347 q 750 283 753 296 l 228 283 l 228 421 l 613 421 l 581 382 q 545 508 581 465 q 442 550 510 550 q 354 528 392 550 q 296 460 317 506 q 275 344 275 414 q 300 228 275 274 q 372 161 325 183 q 486 139 419 139 q 576 151 533 139 q 664 188 618 164 l 732 64 q 600 5 672 26 q 458 -17 528 -17 m 289 786 l 224 858 l 353 986 l 514 986 l 643 858 l 578 786 l 436 876 l 431 876 l 289 786 m 189 886 l 43 1051 l 151 1124 l 267 947 l 189 886 z "},"ể":{"ha":833,"x_min":76,"x_max":786,"o":"m 458 -17 q 265 26 351 -17 q 127 149 178 68 q 76 344 76 231 q 128 538 76 457 q 261 663 179 619 q 435 706 343 706 q 614 662 542 706 q 723 544 686 618 q 760 375 760 469 q 756 322 760 347 q 750 283 753 296 l 228 283 l 228 421 l 613 421 l 581 382 q 545 508 581 465 q 442 550 510 550 q 354 528 392 550 q 296 460 317 506 q 275 344 275 414 q 300 228 275 274 q 372 161 325 183 q 486 139 419 139 q 576 151 533 139 q 664 188 618 164 l 732 64 q 600 5 672 26 q 458 -17 528 -17 m 289 786 l 224 858 l 353 986 l 514 986 l 643 858 l 578 786 l 436 876 l 431 876 l 289 786 m 625 894 l 611 964 q 642 978 631 969 q 653 1004 653 986 q 634 1035 653 1024 q 563 1050 615 1046 l 582 1136 q 741 1103 696 1132 q 786 1025 786 1074 q 764 954 786 981 q 705 915 742 928 q 625 894 668 901 z "},"ễ":{"ha":833,"x_min":76,"x_max":760,"o":"m 458 -17 q 265 26 351 -17 q 127 149 178 68 q 76 344 76 231 q 128 538 76 457 q 261 663 179 619 q 435 706 343 706 q 614 662 542 706 q 723 544 686 618 q 760 375 760 469 q 756 322 760 347 q 750 283 753 296 l 228 283 l 228 421 l 613 421 l 581 382 q 545 508 581 465 q 442 550 510 550 q 354 528 392 550 q 296 460 317 506 q 275 344 275 414 q 300 228 275 274 q 372 161 325 183 q 486 139 419 139 q 576 151 533 139 q 664 188 618 164 l 732 64 q 600 5 672 26 q 458 -17 528 -17 m 289 786 l 224 858 l 353 975 l 514 975 l 643 858 l 578 786 l 436 864 l 431 864 l 289 786 m 514 994 q 450 1009 476 994 q 404 1038 424 1024 q 364 1053 385 1053 q 338 1041 349 1053 q 321 1000 328 1029 l 228 1010 q 268 1127 236 1090 q 353 1164 300 1164 q 417 1149 390 1164 q 463 1120 443 1135 q 503 1106 482 1106 q 530 1119 519 1106 q 546 1158 540 1132 l 639 1149 q 599 1032 631 1069 q 514 994 567 994 z "},"ệ":{"ha":833,"x_min":76,"x_max":760,"o":"m 458 -17 q 265 26 351 -17 q 127 149 178 68 q 76 344 76 231 q 128 538 76 457 q 261 663 179 619 q 435 706 343 706 q 614 662 542 706 q 723 544 686 618 q 760 375 760 469 q 756 322 760 347 q 750 283 753 296 l 228 283 l 228 421 l 613 421 l 581 382 q 545 508 581 465 q 442 550 510 550 q 354 528 392 550 q 296 460 317 506 q 275 344 275 414 q 300 228 275 274 q 372 161 325 183 q 486 139 419 139 q 576 151 533 139 q 664 188 618 164 l 732 64 q 600 5 672 26 q 458 -17 528 -17 m 257 779 l 179 851 l 329 1033 l 538 1033 l 688 851 l 610 779 l 436 907 l 431 907 l 257 779 z "},"ḗ":{"ha":833,"x_min":76,"x_max":760,"o":"m 458 -17 q 265 26 351 -17 q 127 149 178 68 q 76 344 76 231 q 128 538 76 457 q 261 663 179 619 q 435 706 343 706 q 614 662 542 706 q 723 544 686 618 q 760 375 760 469 q 756 322 760 347 q 750 283 753 296 l 228 283 l 228 421 l 613 421 l 581 382 q 545 508 581 465 q 442 550 510 550 q 354 528 392 550 q 296 460 317 506 q 275 344 275 414 q 300 228 275 274 q 372 161 325 183 q 486 139 419 139 q 576 151 533 139 q 664 188 618 164 l 732 64 q 600 5 672 26 q 458 -17 528 -17 m 228 822 l 228 951 l 639 951 l 639 822 l 228 822 m 394 990 l 326 1074 l 526 1219 l 610 1117 l 394 990 z "},"ǵ":{"ha":833,"x_min":72,"x_max":794,"o":"m 385 -293 q 224 -274 294 -293 q 113 -217 154 -256 q 72 -117 72 -178 q 99 -40 72 -75 q 179 21 126 -6 l 179 26 q 130 74 150 46 q 110 144 110 101 q 133 214 110 179 q 192 274 156 249 l 192 279 q 128 350 154 304 q 101 456 101 396 q 142 594 101 539 q 251 678 183 650 q 396 706 318 706 q 510 689 460 706 l 789 689 l 789 539 l 650 539 q 672 499 663 524 q 681 449 681 475 q 642 319 681 369 q 540 243 604 268 q 396 218 476 218 q 351 222 376 218 q 301 232 326 225 q 278 210 285 221 q 271 181 271 199 q 299 142 271 154 q 388 129 328 129 l 515 129 q 723 89 651 129 q 794 -44 794 49 q 744 -173 794 -117 q 602 -261 694 -229 q 385 -293 510 -293 m 396 342 q 449 354 425 342 q 486 392 472 367 q 500 456 500 418 q 486 517 500 492 q 449 555 472 542 q 396 568 425 568 q 344 555 368 568 q 307 517 321 542 q 293 456 293 492 q 307 392 293 418 q 344 354 321 367 q 396 342 368 342 m 414 -164 q 511 -153 469 -164 q 576 -123 553 -142 q 600 -81 600 -104 q 569 -37 600 -46 q 479 -28 539 -28 l 393 -28 q 331 -25 356 -28 q 288 -18 307 -22 q 250 -51 261 -35 q 239 -86 239 -67 q 286 -144 239 -124 q 414 -164 333 -164 m 414 779 l 314 879 l 526 1132 l 665 996 l 414 779 z "},"ĝ":{"ha":833,"x_min":72,"x_max":794,"o":"m 385 -293 q 224 -274 294 -293 q 113 -217 154 -256 q 72 -117 72 -178 q 99 -40 72 -75 q 179 21 126 -6 l 179 26 q 130 74 150 46 q 110 144 110 101 q 133 214 110 179 q 192 274 156 249 l 192 279 q 128 350 154 304 q 101 456 101 396 q 142 594 101 539 q 251 678 183 650 q 396 706 318 706 q 510 689 460 706 l 789 689 l 789 539 l 650 539 q 672 499 663 524 q 681 449 681 475 q 642 319 681 369 q 540 243 604 268 q 396 218 476 218 q 351 222 376 218 q 301 232 326 225 q 278 210 285 221 q 271 181 271 199 q 299 142 271 154 q 388 129 328 129 l 515 129 q 723 89 651 129 q 794 -44 794 49 q 744 -173 794 -117 q 602 -261 694 -229 q 385 -293 510 -293 m 396 342 q 449 354 425 342 q 486 392 472 367 q 500 456 500 418 q 486 517 500 492 q 449 555 472 542 q 396 568 425 568 q 344 555 368 568 q 307 517 321 542 q 293 456 293 492 q 307 392 293 418 q 344 354 321 367 q 396 342 368 342 m 414 -164 q 511 -153 469 -164 q 576 -123 553 -142 q 600 -81 600 -104 q 569 -37 600 -46 q 479 -28 539 -28 l 393 -28 q 331 -25 356 -28 q 288 -18 307 -22 q 250 -51 261 -35 q 239 -86 239 -67 q 286 -144 239 -124 q 414 -164 333 -164 m 246 779 l 168 851 l 318 1033 l 526 1033 l 676 851 l 599 779 l 425 907 l 419 907 l 246 779 z "},"ğ":{"ha":833,"x_min":72,"x_max":794,"o":"m 385 -293 q 224 -274 294 -293 q 113 -217 154 -256 q 72 -117 72 -178 q 99 -40 72 -75 q 179 21 126 -6 l 179 26 q 130 74 150 46 q 110 144 110 101 q 133 214 110 179 q 192 274 156 249 l 192 279 q 128 350 154 304 q 101 456 101 396 q 142 594 101 539 q 251 678 183 650 q 396 706 318 706 q 510 689 460 706 l 789 689 l 789 539 l 650 539 q 672 499 663 524 q 681 449 681 475 q 642 319 681 369 q 540 243 604 268 q 396 218 476 218 q 351 222 376 218 q 301 232 326 225 q 278 210 285 221 q 271 181 271 199 q 299 142 271 154 q 388 129 328 129 l 515 129 q 723 89 651 129 q 794 -44 794 49 q 744 -173 794 -117 q 602 -261 694 -229 q 385 -293 510 -293 m 396 342 q 449 354 425 342 q 486 392 472 367 q 500 456 500 418 q 486 517 500 492 q 449 555 472 542 q 396 568 425 568 q 344 555 368 568 q 307 517 321 542 q 293 456 293 492 q 307 392 293 418 q 344 354 321 367 q 396 342 368 342 m 414 -164 q 511 -153 469 -164 q 576 -123 553 -142 q 600 -81 600 -104 q 569 -37 600 -46 q 479 -28 539 -28 l 393 -28 q 331 -25 356 -28 q 288 -18 307 -22 q 250 -51 261 -35 q 239 -86 239 -67 q 286 -144 239 -124 q 414 -164 333 -164 m 422 794 q 292 824 343 794 q 215 902 240 853 q 188 1013 189 951 l 304 1032 q 322 976 308 1001 q 361 937 336 951 q 422 922 386 922 q 483 937 458 922 q 522 976 508 951 q 540 1032 536 1001 l 657 1013 q 630 902 656 951 q 553 824 604 853 q 422 794 503 794 z "},"ġ":{"ha":833,"x_min":72,"x_max":794,"o":"m 385 -293 q 224 -274 294 -293 q 113 -217 154 -256 q 72 -117 72 -178 q 99 -40 72 -75 q 179 21 126 -6 l 179 26 q 130 74 150 46 q 110 144 110 101 q 133 214 110 179 q 192 274 156 249 l 192 279 q 128 350 154 304 q 101 456 101 396 q 142 594 101 539 q 251 678 183 650 q 396 706 318 706 q 510 689 460 706 l 789 689 l 789 539 l 650 539 q 672 499 663 524 q 681 449 681 475 q 642 319 681 369 q 540 243 604 268 q 396 218 476 218 q 351 222 376 218 q 301 232 326 225 q 278 210 285 221 q 271 181 271 199 q 299 142 271 154 q 388 129 328 129 l 515 129 q 723 89 651 129 q 794 -44 794 49 q 744 -173 794 -117 q 602 -261 694 -229 q 385 -293 510 -293 m 396 342 q 449 354 425 342 q 486 392 472 367 q 500 456 500 418 q 486 517 500 492 q 449 555 472 542 q 396 568 425 568 q 344 555 368 568 q 307 517 321 542 q 293 456 293 492 q 307 392 293 418 q 344 354 321 367 q 396 342 368 342 m 414 -164 q 511 -153 469 -164 q 576 -123 553 -142 q 600 -81 600 -104 q 569 -37 600 -46 q 479 -28 539 -28 l 393 -28 q 331 -25 356 -28 q 288 -18 307 -22 q 250 -51 261 -35 q 239 -86 239 -67 q 286 -144 239 -124 q 414 -164 333 -164 m 422 797 q 325 831 364 797 q 286 921 286 865 q 325 1013 286 978 q 422 1049 364 1049 q 520 1013 482 1049 q 558 921 558 978 q 520 831 558 865 q 422 797 482 797 z "},"ģ":{"ha":833,"x_min":72,"x_max":794,"o":"m 385 -293 q 224 -274 294 -293 q 113 -217 154 -256 q 72 -117 72 -178 q 99 -40 72 -75 q 179 21 126 -6 l 179 26 q 130 74 150 46 q 110 144 110 101 q 133 214 110 179 q 192 274 156 249 l 192 279 q 128 350 154 304 q 101 456 101 396 q 142 594 101 539 q 251 678 183 650 q 396 706 318 706 q 510 689 460 706 l 789 689 l 789 539 l 650 539 q 672 499 663 524 q 681 449 681 475 q 642 319 681 369 q 540 243 604 268 q 396 218 476 218 q 351 222 376 218 q 301 232 326 225 q 278 210 285 221 q 271 181 271 199 q 299 142 271 154 q 388 129 328 129 l 515 129 q 723 89 651 129 q 794 -44 794 49 q 744 -173 794 -117 q 602 -261 694 -229 q 385 -293 510 -293 m 396 342 q 449 354 425 342 q 486 392 472 367 q 500 456 500 418 q 486 517 500 492 q 449 555 472 542 q 396 568 425 568 q 344 555 368 568 q 307 517 321 542 q 293 456 293 492 q 307 392 293 418 q 344 354 321 367 q 396 342 368 342 m 414 -164 q 511 -153 469 -164 q 576 -123 553 -142 q 600 -81 600 -104 q 569 -37 600 -46 q 479 -28 539 -28 l 393 -28 q 331 -25 356 -28 q 288 -18 307 -22 q 250 -51 261 -35 q 239 -86 239 -67 q 286 -144 239 -124 q 414 -164 333 -164 m 486 789 q 333 827 375 799 q 290 906 290 856 q 363 1010 290 976 q 564 1049 435 1044 l 579 967 q 467 950 497 963 q 436 913 436 938 q 457 881 436 893 q 525 864 478 868 l 486 789 z "},"ǧ":{"ha":833,"x_min":72,"x_max":794,"o":"m 385 -293 q 224 -274 294 -293 q 113 -217 154 -256 q 72 -117 72 -178 q 99 -40 72 -75 q 179 21 126 -6 l 179 26 q 130 74 150 46 q 110 144 110 101 q 133 214 110 179 q 192 274 156 249 l 192 279 q 128 350 154 304 q 101 456 101 396 q 142 594 101 539 q 251 678 183 650 q 396 706 318 706 q 510 689 460 706 l 789 689 l 789 539 l 650 539 q 672 499 663 524 q 681 449 681 475 q 642 319 681 369 q 540 243 604 268 q 396 218 476 218 q 351 222 376 218 q 301 232 326 225 q 278 210 285 221 q 271 181 271 199 q 299 142 271 154 q 388 129 328 129 l 515 129 q 723 89 651 129 q 794 -44 794 49 q 744 -173 794 -117 q 602 -261 694 -229 q 385 -293 510 -293 m 396 342 q 449 354 425 342 q 486 392 472 367 q 500 456 500 418 q 486 517 500 492 q 449 555 472 542 q 396 568 425 568 q 344 555 368 568 q 307 517 321 542 q 293 456 293 492 q 307 392 293 418 q 344 354 321 367 q 396 342 368 342 m 414 -164 q 511 -153 469 -164 q 576 -123 553 -142 q 600 -81 600 -104 q 569 -37 600 -46 q 479 -28 539 -28 l 393 -28 q 331 -25 356 -28 q 288 -18 307 -22 q 250 -51 261 -35 q 239 -86 239 -67 q 286 -144 239 -124 q 414 -164 333 -164 m 318 801 l 168 983 l 246 1056 l 419 928 l 425 928 l 599 1056 l 676 983 l 526 801 l 318 801 z "},"ḡ":{"ha":833,"x_min":72,"x_max":794,"o":"m 385 -293 q 224 -274 294 -293 q 113 -217 154 -256 q 72 -117 72 -178 q 99 -40 72 -75 q 179 21 126 -6 l 179 26 q 130 74 150 46 q 110 144 110 101 q 133 214 110 179 q 192 274 156 249 l 192 279 q 128 350 154 304 q 101 456 101 396 q 142 594 101 539 q 251 678 183 650 q 396 706 318 706 q 510 689 460 706 l 789 689 l 789 539 l 650 539 q 672 499 663 524 q 681 449 681 475 q 642 319 681 369 q 540 243 604 268 q 396 218 476 218 q 351 222 376 218 q 301 232 326 225 q 278 210 285 221 q 271 181 271 199 q 299 142 271 154 q 388 129 328 129 l 515 129 q 723 89 651 129 q 794 -44 794 49 q 744 -173 794 -117 q 602 -261 694 -229 q 385 -293 510 -293 m 396 342 q 449 354 425 342 q 486 392 472 367 q 500 456 500 418 q 486 517 500 492 q 449 555 472 542 q 396 568 425 568 q 344 555 368 568 q 307 517 321 542 q 293 456 293 492 q 307 392 293 418 q 344 354 321 367 q 396 342 368 342 m 414 -164 q 511 -153 469 -164 q 576 -123 553 -142 q 600 -81 600 -104 q 569 -37 600 -46 q 479 -28 539 -28 l 393 -28 q 331 -25 356 -28 q 288 -18 307 -22 q 250 -51 261 -35 q 239 -86 239 -67 q 286 -144 239 -124 q 414 -164 333 -164 m 217 822 l 217 951 l 628 951 l 628 822 l 217 822 z "},"ĥ":{"ha":833,"x_min":-35,"x_max":750,"o":"m 100 0 l 100 974 l 304 974 l 304 735 l 293 603 l 297 603 q 392 674 336 643 q 526 706 449 706 q 697 631 643 706 q 750 425 750 556 l 750 0 l 546 0 l 546 399 q 523 500 546 468 q 444 532 500 532 q 372 513 403 532 q 304 460 340 494 l 304 0 l 100 0 m 54 1035 l -35 1089 l 90 1243 l 313 1243 l 438 1089 l 349 1035 l 204 1151 l 199 1151 l 54 1035 z "},"ḧ":{"ha":833,"x_min":-54,"x_max":750,"o":"m 100 0 l 100 974 l 304 974 l 304 735 l 293 603 l 297 603 q 392 674 336 643 q 526 706 449 706 q 697 631 643 706 q 750 425 750 556 l 750 0 l 546 0 l 546 399 q 523 500 546 468 q 444 532 500 532 q 372 513 403 532 q 304 460 340 494 l 304 0 l 100 0 m 47 1056 q -26 1085 3 1056 q -54 1158 -54 1115 q -26 1230 -54 1201 q 47 1258 3 1258 q 121 1230 92 1258 q 150 1158 150 1201 q 121 1085 150 1115 q 47 1056 92 1056 m 356 1056 q 282 1085 311 1056 q 253 1158 253 1115 q 282 1230 253 1201 q 356 1258 311 1258 q 428 1230 400 1258 q 457 1158 457 1201 q 428 1085 457 1115 q 356 1056 400 1056 z "},"ḥ":{"ha":833,"x_min":100,"x_max":750,"o":"m 100 0 l 100 974 l 304 974 l 304 735 l 293 603 l 297 603 q 392 674 336 643 q 526 706 449 706 q 697 631 643 706 q 750 425 750 556 l 750 0 l 546 0 l 546 399 q 523 500 546 468 q 444 532 500 532 q 372 513 403 532 q 304 460 340 494 l 304 0 l 100 0 z "},"ẖ":{"ha":833,"x_min":100,"x_max":750,"o":"m 100 0 l 100 974 l 304 974 l 304 735 l 293 603 l 297 603 q 392 674 336 643 q 526 706 449 706 q 697 631 643 706 q 750 425 750 556 l 750 0 l 546 0 l 546 399 q 523 500 546 468 q 444 532 500 532 q 372 513 403 532 q 304 460 340 494 l 304 0 l 100 0 z "},"ḩ":{"ha":833,"x_min":44,"x_max":750,"o":"m 100 0 l 100 974 l 304 974 l 304 735 l 293 603 l 297 603 q 392 674 336 643 q 526 706 449 706 q 697 631 643 706 q 750 425 750 556 l 750 0 l 546 0 l 546 399 q 523 500 546 468 q 444 532 500 532 q 372 513 403 532 q 304 460 340 494 l 304 0 l 100 0 m 60 -332 l 44 -250 q 157 -232 126 -246 q 188 -189 188 -218 q 166 -153 188 -167 q 81 -131 144 -139 l 150 15 l 269 15 l 228 -85 q 306 -121 279 -97 q 333 -189 333 -144 q 262 -294 333 -260 q 60 -332 190 -328 z "},"ḫ":{"ha":833,"x_min":100,"x_max":750,"o":"m 100 0 l 100 974 l 304 974 l 304 735 l 293 603 l 297 603 q 392 674 336 643 q 526 706 449 706 q 697 631 643 706 q 750 425 750 556 l 750 0 l 546 0 l 546 399 q 523 500 546 468 q 444 532 500 532 q 372 513 403 532 q 304 460 340 494 l 304 0 l 100 0 z "},"ħ":{"ha":833,"x_min":8,"x_max":750,"o":"m 100 0 l 100 972 l 304 972 l 304 708 l 292 575 l 297 575 q 392 647 336 615 q 526 678 449 678 q 697 603 643 678 q 750 397 750 528 l 750 0 l 546 0 l 546 371 q 523 472 546 440 q 444 504 500 504 q 372 485 403 504 q 304 432 340 467 l 304 0 l 100 0 m 8 768 l 8 865 l 114 874 l 557 874 l 557 768 l 8 768 z "},"ì":{"ha":833,"x_min":108,"x_max":590,"o":"m 386 0 l 386 529 l 108 529 l 108 689 l 590 689 l 590 0 l 386 0 m 488 779 l 236 996 l 375 1132 l 588 879 l 488 779 z "},"í":{"ha":833,"x_min":108,"x_max":722,"o":"m 386 0 l 386 529 l 108 529 l 108 689 l 590 689 l 590 0 l 386 0 m 471 779 l 371 879 l 583 1132 l 722 996 l 471 779 z "},"î":{"ha":833,"x_min":108,"x_max":733,"o":"m 386 0 l 386 529 l 108 529 l 108 689 l 590 689 l 590 0 l 386 0 m 303 779 l 225 851 l 375 1033 l 583 1033 l 733 851 l 656 779 l 482 907 l 476 907 l 303 779 z "},"ĩ":{"ha":833,"x_min":108,"x_max":743,"o":"m 386 0 l 386 529 l 108 529 l 108 689 l 590 689 l 590 0 l 386 0 m 571 796 q 513 810 539 796 q 465 841 486 824 q 426 872 443 858 q 392 885 408 885 q 359 867 371 885 q 343 808 347 849 l 215 815 q 238 934 218 888 q 296 1003 258 981 q 388 1026 333 1026 q 447 1013 421 1026 q 494 983 472 1000 q 533 951 515 965 q 567 938 550 938 q 599 956 588 938 q 615 1014 611 974 l 743 1007 q 720 889 740 936 q 663 819 700 842 q 571 796 625 796 z "},"ï":{"ha":833,"x_min":108,"x_max":744,"o":"m 386 0 l 386 529 l 108 529 l 108 689 l 590 689 l 590 0 l 386 0 m 325 793 q 245 826 276 793 q 214 904 214 858 q 245 984 214 951 q 325 1017 276 1017 q 406 984 375 1017 q 436 904 436 951 q 406 826 436 858 q 325 793 375 793 m 633 793 q 553 826 583 793 q 522 904 522 858 q 553 984 522 951 q 633 1017 583 1017 q 713 984 682 1017 q 744 904 744 951 q 713 826 744 858 q 633 793 682 793 z "},"ī":{"ha":833,"x_min":108,"x_max":685,"o":"m 386 0 l 386 529 l 108 529 l 108 689 l 590 689 l 590 0 l 386 0 m 274 822 l 274 951 l 685 951 l 685 822 l 274 822 z "},"ǐ":{"ha":833,"x_min":108,"x_max":733,"o":"m 386 0 l 386 529 l 108 529 l 108 689 l 590 689 l 590 0 l 386 0 m 375 801 l 225 983 l 303 1056 l 476 928 l 482 928 l 656 1056 l 733 983 l 583 801 l 375 801 z "},"į":{"ha":833,"x_min":110,"x_max":643,"o":"m 488 -315 q 372 -281 419 -315 q 325 -178 325 -246 q 363 -69 325 -114 q 444 0 400 -25 l 386 0 l 386 529 l 110 529 l 110 689 l 590 689 l 590 -1 q 492 -61 521 -25 q 463 -131 463 -97 q 485 -178 463 -162 q 536 -194 507 -194 q 570 -188 554 -194 q 600 -175 586 -182 l 643 -265 q 571 -302 615 -289 q 488 -315 526 -315 m 479 797 q 382 831 421 797 q 343 921 343 865 q 382 1013 343 978 q 479 1049 421 1049 q 577 1013 539 1049 q 615 921 615 978 q 577 831 615 865 q 479 797 539 797 z "},"ỉ":{"ha":833,"x_min":108,"x_max":614,"o":"m 386 0 l 386 529 l 108 529 l 108 689 l 590 689 l 590 0 l 386 0 m 419 789 l 403 869 q 447 885 429 875 q 465 918 465 896 q 440 958 465 944 q 354 976 415 972 l 367 1101 q 512 1078 457 1100 q 590 1019 567 1056 q 614 933 614 982 q 587 856 614 886 q 515 809 560 825 q 419 789 471 793 z "},"ị":{"ha":833,"x_min":108,"x_max":615,"o":"m 386 0 l 386 529 l 108 529 l 108 689 l 590 689 l 590 0 l 386 0 m 479 797 q 382 831 421 797 q 343 921 343 865 q 382 1013 343 978 q 479 1049 421 1049 q 577 1013 539 1049 q 615 921 615 978 q 577 831 615 865 q 479 797 539 797 z "},"ĭ":{"ha":833,"x_min":108,"x_max":714,"o":"m 386 0 l 386 529 l 108 529 l 108 689 l 590 689 l 590 0 l 386 0 m 479 794 q 349 824 400 794 q 272 902 297 853 q 244 1013 246 951 l 361 1032 q 379 976 365 1001 q 418 937 393 951 q 479 922 443 922 q 540 937 515 922 q 579 976 565 951 q 597 1032 593 1001 l 714 1013 q 687 902 713 951 q 610 824 661 853 q 479 794 560 794 z "},"ı":{"ha":833,"x_min":108,"x_max":590,"o":"m 386 0 l 386 529 l 108 529 l 108 689 l 590 689 l 590 0 l 386 0 z "},"ĵ":{"ha":833,"x_min":58,"x_max":733,"o":"m 271 -272 q 155 -259 207 -272 q 58 -225 103 -246 l 118 -79 q 194 -105 160 -97 q 258 -112 228 -112 q 336 -97 308 -112 q 375 -49 364 -81 q 386 33 386 -17 l 386 529 l 108 529 l 108 689 l 590 689 l 590 42 q 575 -78 590 -22 q 524 -178 560 -135 q 426 -247 488 -222 q 271 -272 364 -272 m 303 779 l 225 851 l 375 1033 l 583 1033 l 733 851 l 656 779 l 482 907 l 476 907 l 303 779 z "},"ķ":{"ha":833,"x_min":106,"x_max":813,"o":"m 106 0 l 106 974 l 310 974 l 310 411 l 315 411 l 568 689 l 792 689 l 310 174 l 310 0 l 106 0 m 592 0 l 392 313 l 508 439 l 813 0 l 592 0 m 308 -332 l 293 -250 q 406 -233 375 -246 q 436 -196 436 -219 q 415 -164 436 -176 q 347 -147 394 -151 l 386 -72 q 540 -110 499 -82 q 582 -189 582 -137 q 510 -294 582 -260 q 308 -332 439 -328 z "},"ḳ":{"ha":833,"x_min":106,"x_max":813,"o":"m 106 0 l 106 974 l 310 974 l 310 411 l 315 411 l 568 689 l 792 689 l 310 174 l 310 0 l 106 0 m 592 0 l 392 313 l 508 439 l 813 0 l 592 0 z "},"ḵ":{"ha":833,"x_min":106,"x_max":813,"o":"m 106 0 l 106 974 l 310 974 l 310 411 l 315 411 l 568 689 l 792 689 l 310 174 l 310 0 l 106 0 m 592 0 l 392 313 l 508 439 l 813 0 l 592 0 z "},"ĸ":{"ha":833,"x_min":106,"x_max":813,"o":"m 106 0 l 106 689 l 310 689 l 310 415 l 314 417 l 568 689 l 792 689 l 531 406 l 813 0 l 592 0 l 413 271 l 310 171 l 310 0 l 106 0 z "},"ĺ":{"ha":833,"x_min":71,"x_max":754,"o":"m 549 -17 q 353 61 419 -17 q 286 269 286 139 l 286 813 l 71 813 l 71 972 l 490 972 l 490 261 q 525 173 490 197 q 601 149 560 149 q 652 154 626 149 q 710 171 678 160 l 754 21 q 658 -6 701 4 q 549 -17 614 -17 m 329 1028 l 239 1131 l 476 1325 l 585 1193 l 329 1028 z "},"ľ":{"ha":833,"x_min":71,"x_max":754,"o":"m 549 -17 q 353 61 419 -17 q 286 269 286 139 l 286 813 l 71 813 l 71 972 l 490 972 l 490 261 q 525 173 490 197 q 601 149 560 149 q 652 154 626 149 q 710 171 678 160 l 754 21 q 658 -6 701 4 q 549 -17 614 -17 m 575 761 l 567 1142 l 749 1142 l 746 1006 l 713 761 l 575 761 z "},"ļ":{"ha":833,"x_min":71,"x_max":754,"o":"m 549 -17 q 353 61 419 -17 q 286 269 286 139 l 286 813 l 71 813 l 71 972 l 490 972 l 490 261 q 525 173 490 197 q 601 149 560 149 q 652 154 626 149 q 710 171 678 160 l 754 21 q 658 -6 701 4 q 549 -17 614 -17 m 368 -332 l 353 -250 q 465 -233 435 -246 q 496 -196 496 -219 q 475 -164 496 -176 q 407 -147 454 -151 l 446 -72 q 600 -110 558 -82 q 642 -189 642 -137 q 570 -294 642 -260 q 368 -332 499 -328 z "},"ḷ":{"ha":833,"x_min":71,"x_max":754,"o":"m 549 -17 q 353 61 419 -17 q 286 269 286 139 l 286 813 l 71 813 l 71 972 l 490 972 l 490 261 q 525 173 490 197 q 601 149 560 149 q 652 154 626 149 q 710 171 678 160 l 754 21 q 658 -6 701 4 q 549 -17 614 -17 z "},"ḹ":{"ha":833,"x_min":71,"x_max":754,"o":"m 549 -17 q 353 61 419 -17 q 286 269 286 139 l 286 813 l 71 813 l 71 972 l 490 972 l 490 261 q 525 173 490 197 q 601 149 560 149 q 652 154 626 149 q 710 171 678 160 l 754 21 q 658 -6 701 4 q 549 -17 614 -17 m 171 1085 l 171 1215 l 590 1215 l 590 1085 l 171 1085 z "},"ḻ":{"ha":833,"x_min":71,"x_max":754,"o":"m 549 -17 q 353 61 419 -17 q 286 269 286 139 l 286 813 l 71 813 l 71 972 l 490 972 l 490 261 q 525 173 490 197 q 601 149 560 149 q 652 154 626 149 q 710 171 678 160 l 754 21 q 658 -6 701 4 q 549 -17 614 -17 z "},"ł":{"ha":833,"x_min":69,"x_max":756,"o":"m 168 319 l 99 446 l 296 556 l 451 625 l 660 742 l 729 614 l 451 463 l 296 393 l 168 319 m 549 -17 q 353 61 419 -17 q 286 269 286 139 l 286 813 l 69 813 l 69 974 l 490 974 l 490 261 q 525 173 490 197 q 603 149 560 149 q 652 154 626 149 q 710 171 678 160 l 756 21 q 658 -7 701 3 q 549 -17 614 -17 z "},"ŀ":{"ha":833,"x_min":3,"x_max":907,"o":"m 479 -17 q 283 61 350 -17 q 217 269 217 139 l 217 813 l 1 813 l 1 972 l 421 972 l 421 261 q 456 173 421 197 q 532 149 490 149 q 583 154 557 149 q 640 171 608 160 l 685 21 q 588 -6 632 4 q 479 -17 544 -17 m 771 371 q 674 405 713 371 q 635 494 635 439 q 674 587 635 551 q 771 622 713 622 q 869 587 831 622 q 907 494 907 551 q 869 405 907 439 q 771 371 831 371 z "},"ḿ":{"ha":833,"x_min":49,"x_max":797,"o":"m 49 0 l 49 689 l 203 689 l 217 604 l 222 604 q 276 676 242 646 q 371 706 311 706 q 447 677 415 706 q 490 593 479 649 q 547 673 510 640 q 643 706 583 706 q 757 646 717 706 q 797 483 797 586 l 797 0 l 603 0 l 603 469 q 565 532 603 532 q 531 516 546 532 q 503 465 517 500 l 503 0 l 343 0 l 343 469 q 333 517 343 501 q 304 532 324 532 q 271 516 285 532 q 243 465 257 500 l 243 0 l 49 0 m 439 783 l 339 883 l 551 1136 l 690 1000 l 439 783 z "},"ṁ":{"ha":833,"x_min":49,"x_max":797,"o":"m 49 0 l 49 689 l 203 689 l 217 604 l 222 604 q 276 676 242 646 q 371 706 311 706 q 447 677 415 706 q 490 593 479 649 q 547 673 510 640 q 643 706 583 706 q 757 646 717 706 q 797 483 797 586 l 797 0 l 603 0 l 603 469 q 565 532 603 532 q 531 516 546 532 q 503 465 517 500 l 503 0 l 343 0 l 343 469 q 333 517 343 501 q 304 532 324 532 q 271 516 285 532 q 243 465 257 500 l 243 0 l 49 0 m 447 801 q 350 835 389 801 q 311 925 311 869 q 350 1017 311 982 q 447 1053 389 1053 q 545 1017 507 1053 q 583 925 583 982 q 545 835 583 869 q 447 801 507 801 z "},"ṃ":{"ha":833,"x_min":49,"x_max":797,"o":"m 49 0 l 49 689 l 203 689 l 217 604 l 222 604 q 276 676 242 646 q 371 706 311 706 q 447 677 415 706 q 490 593 479 649 q 547 673 510 640 q 643 706 583 706 q 757 646 717 706 q 797 483 797 586 l 797 0 l 603 0 l 603 469 q 565 532 603 532 q 531 516 546 532 q 503 465 517 500 l 503 0 l 343 0 l 343 469 q 333 517 343 501 q 304 532 324 532 q 271 516 285 532 q 243 465 257 500 l 243 0 l 49 0 z "},"ń":{"ha":833,"x_min":100,"x_max":750,"o":"m 100 0 l 100 689 l 267 689 l 282 597 l 288 597 q 390 674 332 642 q 525 706 447 706 q 696 631 642 706 q 750 425 750 556 l 750 0 l 546 0 l 546 399 q 523 500 546 468 q 444 532 500 532 q 372 513 403 532 q 304 460 340 494 l 304 0 l 100 0 m 429 779 l 329 879 l 542 1132 l 681 996 l 429 779 z "},"ǹ":{"ha":833,"x_min":100,"x_max":750,"o":"m 100 0 l 100 689 l 267 689 l 282 597 l 288 597 q 390 674 332 642 q 525 706 447 706 q 696 631 642 706 q 750 425 750 556 l 750 0 l 546 0 l 546 399 q 523 500 546 468 q 444 532 500 532 q 372 513 403 532 q 304 460 340 494 l 304 0 l 100 0 m 446 779 l 194 996 l 333 1132 l 546 879 l 446 779 z "},"ň":{"ha":833,"x_min":100,"x_max":750,"o":"m 100 0 l 100 689 l 267 689 l 282 597 l 288 597 q 390 674 332 642 q 525 706 447 706 q 696 631 642 706 q 750 425 750 556 l 750 0 l 546 0 l 546 399 q 523 500 546 468 q 444 532 500 532 q 372 513 403 532 q 304 460 340 494 l 304 0 l 100 0 m 333 801 l 183 983 l 261 1056 l 435 928 l 440 928 l 614 1056 l 692 983 l 542 801 l 333 801 z "},"ñ":{"ha":833,"x_min":100,"x_max":750,"o":"m 100 0 l 100 689 l 267 689 l 282 597 l 288 597 q 390 674 332 642 q 525 706 447 706 q 696 631 642 706 q 750 425 750 556 l 750 0 l 546 0 l 546 399 q 523 500 546 468 q 444 532 500 532 q 372 513 403 532 q 304 460 340 494 l 304 0 l 100 0 m 529 796 q 471 810 497 796 q 423 841 444 824 q 384 872 401 858 q 350 885 367 885 q 317 867 329 885 q 301 808 306 849 l 174 815 q 197 934 176 888 q 254 1003 217 981 q 346 1026 292 1026 q 405 1013 379 1026 q 452 983 431 1000 q 491 951 474 965 q 525 938 508 938 q 558 956 546 938 q 574 1014 569 974 l 701 1007 q 678 889 699 936 q 621 819 658 842 q 529 796 583 796 z "},"ņ":{"ha":833,"x_min":100,"x_max":750,"o":"m 100 0 l 100 689 l 267 689 l 282 597 l 288 597 q 390 674 332 642 q 525 706 447 706 q 696 631 642 706 q 750 425 750 556 l 750 0 l 546 0 l 546 399 q 523 500 546 468 q 444 532 500 532 q 372 513 403 532 q 304 460 340 494 l 304 0 l 100 0 m 283 -332 l 268 -250 q 381 -233 350 -246 q 411 -196 411 -219 q 390 -164 411 -176 q 322 -147 369 -151 l 361 -72 q 515 -110 474 -82 q 557 -189 557 -137 q 485 -294 557 -260 q 283 -332 414 -328 z "},"ṅ":{"ha":833,"x_min":100,"x_max":750,"o":"m 100 0 l 100 689 l 267 689 l 282 597 l 288 597 q 390 674 332 642 q 525 706 447 706 q 696 631 642 706 q 750 425 750 556 l 750 0 l 546 0 l 546 399 q 523 500 546 468 q 444 532 500 532 q 372 513 403 532 q 304 460 340 494 l 304 0 l 100 0 m 438 797 q 340 831 379 797 q 301 921 301 865 q 340 1013 301 978 q 438 1049 379 1049 q 535 1013 497 1049 q 574 921 574 978 q 535 831 574 865 q 438 797 497 797 z "},"ṇ":{"ha":833,"x_min":100,"x_max":750,"o":"m 100 0 l 100 689 l 267 689 l 282 597 l 288 597 q 390 674 332 642 q 525 706 447 706 q 696 631 642 706 q 750 425 750 556 l 750 0 l 546 0 l 546 399 q 523 500 546 468 q 444 532 500 532 q 372 513 403 532 q 304 460 340 494 l 304 0 l 100 0 z "},"ṉ":{"ha":833,"x_min":100,"x_max":750,"o":"m 100 0 l 100 689 l 267 689 l 282 597 l 288 597 q 390 674 332 642 q 525 706 447 706 q 696 631 642 706 q 750 425 750 556 l 750 0 l 546 0 l 546 399 q 523 500 546 468 q 444 532 500 532 q 372 513 403 532 q 304 460 340 494 l 304 0 l 100 0 z "},"ŉ":{"ha":833,"x_min":-64,"x_max":894,"o":"m 300 0 l 300 689 l 467 689 l 482 600 l 488 600 q 577 674 528 643 q 696 706 626 706 q 847 631 799 706 q 894 428 894 557 l 894 0 l 690 0 l 690 401 q 673 501 690 469 q 614 532 656 532 q 558 514 581 532 q 504 463 535 496 l 504 0 l 300 0 m -11 403 l -64 511 q 52 598 13 546 q 92 722 92 650 l 82 854 l 165 742 q 117 713 146 725 q 63 700 89 700 q -28 735 7 700 q -64 828 -64 771 q -26 929 -64 890 q 69 968 11 968 q 189 910 146 968 q 232 746 232 851 q 171 545 232 632 q -11 403 110 458 z "},"ò":{"ha":833,"x_min":65,"x_max":768,"o":"m 417 -17 q 246 26 326 -17 q 115 149 165 68 q 65 344 65 231 q 115 540 65 458 q 246 663 165 621 q 417 706 326 706 q 588 663 507 706 q 718 540 668 621 q 768 344 768 458 q 718 149 768 231 q 588 26 668 68 q 417 -17 507 -17 m 417 149 q 495 172 464 149 q 542 240 526 196 q 558 344 558 285 q 542 449 558 404 q 495 517 526 493 q 417 540 464 540 q 338 517 369 540 q 291 449 307 493 q 275 344 275 404 q 291 240 275 285 q 338 172 307 196 q 417 149 369 149 m 425 779 l 174 996 l 313 1132 l 525 879 l 425 779 z "},"ó":{"ha":833,"x_min":65,"x_max":768,"o":"m 417 -17 q 246 26 326 -17 q 115 149 165 68 q 65 344 65 231 q 115 540 65 458 q 246 663 165 621 q 417 706 326 706 q 588 663 507 706 q 718 540 668 621 q 768 344 768 458 q 718 149 768 231 q 588 26 668 68 q 417 -17 507 -17 m 417 149 q 495 172 464 149 q 542 240 526 196 q 558 344 558 285 q 542 449 558 404 q 495 517 526 493 q 417 540 464 540 q 338 517 369 540 q 291 449 307 493 q 275 344 275 404 q 291 240 275 285 q 338 172 307 196 q 417 149 369 149 m 408 779 l 308 879 l 521 1132 l 660 996 l 408 779 z "},"ô":{"ha":833,"x_min":65,"x_max":768,"o":"m 417 -17 q 246 26 326 -17 q 115 149 165 68 q 65 344 65 231 q 115 540 65 458 q 246 663 165 621 q 417 706 326 706 q 588 663 507 706 q 718 540 668 621 q 768 344 768 458 q 718 149 768 231 q 588 26 668 68 q 417 -17 507 -17 m 417 149 q 495 172 464 149 q 542 240 526 196 q 558 344 558 285 q 542 449 558 404 q 495 517 526 493 q 417 540 464 540 q 338 517 369 540 q 291 449 307 493 q 275 344 275 404 q 291 240 275 285 q 338 172 307 196 q 417 149 369 149 m 240 779 l 163 851 l 313 1033 l 521 1033 l 671 851 l 593 779 l 419 907 l 414 907 l 240 779 z "},"õ":{"ha":833,"x_min":65,"x_max":768,"o":"m 417 -17 q 246 26 326 -17 q 115 149 165 68 q 65 344 65 231 q 115 540 65 458 q 246 663 165 621 q 417 706 326 706 q 588 663 507 706 q 718 540 668 621 q 768 344 768 458 q 718 149 768 231 q 588 26 668 68 q 417 -17 507 -17 m 417 149 q 495 172 464 149 q 542 240 526 196 q 558 344 558 285 q 542 449 558 404 q 495 517 526 493 q 417 540 464 540 q 338 517 369 540 q 291 449 307 493 q 275 344 275 404 q 291 240 275 285 q 338 172 307 196 q 417 149 369 149 m 508 796 q 450 810 476 796 q 402 841 424 824 q 363 872 381 858 q 329 885 346 885 q 297 867 308 885 q 281 808 285 849 l 153 815 q 176 934 156 888 q 233 1003 196 981 q 325 1026 271 1026 q 384 1013 358 1026 q 431 983 410 1000 q 470 951 453 965 q 504 938 488 938 q 537 956 525 938 q 553 1014 549 974 l 681 1007 q 658 889 678 936 q 600 819 638 842 q 508 796 563 796 z "},"ö":{"ha":833,"x_min":65,"x_max":768,"o":"m 417 -17 q 246 26 326 -17 q 115 149 165 68 q 65 344 65 231 q 115 540 65 458 q 246 663 165 621 q 417 706 326 706 q 588 663 507 706 q 718 540 668 621 q 768 344 768 458 q 718 149 768 231 q 588 26 668 68 q 417 -17 507 -17 m 417 149 q 495 172 464 149 q 542 240 526 196 q 558 344 558 285 q 542 449 558 404 q 495 517 526 493 q 417 540 464 540 q 338 517 369 540 q 291 449 307 493 q 275 344 275 404 q 291 240 275 285 q 338 172 307 196 q 417 149 369 149 m 263 793 q 183 826 214 793 q 151 904 151 858 q 183 984 151 951 q 263 1017 214 1017 q 343 984 313 1017 q 374 904 374 951 q 343 826 374 858 q 263 793 313 793 m 571 793 q 490 826 521 793 q 460 904 460 858 q 490 984 460 951 q 571 1017 521 1017 q 651 984 619 1017 q 682 904 682 951 q 651 826 682 858 q 571 793 619 793 z "},"ō":{"ha":833,"x_min":65,"x_max":768,"o":"m 417 -17 q 246 26 326 -17 q 115 149 165 68 q 65 344 65 231 q 115 540 65 458 q 246 663 165 621 q 417 706 326 706 q 588 663 507 706 q 718 540 668 621 q 768 344 768 458 q 718 149 768 231 q 588 26 668 68 q 417 -17 507 -17 m 417 149 q 495 172 464 149 q 542 240 526 196 q 558 344 558 285 q 542 449 558 404 q 495 517 526 493 q 417 540 464 540 q 338 517 369 540 q 291 449 307 493 q 275 344 275 404 q 291 240 275 285 q 338 172 307 196 q 417 149 369 149 m 211 822 l 211 951 l 622 951 l 622 822 l 211 822 z "},"ő":{"ha":833,"x_min":65,"x_max":768,"o":"m 417 -17 q 246 26 326 -17 q 115 149 165 68 q 65 344 65 231 q 115 540 65 458 q 246 663 165 621 q 417 706 326 706 q 588 663 507 706 q 718 540 668 621 q 768 344 768 458 q 718 149 768 231 q 588 26 668 68 q 417 -17 507 -17 m 417 149 q 495 172 464 149 q 542 240 526 196 q 558 344 558 285 q 542 449 558 404 q 495 517 526 493 q 417 540 464 540 q 338 517 369 540 q 291 449 307 493 q 275 344 275 404 q 291 240 275 285 q 338 172 307 196 q 417 149 369 149 m 343 785 l 235 833 l 357 1085 l 493 1024 l 343 785 m 592 785 l 483 833 l 606 1085 l 742 1024 l 592 785 z "},"ǒ":{"ha":833,"x_min":65,"x_max":768,"o":"m 417 -17 q 246 26 326 -17 q 115 149 165 68 q 65 344 65 231 q 115 540 65 458 q 246 663 165 621 q 417 706 326 706 q 588 663 507 706 q 718 540 668 621 q 768 344 768 458 q 718 149 768 231 q 588 26 668 68 q 417 -17 507 -17 m 417 149 q 495 172 464 149 q 542 240 526 196 q 558 344 558 285 q 542 449 558 404 q 495 517 526 493 q 417 540 464 540 q 338 517 369 540 q 291 449 307 493 q 275 344 275 404 q 291 240 275 285 q 338 172 307 196 q 417 149 369 149 m 313 801 l 163 983 l 240 1056 l 414 928 l 419 928 l 593 1056 l 671 983 l 521 801 l 313 801 z "},"ǫ":{"ha":833,"x_min":65,"x_max":768,"o":"m 444 -315 q 332 -281 378 -315 q 286 -178 286 -247 q 315 -79 286 -121 q 374 -14 344 -37 q 220 42 290 -3 q 108 165 150 88 q 65 344 65 242 q 115 540 65 458 q 246 663 165 621 q 417 706 326 706 q 588 663 508 706 q 718 540 668 621 q 768 344 768 458 q 738 188 768 253 q 653 78 707 124 q 528 1 600 32 q 450 -60 475 -24 q 425 -131 425 -97 q 447 -179 425 -164 q 493 -194 469 -194 q 534 -188 517 -194 q 561 -175 551 -182 l 606 -265 q 533 -301 578 -287 q 444 -315 489 -315 m 417 143 q 495 168 464 143 q 542 238 526 193 q 558 344 558 282 q 542 449 558 404 q 495 517 526 493 q 417 540 464 540 q 338 517 369 540 q 291 449 307 493 q 275 344 275 404 q 291 238 275 282 q 338 168 307 193 q 417 143 369 143 z "},"ọ":{"ha":833,"x_min":65,"x_max":768,"o":"m 417 -17 q 246 26 326 -17 q 115 149 165 68 q 65 344 65 231 q 115 540 65 458 q 246 663 165 621 q 417 706 326 706 q 588 663 507 706 q 718 540 668 621 q 768 344 768 458 q 718 149 768 231 q 588 26 668 68 q 417 -17 507 -17 m 417 149 q 495 172 464 149 q 542 240 526 196 q 558 344 558 285 q 542 449 558 404 q 495 517 526 493 q 417 540 464 540 q 338 517 369 540 q 291 449 307 493 q 275 344 275 404 q 291 240 275 285 q 338 172 307 196 q 417 149 369 149 z "},"ỏ":{"ha":833,"x_min":65,"x_max":768,"o":"m 417 -17 q 246 26 326 -17 q 115 149 165 68 q 65 344 65 231 q 115 540 65 458 q 246 663 165 621 q 417 706 326 706 q 588 663 507 706 q 718 540 668 621 q 768 344 768 458 q 718 149 768 231 q 588 26 668 68 q 417 -17 507 -17 m 417 149 q 495 172 464 149 q 542 240 526 196 q 558 344 558 285 q 542 449 558 404 q 495 517 526 493 q 417 540 464 540 q 338 517 369 540 q 291 449 307 493 q 275 344 275 404 q 291 240 275 285 q 338 172 307 196 q 417 149 369 149 m 357 789 l 340 869 q 385 885 367 875 q 403 918 403 896 q 378 958 403 944 q 292 976 353 972 l 304 1101 q 449 1078 394 1100 q 528 1019 504 1056 q 551 933 551 982 q 524 856 551 886 q 453 809 497 825 q 357 789 408 793 z "},"ố":{"ha":833,"x_min":65,"x_max":801,"o":"m 417 -17 q 246 26 326 -17 q 115 149 165 68 q 65 344 65 231 q 115 540 65 458 q 246 663 165 621 q 417 706 326 706 q 588 663 507 706 q 718 540 668 621 q 768 344 768 458 q 718 149 768 231 q 588 26 668 68 q 417 -17 507 -17 m 417 149 q 495 172 464 149 q 542 240 526 196 q 558 344 558 285 q 542 449 558 404 q 495 517 526 493 q 417 540 464 540 q 338 517 369 540 q 291 449 307 493 q 275 344 275 404 q 291 240 275 285 q 338 172 307 196 q 417 149 369 149 m 272 786 l 207 858 l 336 986 l 497 986 l 626 858 l 561 786 l 419 876 l 414 876 l 272 786 m 661 886 l 583 947 l 693 1124 l 801 1053 l 661 886 z "},"ồ":{"ha":833,"x_min":26,"x_max":768,"o":"m 417 -17 q 246 26 326 -17 q 115 149 165 68 q 65 344 65 231 q 115 540 65 458 q 246 663 165 621 q 417 706 326 706 q 588 663 507 706 q 718 540 668 621 q 768 344 768 458 q 718 149 768 231 q 588 26 668 68 q 417 -17 507 -17 m 417 149 q 495 172 464 149 q 542 240 526 196 q 558 344 558 285 q 542 449 558 404 q 495 517 526 493 q 417 540 464 540 q 338 517 369 540 q 291 449 307 493 q 275 344 275 404 q 291 240 275 285 q 338 172 307 196 q 417 149 369 149 m 272 786 l 207 858 l 336 986 l 497 986 l 626 858 l 561 786 l 419 876 l 414 876 l 272 786 m 172 886 l 26 1051 l 135 1124 l 250 947 l 172 886 z "},"ổ":{"ha":833,"x_min":65,"x_max":769,"o":"m 417 -17 q 246 26 326 -17 q 115 149 165 68 q 65 344 65 231 q 115 540 65 458 q 246 663 165 621 q 417 706 326 706 q 588 663 507 706 q 718 540 668 621 q 768 344 768 458 q 718 149 768 231 q 588 26 668 68 q 417 -17 507 -17 m 417 149 q 495 172 464 149 q 542 240 526 196 q 558 344 558 285 q 542 449 558 404 q 495 517 526 493 q 417 540 464 540 q 338 517 369 540 q 291 449 307 493 q 275 344 275 404 q 291 240 275 285 q 338 172 307 196 q 417 149 369 149 m 272 786 l 207 858 l 336 986 l 497 986 l 626 858 l 561 786 l 419 876 l 414 876 l 272 786 m 608 894 l 594 964 q 625 978 614 969 q 636 1004 636 986 q 617 1035 636 1024 q 546 1050 599 1046 l 565 1136 q 724 1103 679 1132 q 769 1025 769 1074 q 747 954 769 981 q 688 915 725 928 q 608 894 651 901 z "},"ỗ":{"ha":833,"x_min":65,"x_max":768,"o":"m 417 -17 q 246 26 326 -17 q 115 149 165 68 q 65 344 65 231 q 115 540 65 458 q 246 663 165 621 q 417 706 326 706 q 588 663 507 706 q 718 540 668 621 q 768 344 768 458 q 718 149 768 231 q 588 26 668 68 q 417 -17 507 -17 m 417 149 q 495 172 464 149 q 542 240 526 196 q 558 344 558 285 q 542 449 558 404 q 495 517 526 493 q 417 540 464 540 q 338 517 369 540 q 291 449 307 493 q 275 344 275 404 q 291 240 275 285 q 338 172 307 196 q 417 149 369 149 m 272 786 l 207 858 l 336 975 l 497 975 l 626 858 l 561 786 l 419 864 l 414 864 l 272 786 m 497 994 q 433 1009 460 994 q 388 1038 407 1024 q 347 1053 368 1053 q 322 1041 332 1053 q 304 1000 311 1029 l 211 1010 q 251 1127 219 1090 q 336 1164 283 1164 q 400 1149 374 1164 q 446 1120 426 1135 q 486 1106 465 1106 q 513 1119 503 1106 q 529 1158 524 1132 l 622 1149 q 582 1032 614 1069 q 497 994 550 994 z "},"ộ":{"ha":833,"x_min":65,"x_max":768,"o":"m 417 -17 q 246 26 326 -17 q 115 149 165 68 q 65 344 65 231 q 115 540 65 458 q 246 663 165 621 q 417 706 326 706 q 588 663 507 706 q 718 540 668 621 q 768 344 768 458 q 718 149 768 231 q 588 26 668 68 q 417 -17 507 -17 m 417 149 q 495 172 464 149 q 542 240 526 196 q 558 344 558 285 q 542 449 558 404 q 495 517 526 493 q 417 540 464 540 q 338 517 369 540 q 291 449 307 493 q 275 344 275 404 q 291 240 275 285 q 338 172 307 196 q 417 149 369 149 m 240 779 l 163 851 l 313 1033 l 521 1033 l 671 851 l 593 779 l 419 907 l 414 907 l 240 779 z "},"ŏ":{"ha":833,"x_min":65,"x_max":768,"o":"m 417 -17 q 246 26 326 -17 q 115 149 165 68 q 65 344 65 231 q 115 540 65 458 q 246 663 165 621 q 417 706 326 706 q 588 663 507 706 q 718 540 668 621 q 768 344 768 458 q 718 149 768 231 q 588 26 668 68 q 417 -17 507 -17 m 417 149 q 495 172 464 149 q 542 240 526 196 q 558 344 558 285 q 542 449 558 404 q 495 517 526 493 q 417 540 464 540 q 338 517 369 540 q 291 449 307 493 q 275 344 275 404 q 291 240 275 285 q 338 172 307 196 q 417 149 369 149 m 417 794 q 286 824 338 794 q 209 902 235 853 q 182 1013 183 951 l 299 1032 q 317 976 303 1001 q 356 937 331 951 q 417 922 381 922 q 478 937 453 922 q 517 976 503 951 q 535 1032 531 1001 l 651 1013 q 624 902 650 951 q 548 824 599 853 q 417 794 497 794 z "},"ṓ":{"ha":833,"x_min":65,"x_max":768,"o":"m 417 -17 q 246 26 326 -17 q 115 149 165 68 q 65 344 65 231 q 115 540 65 458 q 246 663 165 621 q 417 706 326 706 q 588 663 507 706 q 718 540 668 621 q 768 344 768 458 q 718 149 768 231 q 588 26 668 68 q 417 -17 507 -17 m 417 149 q 495 172 464 149 q 542 240 526 196 q 558 344 558 285 q 542 449 558 404 q 495 517 526 493 q 417 540 464 540 q 338 517 369 540 q 291 449 307 493 q 275 344 275 404 q 291 240 275 285 q 338 172 307 196 q 417 149 369 149 m 211 822 l 211 951 l 622 951 l 622 822 l 211 822 m 378 990 l 310 1074 l 510 1219 l 593 1117 l 378 990 z "},"ơ":{"ha":833,"x_min":65,"x_max":824,"o":"m 643 606 l 547 672 q 624 717 594 685 q 653 814 653 749 q 648 865 653 840 q 632 904 643 890 l 782 971 q 812 908 800 946 q 824 828 824 871 q 800 724 824 768 q 736 650 776 679 q 643 606 696 621 m 417 -17 q 246 26 326 -17 q 115 149 165 68 q 65 344 65 231 q 115 540 65 458 q 246 663 165 621 q 417 706 326 706 q 588 663 507 706 q 718 540 668 621 q 768 344 768 458 q 718 149 768 231 q 588 26 668 68 q 417 -17 507 -17 m 417 149 q 495 172 464 149 q 542 240 526 196 q 558 344 558 285 q 542 449 558 404 q 495 517 526 493 q 417 540 464 540 q 338 517 369 540 q 291 449 307 493 q 275 344 275 404 q 291 240 275 285 q 338 172 307 196 q 417 149 369 149 z "},"ớ":{"ha":833,"x_min":65,"x_max":824,"o":"m 643 606 l 547 672 q 624 717 594 685 q 653 814 653 749 q 648 865 653 840 q 632 904 643 890 l 782 971 q 812 908 800 946 q 824 828 824 871 q 800 724 824 768 q 736 650 776 679 q 643 606 696 621 m 417 -17 q 246 26 326 -17 q 115 149 165 68 q 65 344 65 231 q 115 540 65 458 q 246 663 165 621 q 417 706 326 706 q 588 663 507 706 q 718 540 668 621 q 768 344 768 458 q 718 149 768 231 q 588 26 668 68 q 417 -17 507 -17 m 417 149 q 495 172 464 149 q 542 240 526 196 q 558 344 558 285 q 542 449 558 404 q 495 517 526 493 q 417 540 464 540 q 338 517 369 540 q 291 449 307 493 q 275 344 275 404 q 291 240 275 285 q 338 172 307 196 q 417 149 369 149 m 408 779 l 308 879 l 521 1132 l 660 996 l 408 779 z "},"ờ":{"ha":833,"x_min":65,"x_max":824,"o":"m 643 606 l 547 672 q 624 717 594 685 q 653 814 653 749 q 648 865 653 840 q 632 904 643 890 l 782 971 q 812 908 800 946 q 824 828 824 871 q 800 724 824 768 q 736 650 776 679 q 643 606 696 621 m 417 -17 q 246 26 326 -17 q 115 149 165 68 q 65 344 65 231 q 115 540 65 458 q 246 663 165 621 q 417 706 326 706 q 588 663 507 706 q 718 540 668 621 q 768 344 768 458 q 718 149 768 231 q 588 26 668 68 q 417 -17 507 -17 m 417 149 q 495 172 464 149 q 542 240 526 196 q 558 344 558 285 q 542 449 558 404 q 495 517 526 493 q 417 540 464 540 q 338 517 369 540 q 291 449 307 493 q 275 344 275 404 q 291 240 275 285 q 338 172 307 196 q 417 149 369 149 m 425 779 l 174 996 l 313 1132 l 525 879 l 425 779 z "},"ở":{"ha":833,"x_min":65,"x_max":824,"o":"m 643 606 l 547 672 q 624 717 594 685 q 653 814 653 749 q 648 865 653 840 q 632 904 643 890 l 782 971 q 812 908 800 946 q 824 828 824 871 q 800 724 824 768 q 736 650 776 679 q 643 606 696 621 m 417 -17 q 246 26 326 -17 q 115 149 165 68 q 65 344 65 231 q 115 540 65 458 q 246 663 165 621 q 417 706 326 706 q 588 663 507 706 q 718 540 668 621 q 768 344 768 458 q 718 149 768 231 q 588 26 668 68 q 417 -17 507 -17 m 417 149 q 495 172 464 149 q 542 240 526 196 q 558 344 558 285 q 542 449 558 404 q 495 517 526 493 q 417 540 464 540 q 338 517 369 540 q 291 449 307 493 q 275 344 275 404 q 291 240 275 285 q 338 172 307 196 q 417 149 369 149 m 357 789 l 340 869 q 385 885 367 875 q 403 918 403 896 q 378 958 403 944 q 292 976 353 972 l 304 1101 q 449 1078 394 1100 q 528 1019 504 1056 q 551 933 551 982 q 524 856 551 886 q 453 809 497 825 q 357 789 408 793 z "},"ỡ":{"ha":833,"x_min":65,"x_max":824,"o":"m 643 606 l 547 672 q 624 717 594 685 q 653 814 653 749 q 648 865 653 840 q 632 904 643 890 l 782 971 q 812 908 800 946 q 824 828 824 871 q 800 724 824 768 q 736 650 776 679 q 643 606 696 621 m 417 -17 q 246 26 326 -17 q 115 149 165 68 q 65 344 65 231 q 115 540 65 458 q 246 663 165 621 q 417 706 326 706 q 588 663 507 706 q 718 540 668 621 q 768 344 768 458 q 718 149 768 231 q 588 26 668 68 q 417 -17 507 -17 m 417 149 q 495 172 464 149 q 542 240 526 196 q 558 344 558 285 q 542 449 558 404 q 495 517 526 493 q 417 540 464 540 q 338 517 369 540 q 291 449 307 493 q 275 344 275 404 q 291 240 275 285 q 338 172 307 196 q 417 149 369 149 m 481 796 q 422 810 449 796 q 374 841 396 824 q 335 872 353 858 q 301 885 318 885 q 269 867 281 885 q 253 808 257 849 l 125 815 q 148 934 128 888 q 206 1003 168 981 q 297 1026 243 1026 q 356 1013 331 1026 q 403 983 382 1000 q 442 951 425 965 q 476 938 460 938 q 509 956 497 938 q 525 1014 521 974 l 653 1007 q 630 889 650 936 q 572 819 610 842 q 481 796 535 796 z "}}}
